<?xml version="1.0" encoding="UTF-8" standalone="no"?>
<!DOCTYPE svg PUBLIC "-//W3C//DTD SVG 1.0//EN" "http://www.w3.org/TR/2001/PR-SVG-20010719/DTD/svg10.dtd">
<svg width="17cm" height="11cm" viewBox="186 137 323 217" xmlns="http://www.w3.org/2000/svg" xmlns:xlink="http://www.w3.org/1999/xlink">
  <g>
    <ellipse style="fill: #90ee90" cx="347.7" cy="156.216" rx="20" ry="17.3162"/>
    <ellipse style="fill: none; fill-opacity:0; stroke-width: 2; stroke: #000000" cx="347.7" cy="156.216" rx="20" ry="17.3162"/>
    <text font-size="12.8" style="fill: #000000;text-anchor:middle;font-family:sans-serif;font-style:normal;font-weight:normal" x="347.7" y="160.116">
      <tspan x="347.7" y="160.116"></tspan>
    </text>
  </g>
  <g>
    <line style="fill: none; fill-opacity:0; stroke-width: 3; stroke: #000000" x1="278.252" y1="232.044" x2="291.127" y2="251.357"/>
    <polygon style="fill: #000000" points="295.288,257.598 285.58,252.051 291.127,251.357 293.901,246.504 "/>
    <polygon style="fill: none; fill-opacity:0; stroke-width: 3; stroke: #000000" points="295.288,257.598 285.58,252.051 291.127,251.357 293.901,246.504 "/>
  </g>
  <g>
    <ellipse style="fill: #90ee90" cx="267.7" cy="216.216" rx="20" ry="17.3162"/>
    <ellipse style="fill: none; fill-opacity:0; stroke-width: 2; stroke: #000000" cx="267.7" cy="216.216" rx="20" ry="17.3162"/>
    <text font-size="12.8" style="fill: #000000;text-anchor:middle;font-family:sans-serif;font-style:normal;font-weight:normal" x="267.7" y="220.116">
      <tspan x="267.7" y="220.116"></tspan>
    </text>
  </g>
  <g>
    <line style="fill: none; fill-opacity:0; stroke-width: 3; stroke: #000000" x1="331.792" y1="168.147" x2="292.291" y2="197.773"/>
    <polygon style="fill: #000000" points="286.291,202.273 291.291,192.273 292.291,197.773 297.291,200.273 "/>
    <polygon style="fill: none; fill-opacity:0; stroke-width: 3; stroke: #000000" points="286.291,202.273 291.291,192.273 292.291,197.773 297.291,200.273 "/>
  </g>
  <g>
    <ellipse style="fill: #1e90ff" cx="227.7" cy="276.216" rx="20" ry="17.3162"/>
    <ellipse style="fill: none; fill-opacity:0; stroke-width: 2; stroke: #000000" cx="227.7" cy="276.216" rx="20" ry="17.3162"/>
    <text font-size="12.8" style="fill: #000000;text-anchor:middle;font-family:sans-serif;font-style:normal;font-weight:normal" x="227.7" y="280.116">
      <tspan x="227.7" y="280.116"></tspan>
    </text>
  </g>
  <g>
    <line style="fill: none; fill-opacity:0; stroke-width: 3; stroke: #000000" x1="257.148" y1="232.044" x2="244.273" y2="251.357"/>
    <polygon style="fill: #000000" points="240.112,257.598 241.499,246.504 244.273,251.357 249.82,252.051 "/>
    <polygon style="fill: none; fill-opacity:0; stroke-width: 3; stroke: #000000" points="240.112,257.598 241.499,246.504 244.273,251.357 249.82,252.051 "/>
  </g>
  <g>
    <line style="fill: none; fill-opacity:0; stroke-width: 3; stroke: #000000" x1="221.838" y1="293.802" x2="216.994" y2="308.334"/>
    <polygon style="fill: #000000" points="214.622,315.449 213.041,304.381 216.994,308.334 222.528,307.543 "/>
    <polygon style="fill: none; fill-opacity:0; stroke-width: 3; stroke: #000000" points="214.622,315.449 213.041,304.381 216.994,308.334 222.528,307.543 "/>
  </g>
  <g>
    <line style="fill: none; fill-opacity:0; stroke-width: 3; stroke: #000000" x1="227.7" y1="294.534" x2="227.7" y2="307.044"/>
    <polygon style="fill: #000000" points="227.7,314.544 222.7,304.544 227.7,307.044 232.7,304.544 "/>
    <polygon style="fill: none; fill-opacity:0; stroke-width: 3; stroke: #000000" points="227.7,314.544 222.7,304.544 227.7,307.044 232.7,304.544 "/>
  </g>
  <g>
    <line style="fill: none; fill-opacity:0; stroke-width: 3; stroke: #000000" x1="233.562" y1="293.802" x2="238.406" y2="308.334"/>
    <polygon style="fill: #000000" points="240.778,315.449 232.872,307.543 238.406,308.334 242.359,304.381 "/>
    <polygon style="fill: none; fill-opacity:0; stroke-width: 3; stroke: #000000" points="240.778,315.449 232.872,307.543 238.406,308.334 242.359,304.381 "/>
  </g>
  <g>
    <ellipse style="fill: #bfbfbf" cx="207.7" cy="336.216" rx="20" ry="17.3162"/>
    <ellipse style="fill: none; fill-opacity:0; stroke-width: 2; stroke: #000000" cx="207.7" cy="336.216" rx="20" ry="17.3162"/>
    <text font-size="12.8" style="fill: #000000;text-anchor:middle;font-family:sans-serif;font-style:normal;font-weight:normal" x="207.7" y="340.116">
      <tspan x="207.7" y="340.116"></tspan>
    </text>
  </g>
  <g>
    <ellipse style="fill: #bfbfbf" cx="227.7" cy="336.216" rx="20" ry="17.3162"/>
    <ellipse style="fill: none; fill-opacity:0; stroke-width: 2; stroke: #000000" cx="227.7" cy="336.216" rx="20" ry="17.3162"/>
    <text font-size="12.8" style="fill: #000000;text-anchor:middle;font-family:sans-serif;font-style:normal;font-weight:normal" x="227.7" y="340.116">
      <tspan x="227.7" y="340.116"></tspan>
    </text>
  </g>
  <g>
    <ellipse style="fill: #bfbfbf" cx="247.7" cy="336.216" rx="20" ry="17.3162"/>
    <ellipse style="fill: none; fill-opacity:0; stroke-width: 2; stroke: #000000" cx="247.7" cy="336.216" rx="20" ry="17.3162"/>
    <text font-size="12.8" style="fill: #000000;text-anchor:middle;font-family:sans-serif;font-style:normal;font-weight:normal" x="247.7" y="340.116">
      <tspan x="247.7" y="340.116"></tspan>
    </text>
  </g>
  <g>
    <ellipse style="fill: #1e90ff" cx="307.7" cy="276.216" rx="20" ry="17.3162"/>
    <ellipse style="fill: none; fill-opacity:0; stroke-width: 2; stroke: #000000" cx="307.7" cy="276.216" rx="20" ry="17.3162"/>
    <text font-size="12.8" style="fill: #000000;text-anchor:middle;font-family:sans-serif;font-style:normal;font-weight:normal" x="307.7" y="280.116">
      <tspan x="307.7" y="280.116"></tspan>
    </text>
  </g>
  <g>
    <line style="fill: none; fill-opacity:0; stroke-width: 3; stroke: #000000" x1="301.838" y1="293.802" x2="296.994" y2="308.334"/>
    <polygon style="fill: #000000" points="294.622,315.449 293.041,304.381 296.994,308.334 302.528,307.543 "/>
    <polygon style="fill: none; fill-opacity:0; stroke-width: 3; stroke: #000000" points="294.622,315.449 293.041,304.381 296.994,308.334 302.528,307.543 "/>
  </g>
  <g>
    <line style="fill: none; fill-opacity:0; stroke-width: 3; stroke: #000000" x1="307.7" y1="294.534" x2="307.7" y2="307.044"/>
    <polygon style="fill: #000000" points="307.7,314.544 302.7,304.544 307.7,307.044 312.7,304.544 "/>
    <polygon style="fill: none; fill-opacity:0; stroke-width: 3; stroke: #000000" points="307.7,314.544 302.7,304.544 307.7,307.044 312.7,304.544 "/>
  </g>
  <g>
    <line style="fill: none; fill-opacity:0; stroke-width: 3; stroke: #000000" x1="313.562" y1="293.802" x2="318.406" y2="308.334"/>
    <polygon style="fill: #000000" points="320.778,315.449 312.872,307.543 318.406,308.334 322.359,304.381 "/>
    <polygon style="fill: none; fill-opacity:0; stroke-width: 3; stroke: #000000" points="320.778,315.449 312.872,307.543 318.406,308.334 322.359,304.381 "/>
  </g>
  <g>
    <ellipse style="fill: #bfbfbf" cx="287.7" cy="336.216" rx="20" ry="17.3162"/>
    <ellipse style="fill: none; fill-opacity:0; stroke-width: 2; stroke: #000000" cx="287.7" cy="336.216" rx="20" ry="17.3162"/>
    <text font-size="12.8" style="fill: #000000;text-anchor:middle;font-family:sans-serif;font-style:normal;font-weight:normal" x="287.7" y="340.116">
      <tspan x="287.7" y="340.116"></tspan>
    </text>
  </g>
  <g>
    <ellipse style="fill: #bfbfbf" cx="307.7" cy="336.216" rx="20" ry="17.3162"/>
    <ellipse style="fill: none; fill-opacity:0; stroke-width: 2; stroke: #000000" cx="307.7" cy="336.216" rx="20" ry="17.3162"/>
    <text font-size="12.8" style="fill: #000000;text-anchor:middle;font-family:sans-serif;font-style:normal;font-weight:normal" x="307.7" y="340.116">
      <tspan x="307.7" y="340.116"></tspan>
    </text>
  </g>
  <g>
    <ellipse style="fill: #bfbfbf" cx="327.7" cy="336.216" rx="20" ry="17.3162"/>
    <ellipse style="fill: none; fill-opacity:0; stroke-width: 2; stroke: #000000" cx="327.7" cy="336.216" rx="20" ry="17.3162"/>
    <text font-size="12.8" style="fill: #000000;text-anchor:middle;font-family:sans-serif;font-style:normal;font-weight:normal" x="327.7" y="340.116">
      <tspan x="327.7" y="340.116"></tspan>
    </text>
  </g>
  <g>
    <line style="fill: none; fill-opacity:0; stroke-width: 3; stroke: #000000" x1="438.252" y1="232.044" x2="451.127" y2="251.357"/>
    <polygon style="fill: #000000" points="455.288,257.598 445.58,252.051 451.127,251.357 453.901,246.504 "/>
    <polygon style="fill: none; fill-opacity:0; stroke-width: 3; stroke: #000000" points="455.288,257.598 445.58,252.051 451.127,251.357 453.901,246.504 "/>
  </g>
  <g>
    <ellipse style="fill: #90ee90" cx="427.7" cy="216.216" rx="20" ry="17.3162"/>
    <ellipse style="fill: none; fill-opacity:0; stroke-width: 2; stroke: #000000" cx="427.7" cy="216.216" rx="20" ry="17.3162"/>
    <text font-size="12.8" style="fill: #000000;text-anchor:middle;font-family:sans-serif;font-style:normal;font-weight:normal" x="427.7" y="220.116">
      <tspan x="427.7" y="220.116"></tspan>
    </text>
  </g>
  <g>
    <ellipse style="fill: #1e90ff" cx="387.7" cy="276.216" rx="20" ry="17.3162"/>
    <ellipse style="fill: none; fill-opacity:0; stroke-width: 2; stroke: #000000" cx="387.7" cy="276.216" rx="20" ry="17.3162"/>
    <text font-size="12.8" style="fill: #000000;text-anchor:middle;font-family:sans-serif;font-style:normal;font-weight:normal" x="387.7" y="280.116">
      <tspan x="387.7" y="280.116"></tspan>
    </text>
  </g>
  <g>
    <line style="fill: none; fill-opacity:0; stroke-width: 3; stroke: #000000" x1="417.148" y1="232.044" x2="404.273" y2="251.357"/>
    <polygon style="fill: #000000" points="400.112,257.598 401.499,246.504 404.273,251.357 409.82,252.051 "/>
    <polygon style="fill: none; fill-opacity:0; stroke-width: 3; stroke: #000000" points="400.112,257.598 401.499,246.504 404.273,251.357 409.82,252.051 "/>
  </g>
  <g>
    <line style="fill: none; fill-opacity:0; stroke-width: 3; stroke: #000000" x1="381.838" y1="293.802" x2="376.994" y2="308.334"/>
    <polygon style="fill: #000000" points="374.622,315.449 373.041,304.381 376.994,308.334 382.528,307.543 "/>
    <polygon style="fill: none; fill-opacity:0; stroke-width: 3; stroke: #000000" points="374.622,315.449 373.041,304.381 376.994,308.334 382.528,307.543 "/>
  </g>
  <g>
    <line style="fill: none; fill-opacity:0; stroke-width: 3; stroke: #000000" x1="387.7" y1="294.534" x2="387.7" y2="307.044"/>
    <polygon style="fill: #000000" points="387.7,314.544 382.7,304.544 387.7,307.044 392.7,304.544 "/>
    <polygon style="fill: none; fill-opacity:0; stroke-width: 3; stroke: #000000" points="387.7,314.544 382.7,304.544 387.7,307.044 392.7,304.544 "/>
  </g>
  <g>
    <line style="fill: none; fill-opacity:0; stroke-width: 3; stroke: #000000" x1="393.562" y1="293.802" x2="398.406" y2="308.334"/>
    <polygon style="fill: #000000" points="400.778,315.449 392.872,307.543 398.406,308.334 402.359,304.381 "/>
    <polygon style="fill: none; fill-opacity:0; stroke-width: 3; stroke: #000000" points="400.778,315.449 392.872,307.543 398.406,308.334 402.359,304.381 "/>
  </g>
  <g>
    <ellipse style="fill: #bfbfbf" cx="367.7" cy="336.216" rx="20" ry="17.3162"/>
    <ellipse style="fill: none; fill-opacity:0; stroke-width: 2; stroke: #000000" cx="367.7" cy="336.216" rx="20" ry="17.3162"/>
    <text font-size="12.8" style="fill: #000000;text-anchor:middle;font-family:sans-serif;font-style:normal;font-weight:normal" x="367.7" y="340.116">
      <tspan x="367.7" y="340.116"></tspan>
    </text>
  </g>
  <g>
    <ellipse style="fill: #bfbfbf" cx="387.7" cy="336.216" rx="20" ry="17.3162"/>
    <ellipse style="fill: none; fill-opacity:0; stroke-width: 2; stroke: #000000" cx="387.7" cy="336.216" rx="20" ry="17.3162"/>
    <text font-size="12.8" style="fill: #000000;text-anchor:middle;font-family:sans-serif;font-style:normal;font-weight:normal" x="387.7" y="340.116">
      <tspan x="387.7" y="340.116"></tspan>
    </text>
  </g>
  <g>
    <ellipse style="fill: #bfbfbf" cx="407.7" cy="336.216" rx="20" ry="17.3162"/>
    <ellipse style="fill: none; fill-opacity:0; stroke-width: 2; stroke: #000000" cx="407.7" cy="336.216" rx="20" ry="17.3162"/>
    <text font-size="12.8" style="fill: #000000;text-anchor:middle;font-family:sans-serif;font-style:normal;font-weight:normal" x="407.7" y="340.116">
      <tspan x="407.7" y="340.116"></tspan>
    </text>
  </g>
  <g>
    <ellipse style="fill: #1e90ff" cx="467.7" cy="276.216" rx="20" ry="17.3162"/>
    <ellipse style="fill: none; fill-opacity:0; stroke-width: 2; stroke: #000000" cx="467.7" cy="276.216" rx="20" ry="17.3162"/>
    <text font-size="12.8" style="fill: #000000;text-anchor:middle;font-family:sans-serif;font-style:normal;font-weight:normal" x="467.7" y="280.116">
      <tspan x="467.7" y="280.116"></tspan>
    </text>
  </g>
  <g>
    <line style="fill: none; fill-opacity:0; stroke-width: 3; stroke: #000000" x1="461.838" y1="293.802" x2="456.994" y2="308.334"/>
    <polygon style="fill: #000000" points="454.622,315.449 453.041,304.381 456.994,308.334 462.528,307.543 "/>
    <polygon style="fill: none; fill-opacity:0; stroke-width: 3; stroke: #000000" points="454.622,315.449 453.041,304.381 456.994,308.334 462.528,307.543 "/>
  </g>
  <g>
    <line style="fill: none; fill-opacity:0; stroke-width: 3; stroke: #000000" x1="467.7" y1="294.534" x2="467.7" y2="307.044"/>
    <polygon style="fill: #000000" points="467.7,314.544 462.7,304.544 467.7,307.044 472.7,304.544 "/>
    <polygon style="fill: none; fill-opacity:0; stroke-width: 3; stroke: #000000" points="467.7,314.544 462.7,304.544 467.7,307.044 472.7,304.544 "/>
  </g>
  <g>
    <line style="fill: none; fill-opacity:0; stroke-width: 3; stroke: #000000" x1="473.562" y1="293.802" x2="478.406" y2="308.334"/>
    <polygon style="fill: #000000" points="480.778,315.449 472.872,307.543 478.406,308.334 482.359,304.381 "/>
    <polygon style="fill: none; fill-opacity:0; stroke-width: 3; stroke: #000000" points="480.778,315.449 472.872,307.543 478.406,308.334 482.359,304.381 "/>
  </g>
  <g>
    <ellipse style="fill: #bfbfbf" cx="447.7" cy="336.216" rx="20" ry="17.3162"/>
    <ellipse style="fill: none; fill-opacity:0; stroke-width: 2; stroke: #000000" cx="447.7" cy="336.216" rx="20" ry="17.3162"/>
    <text font-size="12.8" style="fill: #000000;text-anchor:middle;font-family:sans-serif;font-style:normal;font-weight:normal" x="447.7" y="340.116">
      <tspan x="447.7" y="340.116"></tspan>
    </text>
  </g>
  <g>
    <ellipse style="fill: #bfbfbf" cx="467.7" cy="336.216" rx="20" ry="17.3162"/>
    <ellipse style="fill: none; fill-opacity:0; stroke-width: 2; stroke: #000000" cx="467.7" cy="336.216" rx="20" ry="17.3162"/>
    <text font-size="12.8" style="fill: #000000;text-anchor:middle;font-family:sans-serif;font-style:normal;font-weight:normal" x="467.7" y="340.116">
      <tspan x="467.7" y="340.116"></tspan>
    </text>
  </g>
  <g>
    <ellipse style="fill: #bfbfbf" cx="487.7" cy="336.216" rx="20" ry="17.3162"/>
    <ellipse style="fill: none; fill-opacity:0; stroke-width: 2; stroke: #000000" cx="487.7" cy="336.216" rx="20" ry="17.3162"/>
    <text font-size="12.8" style="fill: #000000;text-anchor:middle;font-family:sans-serif;font-style:normal;font-weight:normal" x="487.7" y="340.116">
      <tspan x="487.7" y="340.116"></tspan>
    </text>
  </g>
  <g>
    <line style="fill: none; fill-opacity:0; stroke-width: 3; stroke: #000000" x1="363.608" y1="168.147" x2="403.109" y2="197.773"/>
    <polygon style="fill: #000000" points="409.109,202.273 398.109,200.273 403.109,197.773 404.109,192.273 "/>
    <polygon style="fill: none; fill-opacity:0; stroke-width: 3; stroke: #000000" points="409.109,202.273 398.109,200.273 403.109,197.773 404.109,192.273 "/>
  </g>
</svg>
