<?xml version="1.0" encoding="UTF-8" standalone="no"?>
<!DOCTYPE svg PUBLIC "-//W3C//DTD SVG 1.0//EN" "http://www.w3.org/TR/2001/PR-SVG-20010719/DTD/svg10.dtd">
<svg width="17cm" height="11cm" viewBox="162 140 323 217" xmlns="http://www.w3.org/2000/svg" xmlns:xlink="http://www.w3.org/1999/xlink">
  <g>
    <ellipse style="fill: #90ee90" cx="323.7" cy="159.216" rx="20" ry="17.3162"/>
    <ellipse style="fill: none; fill-opacity:0; stroke-width: 2; stroke: #000000" cx="323.7" cy="159.216" rx="20" ry="17.3162"/>
    <text font-size="12.8" style="fill: #000000;text-anchor:middle;font-family:sans-serif;font-style:normal;font-weight:normal" x="323.7" y="163.116">
      <tspan x="323.7" y="163.116"></tspan>
    </text>
  </g>
  <g>
    <ellipse style="fill: #90ee90" cx="283.7" cy="279.216" rx="20" ry="17.3162"/>
    <ellipse style="fill: none; fill-opacity:0; stroke-width: 2; stroke: #000000" cx="283.7" cy="279.216" rx="20" ry="17.3162"/>
    <text font-size="12.8" style="fill: #000000;text-anchor:middle;font-family:sans-serif;font-style:normal;font-weight:normal" x="283.7" y="283.116">
      <tspan x="283.7" y="283.116"></tspan>
    </text>
  </g>
  <g>
    <ellipse style="fill: #bfbfbf" cx="303.7" cy="339.216" rx="20" ry="17.3162"/>
    <ellipse style="fill: none; fill-opacity:0; stroke-width: 2; stroke: #000000" cx="303.7" cy="339.216" rx="20" ry="17.3162"/>
    <text font-size="12.8" style="fill: #000000;text-anchor:middle;font-family:sans-serif;font-style:normal;font-weight:normal" x="303.7" y="343.116">
      <tspan x="303.7" y="343.116"></tspan>
    </text>
  </g>
  <g>
    <ellipse style="fill: #bfbfbf" cx="263.7" cy="339.216" rx="20" ry="17.3162"/>
    <ellipse style="fill: none; fill-opacity:0; stroke-width: 2; stroke: #000000" cx="263.7" cy="339.216" rx="20" ry="17.3162"/>
    <text font-size="12.8" style="fill: #000000;text-anchor:middle;font-family:sans-serif;font-style:normal;font-weight:normal" x="263.7" y="343.116">
      <tspan x="263.7" y="343.116"></tspan>
    </text>
  </g>
  <g>
    <line style="fill: none; fill-opacity:0; stroke-width: 3; stroke: #000000" x1="254.252" y1="235.044" x2="267.127" y2="254.357"/>
    <polygon style="fill: #000000" points="271.288,260.598 261.58,255.051 267.127,254.357 269.901,249.504 "/>
    <polygon style="fill: none; fill-opacity:0; stroke-width: 3; stroke: #000000" points="271.288,260.598 261.58,255.051 267.127,254.357 269.901,249.504 "/>
  </g>
  <g>
    <line style="fill: none; fill-opacity:0; stroke-width: 3; stroke: #000000" x1="277.838" y1="296.802" x2="272.994" y2="311.334"/>
    <polygon style="fill: #000000" points="270.622,318.449 269.041,307.381 272.994,311.334 278.528,310.543 "/>
    <polygon style="fill: none; fill-opacity:0; stroke-width: 3; stroke: #000000" points="270.622,318.449 269.041,307.381 272.994,311.334 278.528,310.543 "/>
  </g>
  <g>
    <line style="fill: none; fill-opacity:0; stroke-width: 3; stroke: #000000" x1="289.562" y1="296.802" x2="294.406" y2="311.334"/>
    <polygon style="fill: #000000" points="296.778,318.449 288.872,310.543 294.406,311.334 298.359,307.381 "/>
    <polygon style="fill: none; fill-opacity:0; stroke-width: 3; stroke: #000000" points="296.778,318.449 288.872,310.543 294.406,311.334 298.359,307.381 "/>
  </g>
  <g>
    <ellipse style="fill: #ffa500" cx="243.7" cy="219.216" rx="20" ry="17.3162"/>
    <ellipse style="fill: none; fill-opacity:0; stroke-width: 2; stroke: #000000" cx="243.7" cy="219.216" rx="20" ry="17.3162"/>
    <text font-size="12.8" style="fill: #000000;text-anchor:middle;font-family:sans-serif;font-style:normal;font-weight:normal" x="243.7" y="223.116">
      <tspan x="243.7" y="223.116"></tspan>
    </text>
  </g>
  <g>
    <line style="fill: none; fill-opacity:0; stroke-width: 3; stroke: #000000" x1="307.792" y1="171.147" x2="268.291" y2="200.773"/>
    <polygon style="fill: #000000" points="262.291,205.273 267.291,195.273 268.291,200.773 273.291,203.273 "/>
    <polygon style="fill: none; fill-opacity:0; stroke-width: 3; stroke: #000000" points="262.291,205.273 267.291,195.273 268.291,200.773 273.291,203.273 "/>
  </g>
  <g>
    <ellipse style="fill: #90ee90" cx="203.7" cy="279.216" rx="20" ry="17.3162"/>
    <ellipse style="fill: none; fill-opacity:0; stroke-width: 2; stroke: #000000" cx="203.7" cy="279.216" rx="20" ry="17.3162"/>
    <text font-size="12.8" style="fill: #000000;text-anchor:middle;font-family:sans-serif;font-style:normal;font-weight:normal" x="203.7" y="283.116">
      <tspan x="203.7" y="283.116"></tspan>
    </text>
  </g>
  <g>
    <ellipse style="fill: #bfbfbf" cx="223.7" cy="339.216" rx="20" ry="17.3162"/>
    <ellipse style="fill: none; fill-opacity:0; stroke-width: 2; stroke: #000000" cx="223.7" cy="339.216" rx="20" ry="17.3162"/>
    <text font-size="12.8" style="fill: #000000;text-anchor:middle;font-family:sans-serif;font-style:normal;font-weight:normal" x="223.7" y="343.116">
      <tspan x="223.7" y="343.116"></tspan>
    </text>
  </g>
  <g>
    <ellipse style="fill: #bfbfbf" cx="183.7" cy="339.216" rx="20" ry="17.3162"/>
    <ellipse style="fill: none; fill-opacity:0; stroke-width: 2; stroke: #000000" cx="183.7" cy="339.216" rx="20" ry="17.3162"/>
    <text font-size="12.8" style="fill: #000000;text-anchor:middle;font-family:sans-serif;font-style:normal;font-weight:normal" x="183.7" y="343.116">
      <tspan x="183.7" y="343.116"></tspan>
    </text>
  </g>
  <g>
    <line style="fill: none; fill-opacity:0; stroke-width: 3; stroke: #000000" x1="233.148" y1="235.044" x2="220.273" y2="254.357"/>
    <polygon style="fill: #000000" points="216.112,260.598 217.499,249.504 220.273,254.357 225.82,255.051 "/>
    <polygon style="fill: none; fill-opacity:0; stroke-width: 3; stroke: #000000" points="216.112,260.598 217.499,249.504 220.273,254.357 225.82,255.051 "/>
  </g>
  <g>
    <line style="fill: none; fill-opacity:0; stroke-width: 3; stroke: #000000" x1="197.838" y1="296.802" x2="192.994" y2="311.334"/>
    <polygon style="fill: #000000" points="190.622,318.449 189.041,307.381 192.994,311.334 198.528,310.543 "/>
    <polygon style="fill: none; fill-opacity:0; stroke-width: 3; stroke: #000000" points="190.622,318.449 189.041,307.381 192.994,311.334 198.528,310.543 "/>
  </g>
  <g>
    <line style="fill: none; fill-opacity:0; stroke-width: 3; stroke: #000000" x1="209.562" y1="296.802" x2="214.406" y2="311.334"/>
    <polygon style="fill: #000000" points="216.778,318.449 208.872,310.543 214.406,311.334 218.359,307.381 "/>
    <polygon style="fill: none; fill-opacity:0; stroke-width: 3; stroke: #000000" points="216.778,318.449 208.872,310.543 214.406,311.334 218.359,307.381 "/>
  </g>
  <g>
    <ellipse style="fill: #90ee90" cx="443.7" cy="279.216" rx="20" ry="17.3162"/>
    <ellipse style="fill: none; fill-opacity:0; stroke-width: 2; stroke: #000000" cx="443.7" cy="279.216" rx="20" ry="17.3162"/>
    <text font-size="12.8" style="fill: #000000;text-anchor:middle;font-family:sans-serif;font-style:normal;font-weight:normal" x="443.7" y="283.116">
      <tspan x="443.7" y="283.116"></tspan>
    </text>
  </g>
  <g>
    <ellipse style="fill: #bfbfbf" cx="463.7" cy="339.216" rx="20" ry="17.3162"/>
    <ellipse style="fill: none; fill-opacity:0; stroke-width: 2; stroke: #000000" cx="463.7" cy="339.216" rx="20" ry="17.3162"/>
    <text font-size="12.8" style="fill: #000000;text-anchor:middle;font-family:sans-serif;font-style:normal;font-weight:normal" x="463.7" y="343.116">
      <tspan x="463.7" y="343.116"></tspan>
    </text>
  </g>
  <g>
    <ellipse style="fill: #bfbfbf" cx="423.7" cy="339.216" rx="20" ry="17.3162"/>
    <ellipse style="fill: none; fill-opacity:0; stroke-width: 2; stroke: #000000" cx="423.7" cy="339.216" rx="20" ry="17.3162"/>
    <text font-size="12.8" style="fill: #000000;text-anchor:middle;font-family:sans-serif;font-style:normal;font-weight:normal" x="423.7" y="343.116">
      <tspan x="423.7" y="343.116"></tspan>
    </text>
  </g>
  <g>
    <line style="fill: none; fill-opacity:0; stroke-width: 3; stroke: #000000" x1="414.252" y1="235.044" x2="427.127" y2="254.357"/>
    <polygon style="fill: #000000" points="431.288,260.598 421.58,255.051 427.127,254.357 429.901,249.504 "/>
    <polygon style="fill: none; fill-opacity:0; stroke-width: 3; stroke: #000000" points="431.288,260.598 421.58,255.051 427.127,254.357 429.901,249.504 "/>
  </g>
  <g>
    <line style="fill: none; fill-opacity:0; stroke-width: 3; stroke: #000000" x1="437.838" y1="296.802" x2="432.994" y2="311.334"/>
    <polygon style="fill: #000000" points="430.622,318.449 429.041,307.381 432.994,311.334 438.528,310.543 "/>
    <polygon style="fill: none; fill-opacity:0; stroke-width: 3; stroke: #000000" points="430.622,318.449 429.041,307.381 432.994,311.334 438.528,310.543 "/>
  </g>
  <g>
    <line style="fill: none; fill-opacity:0; stroke-width: 3; stroke: #000000" x1="449.562" y1="296.802" x2="454.406" y2="311.334"/>
    <polygon style="fill: #000000" points="456.778,318.449 448.872,310.543 454.406,311.334 458.359,307.381 "/>
    <polygon style="fill: none; fill-opacity:0; stroke-width: 3; stroke: #000000" points="456.778,318.449 448.872,310.543 454.406,311.334 458.359,307.381 "/>
  </g>
  <g>
    <ellipse style="fill: #ffa500" cx="403.7" cy="219.216" rx="20" ry="17.3162"/>
    <ellipse style="fill: none; fill-opacity:0; stroke-width: 2; stroke: #000000" cx="403.7" cy="219.216" rx="20" ry="17.3162"/>
    <text font-size="12.8" style="fill: #000000;text-anchor:middle;font-family:sans-serif;font-style:normal;font-weight:normal" x="403.7" y="223.116">
      <tspan x="403.7" y="223.116"></tspan>
    </text>
  </g>
  <g>
    <line style="fill: none; fill-opacity:0; stroke-width: 3; stroke: #000000" x1="337.842" y1="171.461" x2="378.802" y2="201.162"/>
    <polygon style="fill: #000000" points="384.874,205.565 373.843,203.742 378.802,201.162 379.714,195.647 "/>
    <polygon style="fill: none; fill-opacity:0; stroke-width: 3; stroke: #000000" points="384.874,205.565 373.843,203.742 378.802,201.162 379.714,195.647 "/>
  </g>
  <g>
    <ellipse style="fill: #90ee90" cx="363.7" cy="279.216" rx="20" ry="17.3162"/>
    <ellipse style="fill: none; fill-opacity:0; stroke-width: 2; stroke: #000000" cx="363.7" cy="279.216" rx="20" ry="17.3162"/>
    <text font-size="12.8" style="fill: #000000;text-anchor:middle;font-family:sans-serif;font-style:normal;font-weight:normal" x="363.7" y="283.116">
      <tspan x="363.7" y="283.116"></tspan>
    </text>
  </g>
  <g>
    <ellipse style="fill: #bfbfbf" cx="383.7" cy="339.216" rx="20" ry="17.3162"/>
    <ellipse style="fill: none; fill-opacity:0; stroke-width: 2; stroke: #000000" cx="383.7" cy="339.216" rx="20" ry="17.3162"/>
    <text font-size="12.8" style="fill: #000000;text-anchor:middle;font-family:sans-serif;font-style:normal;font-weight:normal" x="383.7" y="343.116">
      <tspan x="383.7" y="343.116"></tspan>
    </text>
  </g>
  <g>
    <ellipse style="fill: #bfbfbf" cx="343.7" cy="339.216" rx="20" ry="17.3162"/>
    <ellipse style="fill: none; fill-opacity:0; stroke-width: 2; stroke: #000000" cx="343.7" cy="339.216" rx="20" ry="17.3162"/>
    <text font-size="12.8" style="fill: #000000;text-anchor:middle;font-family:sans-serif;font-style:normal;font-weight:normal" x="343.7" y="343.116">
      <tspan x="343.7" y="343.116"></tspan>
    </text>
  </g>
  <g>
    <line style="fill: none; fill-opacity:0; stroke-width: 3; stroke: #000000" x1="393.148" y1="235.044" x2="380.273" y2="254.357"/>
    <polygon style="fill: #000000" points="376.112,260.598 377.499,249.504 380.273,254.357 385.82,255.051 "/>
    <polygon style="fill: none; fill-opacity:0; stroke-width: 3; stroke: #000000" points="376.112,260.598 377.499,249.504 380.273,254.357 385.82,255.051 "/>
  </g>
  <g>
    <line style="fill: none; fill-opacity:0; stroke-width: 3; stroke: #000000" x1="357.838" y1="296.802" x2="352.994" y2="311.334"/>
    <polygon style="fill: #000000" points="350.622,318.449 349.041,307.381 352.994,311.334 358.528,310.543 "/>
    <polygon style="fill: none; fill-opacity:0; stroke-width: 3; stroke: #000000" points="350.622,318.449 349.041,307.381 352.994,311.334 358.528,310.543 "/>
  </g>
  <g>
    <line style="fill: none; fill-opacity:0; stroke-width: 3; stroke: #000000" x1="369.562" y1="296.802" x2="374.406" y2="311.334"/>
    <polygon style="fill: #000000" points="376.778,318.449 368.872,310.543 374.406,311.334 378.359,307.381 "/>
    <polygon style="fill: none; fill-opacity:0; stroke-width: 3; stroke: #000000" points="376.778,318.449 368.872,310.543 374.406,311.334 378.359,307.381 "/>
  </g>
</svg>
