<?xml version="1.0" encoding="UTF-8" standalone="no"?>
<!DOCTYPE svg PUBLIC "-//W3C//DTD SVG 1.1//EN"
 "http://www.w3.org/Graphics/SVG/1.1/DTD/svg11.dtd">
<!-- Generated by graphviz version 2.38.0 (20140413.2041)
 -->
<!-- Title: htmdpor Pages: 1 -->
<svg width="566pt" height="218pt"
 viewBox="0.00 0.00 566.00 218.00" xmlns="http://www.w3.org/2000/svg" xmlns:xlink="http://www.w3.org/1999/xlink">
<g id="graph0" class="graph" transform="scale(1 1) rotate(0) translate(4 214)">
<title>htmdpor</title>
<polygon fill="white" stroke="none" points="-4,4 -4,-214 562,-214 562,4 -4,4"/>
<!-- root -->
<g id="node1" class="node"><title>root</title>
<ellipse fill="#cccccc" stroke="black" cx="278" cy="-192" rx="27" ry="18"/>
</g>
<!-- first1txn -->
<g id="node2" class="node"><title>first1txn</title>
<ellipse fill="#cccccc" stroke="black" cx="99" cy="-105" rx="27" ry="18"/>
</g>
<!-- root&#45;&#45;first1txn -->
<g id="edge1" class="edge"><title>root&#45;&#45;first1txn</title>
<path fill="none" stroke="black" d="M256.408,-180.747C221.911,-164.365 154.759,-132.478 120.39,-116.157"/>
<text text-anchor="start" x="200" y="-145.8" font-family="Times,serif" font-weight="bold" font-size="14.00" fill="#cc0000">1A</text>
</g>
<!-- first1abort -->
<g id="node5" class="node"><title>first1abort</title>
<ellipse fill="#cccccc" stroke="black" cx="243" cy="-105" rx="27" ry="18"/>
</g>
<!-- root&#45;&#45;first1abort -->
<g id="edge4" class="edge"><title>root&#45;&#45;first1abort</title>
<path fill="none" stroke="black" d="M271.085,-174.207C264.909,-159.208 255.916,-137.368 249.781,-122.469"/>
<text text-anchor="start" x="262" y="-145.8" font-family="Times,serif" font-weight="bold" font-size="14.00" fill="#884400">1B</text>
</g>
<!-- first2txn -->
<g id="node10" class="node"><title>first2txn</title>
<ellipse fill="#cccccc" stroke="black" cx="315" cy="-105" rx="27" ry="18"/>
</g>
<!-- root&#45;&#45;first2txn -->
<g id="edge7" class="edge"><title>root&#45;&#45;first2txn</title>
<path fill="none" stroke="black" d="M285.134,-174.611C291.644,-159.656 301.219,-137.658 307.762,-122.629"/>
<text text-anchor="start" x="298" y="-145.8" font-family="Times,serif" font-weight="bold" font-size="14.00" fill="#0000ff">2A</text>
</g>
<!-- first2abort -->
<g id="node13" class="node"><title>first2abort</title>
<ellipse fill="#cccccc" stroke="black" cx="459" cy="-105" rx="27" ry="18"/>
</g>
<!-- root&#45;&#45;first2abort -->
<g id="edge10" class="edge"><title>root&#45;&#45;first2abort</title>
<path fill="none" stroke="black" d="M299.474,-180.916C334.309,-164.557 402.737,-132.422 437.554,-116.071"/>
<text text-anchor="start" x="379" y="-145.8" font-family="Times,serif" font-weight="bold" font-size="14.00" fill="#0088ff">2B</text>
</g>
<!-- second2txna -->
<g id="node8" class="node"><title>second2txna</title>
<ellipse fill="#ffff88" stroke="black" cx="27" cy="-18" rx="27" ry="18"/>
<text text-anchor="middle" x="27" y="-14.3" font-family="Times,serif" font-size="14.00">1</text>
</g>
<!-- first1txn&#45;&#45;second2txna -->
<g id="edge2" class="edge"><title>first1txn&#45;&#45;second2txna</title>
<path fill="none" stroke="black" d="M86.1278,-88.8037C73.0225,-73.3321 52.8257,-49.4887 39.7607,-34.0647"/>
<text text-anchor="start" x="68" y="-58.8" font-family="Times,serif" font-style="italic" font-size="14.00" fill="#0000ff">2A</text>
</g>
<!-- second2aborta -->
<g id="node11" class="node"><title>second2aborta</title>
<ellipse fill="#004488" stroke="black" cx="99" cy="-18" rx="27" ry="18"/>
<text text-anchor="middle" x="99" y="-14.3" font-family="Times,serif" font-size="14.00">2</text>
</g>
<!-- first1txn&#45;&#45;second2aborta -->
<g id="edge3" class="edge"><title>first1txn&#45;&#45;second2aborta</title>
<path fill="none" stroke="black" d="M99,-86.799C99,-72.0519 99,-50.9152 99,-36.1754"/>
<text text-anchor="start" x="99" y="-58.8" font-family="Times,serif" font-weight="bold" font-size="14.00" fill="#0088ff">2B</text>
</g>
<!-- second1txna -->
<g id="node3" class="node"><title>second1txna</title>
<ellipse fill="#ffff88" stroke="black" cx="315" cy="-18" rx="27" ry="18"/>
<text text-anchor="middle" x="315" y="-14.3" font-family="Times,serif" font-size="14.00">5</text>
</g>
<!-- second1txnb -->
<g id="node4" class="node"><title>second1txnb</title>
<ellipse fill="#884400" stroke="black" cx="459" cy="-18" rx="27" ry="18"/>
<text text-anchor="middle" x="459" y="-14.3" font-family="Times,serif" font-size="14.00">7</text>
</g>
<!-- second2txnb -->
<g id="node9" class="node"><title>second2txnb</title>
<ellipse fill="#880044" stroke="black" cx="171" cy="-18" rx="27" ry="18"/>
<text text-anchor="middle" x="171" y="-14.3" font-family="Times,serif" font-size="14.00">3</text>
</g>
<!-- first1abort&#45;&#45;second2txnb -->
<g id="edge5" class="edge"><title>first1abort&#45;&#45;second2txnb</title>
<path fill="none" stroke="black" d="M230.128,-88.8037C217.022,-73.3321 196.826,-49.4887 183.761,-34.0647"/>
<text text-anchor="start" x="212" y="-58.8" font-family="Times,serif" font-weight="bold" font-size="14.00" fill="#0000ff">2A</text>
</g>
<!-- second2abortb -->
<g id="node12" class="node"><title>second2abortb</title>
<ellipse fill="#88ffff" stroke="black" cx="243" cy="-18" rx="27" ry="18"/>
<text text-anchor="middle" x="243" y="-14.3" font-family="Times,serif" font-size="14.00">4</text>
</g>
<!-- first1abort&#45;&#45;second2abortb -->
<g id="edge6" class="edge"><title>first1abort&#45;&#45;second2abortb</title>
<path fill="none" stroke="black" d="M243,-86.799C243,-72.0519 243,-50.9152 243,-36.1754"/>
<text text-anchor="start" x="243" y="-58.8" font-family="Times,serif" font-style="italic" font-size="14.00" fill="#0088ff">2B</text>
</g>
<!-- second1aborta -->
<g id="node6" class="node"><title>second1aborta</title>
<ellipse fill="#440088" stroke="black" cx="387" cy="-18" rx="27" ry="18"/>
<text text-anchor="middle" x="387" y="-14.3" font-family="Times,serif" font-size="14.00">6</text>
</g>
<!-- second1abortb -->
<g id="node7" class="node"><title>second1abortb</title>
<ellipse fill="#88ffff" stroke="black" cx="531" cy="-18" rx="27" ry="18"/>
<text text-anchor="middle" x="531" y="-14.3" font-family="Times,serif" font-size="14.00">8</text>
</g>
<!-- first2txn&#45;&#45;second1txna -->
<g id="edge8" class="edge"><title>first2txn&#45;&#45;second1txna</title>
<path fill="none" stroke="black" d="M315,-86.799C315,-72.0519 315,-50.9152 315,-36.1754"/>
<text text-anchor="start" x="315" y="-58.8" font-family="Times,serif" font-style="italic" font-size="14.00" fill="#cc0000">1A</text>
</g>
<!-- first2txn&#45;&#45;second1aborta -->
<g id="edge9" class="edge"><title>first2txn&#45;&#45;second1aborta</title>
<path fill="none" stroke="black" d="M327.872,-88.8037C340.978,-73.3321 361.174,-49.4887 374.239,-34.0647"/>
<text text-anchor="start" x="355" y="-58.8" font-family="Times,serif" font-weight="bold" font-size="14.00" fill="#884400">1B</text>
</g>
<!-- first2abort&#45;&#45;second1txnb -->
<g id="edge11" class="edge"><title>first2abort&#45;&#45;second1txnb</title>
<path fill="none" stroke="black" d="M459,-86.799C459,-72.0519 459,-50.9152 459,-36.1754"/>
<text text-anchor="start" x="459" y="-58.8" font-family="Times,serif" font-weight="bold" font-size="14.00" fill="#cc0000">1A</text>
</g>
<!-- first2abort&#45;&#45;second1abortb -->
<g id="edge12" class="edge"><title>first2abort&#45;&#45;second1abortb</title>
<path fill="none" stroke="black" d="M471.872,-88.8037C484.978,-73.3321 505.174,-49.4887 518.239,-34.0647"/>
<text text-anchor="start" x="499" y="-58.8" font-family="Times,serif" font-style="italic" font-size="14.00" fill="#884400">1B</text>
</g>
</g>
</svg>
