<?xml version="1.0" encoding="UTF-8" standalone="no"?>
<svg width="640" xmlns="http://www.w3.org/2000/svg" height="480">
 <switch>
  <g id="svg_1">
   <g id="Layer_1">
    <g id="svg_2" stroke-width="0">
     <path id="svg_3" d="m371.69 328.2s-1.958 7.58-3.656 9.8c-1.699 2.219-1.699 4.702-1.699 4.702l-0.653-1.306s-1.436 3.004-1.306 4.703c0.26199 1.699 0.26199 5.093-0.65298 6.27-1.046 1.177-1.698 4.18-1.959 6.532-0.26102 2.482-1.699 16.329-1.176 18.942 0.39099 2.743 0.39099 12.019 1.698 13.716 1.175 1.7 2.09 5.096 3.657 6.011 1.437 1.046 3.137 3.655 2.612 5.356-0.521 1.697-0.65298 2.219-0.65298 2.219s-8.621 5.88-11.757 3.66c-3.136-2.223-3.397-5.879-3.397-7.58 0-1.697-0.26099-4.311-0.26099-4.311l-0.654 1.177s0-2.743-0.52002-3.919c-0.52399-1.177-1.438-5.356-1.438-6.531v-9.014l-0.782 2.482s0.26102-6.793 1.306-9.276c0.91498-2.481 0.91498-15.285 0.91498-16.591 0-1.177 0.25903-5.093 0.25903-5.093l-1.045 1.306s1.306-6.141 1.568-8.754c0.13104-2.7429 16.984-17.375 19.594-14.501z" fill-rule="evenodd" stroke-miterlimit="2.414"/>
     <path id="svg_4" fill-rule="evenodd" d="m363.85 349.5s-0.65298 1.568-1.958 2.482c-1.306 1.046-3.003 2.743-3.003 2.743l0.913-2.22s-1.566 1.437-2.091 2.482c-0.52203 1.175-0.52203 1.828-0.65201 2.743-0.26199 0.91501-0.65201 2.091-0.65201 2.091l1.435-2.091s-0.26099 0.784-0.26099 1.961c-0.26199 1.173-0.521 2.873-0.521 2.873l0.782-1.045s0.26102 0.91501 0.133 1.959c-0.133 0.91501 0 2.352 0 2.352l1.306-2.352s-0.13101 3.529-0.13101 4.049c0 0.655 0.13101 2.745 0.13101 2.745s0.39197-5.357 0.91498-6.793c0.392-1.568 1.044-4.833 1.044-4.833s0.263-3.397 1.046-4.704c0.65198-1.309 2.088-3.006 1.564-4.442z"/>
     <path id="svg_5" fill-rule="evenodd" d="m368.04 403.71s-2.353-3.396-3.134-2.874c-0.65399 0.52399 1.695 2.743 0.52002 3.919-1.174 1.175-4.441 2.743-5.877 2.352-1.439-0.52399-4.05-1.961-3.659-3.658 0.52399-1.699 0.52399-2.483 0-4.704-0.39099-2.09-3.136-7.186-3.136-7.186s-1.176-1.044-0.65201 0.26099c0.392 1.175 0.13199 4.573 0.13199 4.573l0.521-0.653s0.65402 1.83 0.65402 2.612c0 0.655 0.13101 5.097 0.522 6.012 0.263 1.045 1.177 4.31 4.179 4.57 3.006 0.13202 10.19-2.481 9.93-5.224z"/>
     <path id="svg_6" d="m340.6 339.44s-1.437 10.973-2.482 12.149c-0.91501 1.306 0 3.003-0.13 5.224-0.263 2.09-1.569 5.749-1.7 7.708-0.26099 1.96-1.828 12.41-1.828 14.893 0 2.352-1.959 21.555-0.522 25.734 1.306 4.18 3.527 8.492 3.527 10.451 0 1.961-0.13 3.005-0.78503 3.789-1.305 1.567-11.494 3.266-12.932 2.091-1.438-1.306-3.136-3.006-3.005-4.703 0.263-1.698 0.263-4.311-0.13098-6.009-0.522-1.699-1.96-3.657-1.045-8.752 1.045-5.097 2.743-18.943 2.743-20.902 0-1.961 0.392-3.658 0.392-3.658l-1.176 1.959s0-3.265 0.784-5.619c0.65302-2.481 1.175-6.531 1.175-6.531l-1.175 1.83s2.612-16.723 1.698-21.293c-1.045-4.706 14.11-12.019 16.592-8.361z" fill-rule="evenodd" stroke-miterlimit="2.414"/>
     <path id="svg_7" d="m177.7 177.58s-10.06 6.403-10.712 9.146c-0.523 2.743-5.749 11.627-5.749 11.627l1.437 0.782s-2.22 5.094-1.958 9.405c0.261 4.314-0.392 10.19-0.392 10.19l1.045-1.566s1.305 3.918 0.65201 6.268c-0.522 2.354-0.261 8.232-0.261 8.232s1.045 8.1 2.352 11.626l0.522-1.437s3.004 9.798 5.356 11.759c2.352 2.089 13.195-69.891 7.708-76.032z" fill-rule="evenodd" stroke-miterlimit="2.414"/>
     <path id="svg_8" d="m451.86 214.12c0.52399 0.784 1.567 3.265 1.567 4.835 0 1.696 1.438 2.611 1.438 2.611-1.438-0.653-3.657-3.397-3.657-3.397s0.26199 3.005 0.78299 4.181c0.521 1.175 1.437 3.658 1.437 3.658l-2.22-1.046s0.521 1.961 0.78299 3.005c0.26099 0.91499 0.91501 4.313 0.91501 4.313l-2.873-2.875s0.26001 2.875 0.26001 4.049c0 1.176 2.874 3.79 2.874 3.79s-0.91501-0.653-2.35-1.176c-1.439-0.522-3.66-3.005-3.66-3.005s0.65302 3.266 0.91501 4.441c0.26199 1.176 0.784 4.18 0.784 4.18l-2.22-3.003s0.78299 4.18 0.26001 5.226c-0.521 0.91499 0.52301 4.311 0.52301 4.311l-2.222-3.136s-0.26199 1.177-0.521 2.614c-0.263 1.437 3.005 3.134 3.005 3.134s-1.045-0.129-2.745-0.651c-1.697-0.523-2.611-2.222-2.611-2.222s-0.52399 0.523-0.52399 2.744c0 2.09 2.354 4.311 2.354 4.311l-3.397-2.352c0.52301 1.7-0.129 5.748-0.129 5.748l-1.569-3.657s0 1.437-0.914 2.482c-1.047 0.91498-1.177 4.834-1.177 4.834l-0.784-3.66s-0.78299 1.177-1.437 3.396c-0.78299 2.223 1.178 4.444 1.178 4.444l-3.136-2.221 1.436 3.92-3.918-2.483c1.958 1.697 1.958 5.356 1.958 5.356-0.26099-2.482-4.05-3.66-4.05-3.66 0.13199 1.961-0.26099 5.62-0.26099 5.62 0-1.7-2.481-4.183-2.481-4.183 0 1.96-1.96 6.662-1.96 6.662 1.045-1.959-0.26001-6.398-0.65302-4.702-0.521 1.699-3.396 5.096-3.396 5.096l1.436-4.574s-0.78201 0.91498-1.307 1.96c-0.39099 0.91296-3.136 2.352-3.397 3.396-0.129 0.91498-1.436 4.573-1.436 4.573v-4.573s-0.914 1.96-1.698 3.398c-0.65302 1.437-2.613 3.919-2.613 3.919s1.177-2.482 1.177-3.138c0-0.78201-0.91501-2.743-0.91501-2.743s-1.045 1.437-1.697 2.743c-0.784 1.177-3.006 5.487-3.006 5.487 1.048-1.959 0.26102-6.793 0.26102-6.793s-1.695 3.006-2.873 4.181c-1.306 1.175-4.441 3.918-4.441 3.918l1.438-4.179s-2.091 2.611-3.789 4.179c-1.699 1.437-3.657 3.397-3.657 3.397l3.657-6.793c-1.046 1.828-5.356 5.096-6.14 5.356-2.351 0.78198-1.697 5.748-1.697 5.748l-0.524-3.92s0.26196 1.308-0.39102 1.699c-0.784 0.52402-1.96 3.658-1.96 3.658l0.263-3.396s-2.482 2.743-2.482 4.702c0 1.96 0.521 8.754 0.521 8.754l-1.699-2.092c0 1.045-0.13098 4.441 0 5.228 0.263 1.437-2.744 3.397-2.744 3.397l-0.391-2.483s-0.521 3.92-1.045 6.399c-0.52301 2.352-2.482 6.142-3.135 7.317-0.784 1.176-1.959 4.18-1.959 4.18s0.78101-3.658 0-2.481c-0.78601 1.175-1.701 1.437-2.876 2.611-1.305 1.306-1.698 3.66-1.698 3.66l-0.261-2.745s-1.437 2.745-1.698 3.527c-0.26199 0.655-3.005 3.135-3.005 3.135l0.263-2.48s-1.699 2.48-3.396 2.873c-1.7 0.651-2.876 2.352-2.876 2.352l0.915-2.482s-1.958 1.175-3.657 2.874c-1.697 1.697-2.353 3.919-2.353 3.919s-0.521-1.699 0-3.659c0.52301-1.959 0-4.311 0-4.311l-1.174 1.699s0.12903-3.396-0.263-5.094c-0.521-1.699-3.397-3.397-3.917-2.481-0.52301 0.914-3.66 6.792-3.66 6.792l0.524-3.135s-1.699 3.919-2.482 5.618c-0.78702 1.699-3.397 4.964-3.397 6.531 0 1.438-4.049 6.01-4.049 6.01l1.046-3.789s-4.443 4.05-5.357 4.57c-1.046 0.52399-3.135 2.223-3.657 3.138-0.52301 1.045-2.743 4.441-2.743 4.441s1.306-5.879 1.566-7.58c0.26199-1.697 0-4.311 0-4.311l-1.698 2.354 0.132-2.354-0.394-4.048-2.742 5.225s0.522-1.959 0.78299-2.874c0.26102-1.046 0-3.919 0-3.919l-0.261 1.177-2.613 5.095s1.437-4.18 1.177-5.617c-0.26199-1.438-0.26199-6.533-0.26199-6.533l-2.221 4.572s0.784-2.482 0.52203-3.789c-0.263-1.567 1.176-7.446 1.176-7.446l-2.612 4.441v-3.657l-1.699 4.179s-0.52301-1.437-0.78302-2.612c-0.26199-1.306 0.78302-4.182 0.78302-4.182l-2.482 4.182s-0.914-3.397-0.521-5.355c0.521-2.091 1.567-4.965 1.959-5.88 0.521-0.91501 0.521-4.966 0.521-4.966l-3.657 4.182s0.784-3.397 1.698-5.355c1.046-1.832 1.046-3.137 1.046-3.137l-1.698 0.915s0.914-1.306 0.914-3.397c0-1.958-2.612-0.651-2.612-0.651l0.652 1.437-3.919-2.223 2.221 2.745s-4.18-2.22-5.095-2.745c-0.91498-0.521-2.482-0.26001-2.482-0.26001l3.266 2.221s-1.698-0.784-3.396-0.91501c-1.698-0.26001-3.004-2.219-4.963-3.005-1.96-0.65302-4.049-1.565-4.049-1.565l2.874 3.524s-1.177-0.521-2.482-1.697c-1.177-1.176-5.356-2.874-8.491-3.526-3.135-0.784-3.919-1.046-3.919-1.046l1.959 3.396s-1.959-1.306-3.789-3.005c-1.959-1.697-6.663-1.175-9.537-1.829-2.874-0.784-4.833-1.96-4.833-1.96l3.134 3.66c-2.219-2.223-9.927-5.357-13.193-6.402-3.136-0.91501-6.792-2.612-8.23-3.658-1.437-0.914-2.613-2.614-2.613-1.699 0 1.045 1.438 3.397 1.438 3.397s-6.271-4.834-7.578-5.356c-1.175-0.393-1.437 1.044-2.351 1.568-1.046 0.39099-1.307 4.05-1.307 4.05l-0.653-2.614s-1.045 2.874-1.437 5.095c-0.65302 2.22-2.482 4.833-2.482 4.833l0.784-3.134c-1.828 2.874-5.617 4.704-5.617 4.704l-4.18 4.311 0.784-2.612s-2.22 2.612-3.266 4.311c-0.91501 1.696-4.18 3.789-4.18 3.789l1.829-2.874s-3.528 3.134-4.703 4.702c-1.177 1.437-7.708 6.271-7.708 6.271-5.356 2.482-26.519 15.543-26.519 15.543s-3.397 3.66-3.136 2.223c0.13104-1.437-1.044-7.053-1.044-7.053l-1.438 2.743-0.784-2.092s-0.65298-2.352-1.437-3.789c-0.65402-1.568 1.176-6.662 1.176-6.662l-1.699 2.482s0.785-4.572 1.567-6.27c0.65402-1.7 0.39203-5.225 0.39203-6.271 0-1.306-0.26102-6.141-1.437-7.448-1.175-1.174-0.91498-3.396-0.91498-3.396l-1.306 1.438s0.52301-5.748 1.698-7.185c1.306-1.568 1.567-5.618 1.699-7.315 0.26102-1.699 1.044-5.096 0.52301-7.577-0.52301-2.48 0.521-6.792 0.521-6.792l-1.437 2.874s0.26099-5.749 1.699-9.145c1.437-3.398 1.959-9.276 2.352-12.672 0.52203-3.397-1.176-8.492-1.176-8.492l-0.522 0.653s-0.65298-0.784-0.65298-1.175c-0.26199-2.223-0.26199-7.97-1.045-9.276-0.65298-1.046-0.91498-6.662-0.91498-6.662l-0.782 5.356s-0.39401-7.708-0.39401-13.586c0-2.743 0.13101-4.965 0.39401-6.531h284.52v-0.000961z" fill-rule="evenodd" stroke-miterlimit="2.414"/>
     <path id="svg_9" stroke-miterlimit="2.414" d="m170.77 216.12h279.17"/>
     <path id="svg_10" d="m453.08 216.12c1.176 0.39101 2.482 0.784 2.743 0.653l-0.782-0.653-2.876-2.482s3.658-0.26199 5.095-0.914c0 0-1.828 0-2.874-1.045-0.91501-0.91499 4.834-1.177 4.834-1.177s-3.136-1.044-3.788-1.96c-0.784-1.042-1.961-1.958-1.961-1.958l3.397 0.52-2.745-3.134 2.745 0.915s-1.958-2.22-1.958-3.92c0-1.699-0.263-4.572-0.263-4.572l1.699 3.919s-0.52301-3.396-0.52301-4.964c0-1.437 0.26099-8.754 0.26099-8.754l2.221 3.92s-0.784-4.311-1.045-5.356c-0.13-0.91499-1.176-3.92-0.392-5.617 0.65201-1.699-0.784-6.793-0.784-6.793l2.482 3.396s-0.78299-4.05-1.307-5.356c-0.392-1.175-0.13-5.485-0.13-5.485l0.653-10.32 1.697 4.964s-0.65302-5.619-0.26099-7.055c0.522-1.438 0-11.757 0-11.757l2.222 2.221s-0.52301-2.612-1.176-5.095c-0.785-2.483-4.182-11.235-3.659-14.369 0.52301-3.138-0.522-5.356-0.522-5.356l1.961 2.219s-0.785-4.311-0.785-5.876c0.26099-3.659 3.658-4.834 3.658-4.834s-13.063-42.066-21.163-39.583c-2.482 0.782-6.793 2.614-8.883 3.92-2.222 1.175-7.577 3.396-7.577 3.396l4.05-0.785s-4.05 1.177-5.747 3.658c-1.7 2.483-3.659 3.658-6.404 5.094-1.696 1.046-2.873 6.533-3.526 7.317l3.526-2.743s-1.826 3.396-3.394 5.092c-1.439 1.83-1.439 4.444-2.874 6.663-1.438 2.091-4.834 8.23-6.795 9.929l-1.436 2.745 3.657-3.529s-3.003 5.356-3.657 8.754c-0.78497 3.526-1.961 3.656-2.482 7.837-0.52298 4.181-0.91498 9.538-1.961 11.234-0.91199 1.699-1.437 4.051-1.437 4.051l2.874-3.919s-0.392 6.402-1.828 8.361c-1.569 1.959-3.528 6.531-3.528 6.531l3.007-3.397s-0.52399 4.182-1.961 5.88c-1.437 1.697-3.658 5.748-3.658 5.748l3.137-2.874s-2.352 3.92-2.614 5.356c-0.26099 1.437-0.78302 3.658-1.698 5.095-1.045 1.437-2.219 5.616-2.219 5.616l1.958-1.696s-1.046 3.655-3.134 4.833c-2.222 1.174-7.84 3.135-11.498 1.437-3.656-1.699-2.612-0.522-2.612-0.522l-4.703-1.177 0.523 1.177s-3.919 0.26-5.355-0.39101c-1.438-0.786-9.275-3.919-9.275-3.919l-3.659-1.961 1.307 2.221s-3.396-2.482-8.753-2.221c-5.355 0.261-9.667-1.698-12.279-2.482-2.744-0.653-9.93-2.612-9.93-2.612l1.83 1.437s-6.27-0.26199-7.446-0.653c-1.307-0.521-9.537-3.005-14.108-2.743-4.704 0.26-11.236-2.223-13.194-4.834l1.437 2.875-6.792-2.352 2.221 1.697s-3.396 0.655-4.833 0.13101c-1.437-0.39102-9.016-0.13101-13.195-0.91501-4.05-0.784-11.104-2.874-11.104-2.874l-6.14-1.699 1.437 1.437s-2.612-1.175-7.968-1.175-11.366-0.52101-11.366-0.52101l2.351 0.915s-6.532-0.655-9.274 0.26001c-2.613 1.046-15.546 2.221-15.546 2.221l3.397 0.915s-3.397 1.437-5.878 1.306c-2.352-0.26-8.23 1.177-8.23 1.177l2.874 0.522s-2.874 1.698-5.095 1.437c-2.09-0.26199-5.094 1.437-5.094 1.437h3.396s-3.789 1.699-6.27 1.699c-2.482 0-6.793 3.656-9.538 6.269-2.612 2.743-3.788 4.18-3.788 4.18l3.135-1.437s-3.005 2.352-3.919 4.574c-0.91501 2.219-1.699 5.617-1.699 5.617l2.221-1.959s-2.221 3.136-2.481 5.093c-0.261 1.96-0.261 5.88-0.91501 7.839-0.783 1.96-1.959 7.708-1.959 7.708l1.437-2.352s-0.261 4.57-1.176 6.531c-0.523 1.045-1.044 2.354-1.305 4.181h284.52c0-0.39101-0.13101-0.521-0.13101-0.521-0.13596-0.39697 1.171-0.002975 2.347 0.51802z" fill-rule="evenodd" stroke-miterlimit="2.414"/>
     <path id="svg_11" stroke-miterlimit="2.414" d="m171.3 216.12h278.91"/>
     <path id="svg_12" fill-rule="evenodd" d="m355.23 192.69c-2.089 0.91499-8.752 1.699-11.232 3.397-2.354 1.699-3.922 4.573-5.618 7.056-1.7 2.352-3.527 4.049-3.527 4.049s4.312-2.092 4.961-2.612c0.78702-0.521 6.143-2.874 6.143-2.874s-4.834 4.831-6.143 5.095c-1.173 0.26-5.092 7.053-6.79 8.49-1.829 1.437-9.538 21.948-10.321 23.907-0.65302 1.959 4.181-22.992-3.135-16.591-0.91498 0.784-6.009 11.106-7.054 16.069-0.914 5.226-1.438 8.1-1.438 8.1v-7.315s-1.438 2.611-1.698 4.57c-0.26199 1.961-2.481 6.402-2.481 6.402s0.521-4.18 0.521-5.095v-2.482s-0.914 3.136-1.437 5.356c-0.52298 2.221-1.177 6.531-1.177 6.531s-0.78299-3.134-1.044-4.571c-0.25998-1.437-0.65402-10.712-0.25998-13.586 0.521-2.874 0.78299-4.965 0.78299-4.965s-3.396 8.621-3.396 10.712c0 0 0.25998-11.497 1.437-13.455 1.177-1.959 1.177-3.658 1.177-3.658s-3.397 7.055-4.05 9.929c-0.784 2.874-1.306 4.833-1.306 4.833s-0.13199-3.658 0-4.701c0.25998-0.786 0.521-4.182 0.521-4.182s-1.175 2.874-1.437 3.787c-0.26202 0.91701-2.221 7.708-1.96 9.016 0 0-0.26099-6.402 0.26199-8.621 0.521-1.961 1.175-9.016 1.959-10.06 0 0-3.005 6.14-3.135 7.837-0.26199 1.567-1.046 3.266-1.046 3.266s0.52301-11.104 1.437-13.717c1.045-2.743-7.054 9.929-8.492 18.55 0 0 3.92-21.033 0.26099-16.459 0 0-3.918 3.527-4.833 6.401-1.044 2.874-3.396 6.4-3.396 6.4s1.437-5.748 1.698-7.575c0.26199-1.961-1.306-3.267 0.522-6.663 1.699-3.397 2.091-4.31 2.091-4.31s-5.619 2.611-7.055 5.747c-1.437 3.265-5.356 7.054-5.617 9.536-0.13098 2.352 1.829 8.884 1.829 8.884s-2.481-5.095-2.744-8.493c-0.25998-3.265 0-4.701 0-4.701s-2.873 2.874-3.134 4.701c-0.26199 1.961-1.96 6.793-1.96 6.793s0.52301-4.833 0.784-6.924c0.13101-2.219 0.392-5.094 1.176-6.531 0.65399-1.437 1.437-3.92 1.437-3.92s-3.918 2.614-4.573 4.313c-0.78302 1.699-5.878 11.104-6.139 15.023-0.26102 3.92-0.26102 5.095-0.26102 5.095s-0.91498-3.657-0.91498-6.402c0-2.611-0.26099-9.536 0.65298-12.671 1.046-3.136 1.307-6.531 1.307-6.531s-1.307 1.829-2.483 4.833c-1.175 2.873-1.959 5.748-1.698 6.924 0.261 1.177-0.26199 3.92-0.26199 3.92s-1.175-5.096-0.653-7.708c0.39198-2.611 1.176-5.616 1.176-5.616s-2.481 3.397-2.481 4.704c0 1.175-1.177 4.048-1.177 4.048s0.26199-7.315 1.698-10.188c1.437-2.874 2.222-4.311 2.222-4.311s-2.222 1.175-3.92 3.789c-1.699 2.743-3.919 9.274-3.919 11.624 0 2.354-0.653 7.708-0.653 7.708s0-4.311-0.522-6.27c-0.522-1.83-0.78299-4.963-0.522-6.924 0.26099-1.959 0.522-4.702 0.522-4.702s-1.959 2.743-1.959 4.44c0 1.699-1.176 4.311-1.176 5.487 0 1.177-0.261 3.658-0.261 3.658s-1.177-1.697-1.044-4.963c0.26099-3.396 1.566-6.662 1.566-6.662s-1.96 1.306-2.481 2.743c-0.523 1.437-1.96 6.402-1.698 8.099 0.261 1.699 0.52301 3.397 0.52301 3.397s-1.307-2.614-1.438-6.011c-0.26099-3.265-0.26099-10.842 1.176-13.715 1.437-3.005 0-6.139 0-6.139s-0.78398 4.57-2.221 7.054c-1.437 2.482-2.613 4.834-2.613 5.616 0 0.65401 0.13 3.919 0.13 3.919s-1.698-1.566-0.65302-6.923c0.91501-5.225 0.91501-5.487 0.91501-5.487s-3.135 2.874-3.658 5.747c-0.39098 3.005-1.176 6.141-0.12999 8.491 0.914 2.353 0.914 4.313 0.914 4.313s-2.874-4.704-2.613-7.837c0.13101-3.267 0.91501-6.925 0.91501-6.925s-2.222 3.92-2.482 5.879c-0.261 1.958-3.135 6.924-3.135 9.145 0 2.219-0.522 3.919-0.522 3.919s-0.65399-4.704-0.13199-6.793c0.393-2.091 0.91499-6.011 0.91499-6.011s-2.482 1.177-2.613 2.874c-0.261 1.701-1.567 4.834-1.306 6.533 0 0-1.437-11.364-0.393-14.761 0 0-2.48 2.48-2.48 4.572 0 2.219-2.222 5.617-2.222 5.617l-1.438 2.874s0.784-2.352 0.91499-5.486c0.261-3.135-0.392-9.014 0.522-10.713 0 0-3.658 6.793-3.658 8.752 0 1.96-0.393 5.749-1.176 7.446-0.78398 1.699-0.52199 3.789-0.52199 3.789s-1.176-2.874-1.176-4.311c0-1.438-0.26201-4.963 0.523-7.186 0.65201-2.219 1.697-6.792 1.697-6.792l1.96-5.356-3.527 2.874s1.828-4.833 2.743-5.748c0.914-1.046-9.929 7.708-11.234 12.148-1.176 4.31-2.09 6.011-2.09 6.011s-1.307-5.618 1.176-10.451c2.481-4.834 2.481-5.88 2.481-5.88s-5.878 3.529-7.446 6.141c-1.306 2.613-2.351 6.793-2.351 6.793l0.652-6.532s-3.396 1.697-3.396 4.573c0 3.005-1.96 5.878-1.96 5.878s1.044-4.834 0.392-7.577c-0.78499-2.614-1.568-5.619-1.568-5.619s-0.131-4.833 0.522-7.053c0.65399-2.092-3.136 3.658-3.658 5.878-0.521 2.221-0.521 6.793 0.26199 8.754 0.653 1.957-1.699-2.483-1.699-2.483v-7.184l-1.437 2.088s-1.307-4.311-0.522-5.356c0.65199-0.91499-2.482 3.529-3.005 6.925-0.392 3.397-0.13 7.708-0.13 7.708s-1.568-3.658-1.568-5.617c0-1.961-0.653-3.66-0.131-6.011 0.392-2.481-1.96 0-3.005 3.138-0.91499 3.134-1.437 7.968-1.437 7.968l-1.438-7.446s-1.437 3.788-0.261 6.531c1.176 2.614 1.437 7.053 1.437 7.053l1.045 11.497 0.261 3.135s-3.003-2.223-2.612-4.441c0.13-2.091-0.261-7.839-0.914-9.014-0.784-1.046-0.65399-4.442-0.65399-4.442l-0.782 4.311s-1.046-2.352-0.65401-14.893c0.131-5.748 0.523-9.014 1.437-10.973 1.046-1.961 1.438-5.095 1.438-5.095l-1.176 1.175s1.176-5.748 1.959-7.708c0.65399-1.959 0.65399-5.879 0.91499-7.839 0.261-1.957 2.481-5.093 2.481-5.093l-2.221 1.959s1.176-3.528 2.221-5.617c2.222-4.05 4.05-4.965 4.05-4.965l-3.003 1.306s0.653-0.91499 3.266-3.658c2.743-2.613 7.184-6.269 9.536-6.269 2.614 0 6.401-1.699 6.401-1.699s109.6-13.194 160.94 22.86l1.306 3.655z"/>
     <path id="svg_13" fill-rule="evenodd" d="m176.91 178.23s-3.92 2.352-8.101 7.444c-0.52101 0.524-6.27 12.15-6.27 12.15l3.395-3.658s-1.958 2.745-1.698 4.441c0.131 1.699 0.65399 3.789 0.131 6.271-0.392 2.482-0.392 3.92-0.392 3.92s2.352-6.402 2.09-7.84c-0.131-1.437 0.785-3.135 0.785-3.135s0.782 4.182 0.521 5.619c-0.26199 1.437-1.306 6.793-1.306 6.793s3.658-7.055 3.919-8.754c0.26199-1.696 5.357-21.554 6.926-23.251z"/>
     <path id="svg_14" fill-rule="evenodd" d="m186.45 169.87c2.482 0 6.663-1.83 6.663-1.83h-3.266s2.613-1.437 4.833-1.306c2.09 0.26201 5.355-1.568 5.355-1.568l-2.613-0.391s5.096-1.308 7.578-1.177c2.351 0.39099 6.139-1.306 6.139-1.306l-3.004-0.915s12.149-1.175 14.762-2.09c2.744-0.91499 9.536-0.26 9.536-0.26l-1.697-0.786s4.964 0.39099 10.321 0.39099c5.355 0 8.36 1.308 8.36 1.308l-1.307-1.438 5.487 1.566s7.055 2.223 11.236 3.006c4.049 0.65302 11.888 0.39101 13.325 0.91301 1.437 0.39299 5.094-0.39101 5.094-0.39101l-1.567-1.306 6.141 2.221-1.308-2.352c2.482 2.352 8.1 4.442 12.673 4.18 4.572-0.26001 12.802 2.223 13.978 2.614 1.308 0.52202 8.1 0.78401 8.1 0.78401l-1.698-1.175s6.531 1.697 9.275 2.483c2.612 0.651 6.924 2.61 12.279 2.35 5.356-0.26199 9.014 2.352 9.014 2.352l-1.043-2.092 3.135 1.701s7.837 3.134 9.275 3.789c1.437 0.782 5.617 0.522 5.617 0.522l-0.395-1.045 4.443 1.174s-1.046-1.174 2.614 0.522c0 0 1.435 0.393 2.35 2.092 0 0-4.18 1.045-6.794 0 0 0-2.48 1.437-2.613 5.094 0 1.046-2.088-3.92-2.088-3.92l-3.527 4.966 0.783 4.441s-1.829-2.743-3.003-2.614c0 0-0.39401 3.136-2.614 4.05-1.961 0.91499-8.361 1.697-11.365 3.134 0 0 2.221-1.697 2.742-4.57 0.52399-3.005-0.521-3.397-0.521-3.397s-1.961 2.352-4.834 3.919c-2.875 1.437-4.833 2.874-4.833 2.874s4.31-4.833 4.31-6.401c0-1.437 1.961-3.789 1.961-3.789s-3.922 0-5.355 1.437c-1.439 1.437-8.101 3.919-8.101 3.919s1.96-0.524 2.875-3.004c1.046-2.352 3.265-4.313 3.265-4.313s-4.18 0-7.054 0.91499c-3.005 1.045-8.359 4.834-8.359 4.834s1.958-3.397 3.396-4.834c1.565-1.437 3.918-3.396 3.918-3.396s-6.271-0.524-9.668 1.437c0 0-4.964 1.568-6.4 3.004 0 0 4.442-5.356 7.315-5.356 0 0-10.713 0-13.586 0.39101-2.875 0.524-9.275 1.046-9.275 1.046s-5.356 0.522-7.315 1.959c0 0 3.396-3.92 6.793-4.442 3.526-0.39101 5.878-1.959 5.878-1.959s-5.878-1.437-10.19-0.393c-4.441 0.91499-8.229 0.393-13.585 3.397-5.355 2.874-8.752 4.311-8.752 4.311s5.748-5.357 10.189-6.793c4.312-1.437 7.708-3.397 7.708-3.397s-3.528-1.173-9.145 0.523c0 0-7.838 0-11.235 2.874 0 0 6.402-4.311 9.798-4.834 0 0-9.276-1.042-12.673 1.96-3.396 2.874-10.189 4.833-10.189 4.833s4.834-2.874 6.271-4.31c1.438-1.568 2.875-3.525 4.441-3.525 0 0-7.315-0.395-10.32 1.566-2.875 1.959-8.752 4.311-8.752 4.311s5.356-5.356 8.36-6.271l2.874-1.042s-7.316-0.91701-10.19 1.042c-3.004 1.961-9.797 3.92-9.797 3.92s3.397-1.959 4.963-3.92c1.437-1.958 2.874-2.481 2.874-2.481s-3.919-0.91501-8.229 0c-4.442 1.044-12.673 4.442-14.631 5.878-1.96 1.438-4.964 3.92-4.964 3.92s2.09-4.966 5.486-6.922c3.397-1.832 6.27-2.876 6.27-2.876s-14.63-0.521-17.505 2.481c-3.004 2.874-6.4 4.835-6.4 4.835s3.919-6.271 5.878-7.316c1.96-0.91499 3.919-1.959 3.919-1.959s-7.708 0-10.19 2.481c-2.48 2.354-5.877 3.919-5.877 3.919l3.397-4.963s-2.483 0.521-4.312 1.566c-1.96 0.91499-8.36 3.397-8.36 3.397l7.315-4.442-10.063 0.265z"/>
     <path id="svg_15" fill-rule="evenodd" d="m234.65 289.4s-2.351-1.568-3.003-2.48c-0.52301-0.91498-2.613-3.658-2.613-3.658l0.392 2.873s-1.438-2.482-2.091-3.788c-0.65399-1.306-1.829-5.357-2.481-5.748-0.523-0.39102-2.222-2.873-2.222-2.873l-0.261 2.873s-0.91399-3.788-1.829-4.31c-1.044-0.65503-3.134-4.834-3.266-5.619-0.392-0.91498-3.266-6.14-3.266-6.14s0.131 2.745 0.52199 3.919c0.392 1.177 1.828 5.488 2.352 7.446 0.65399 1.959 0.914 4.049 0.914 4.049l-1.306-1.958s0.392 3.789 0.131 5.096c-0.392 1.437-1.829 7.053-1.96 8.099-0.12999 0.91302-0.12999 2.087-0.12999 2.087l-0.262-3.917s-1.176 1.044-1.437 2.09-0.914 3.66-1.306 4.311c-0.131 0.785-1.959 3.659-1.959 3.659l-0.131-3.005s-1.699 2.874-1.829 4.049c-0.13101 1.044-0.65302 3.136-1.307 4.182-0.783 1.174-2.22 2.219-2.22 2.219l1.044-2.612s-1.305 1.958-2.611 2.352c-1.306 0.39398-4.182 1.96-4.835 2.743-0.521 0.655-2.22 1.96-2.22 1.96v-1.306s-1.567 1.565-2.351 3.003c-0.78401 1.308-2.222 4.704-2.222 4.704s-3.657 6.269-1.306 8.36c2.352 2.09 13.064-1.306 13.064-1.306l11.496-10.582-0.654 1.959s1.045-0.65302 6.01-7.707l-0.262 2.612s2.482-3.005 3.136-3.397c0.523-0.51999 4.703-2.612 5.879-5.355l-0.131 2.352s2.613-7.448 2.874-9.276l0.784 2.09s-0.129-1.568 0.65298-2.09c0.65302-0.65393 2.22-1.96 2.22-1.96z"/>
     <path id="svg_16" d="m210.22 308.08s-4.442 12.15-4.442 16.722c0 4.703-0.26001 23.384 0.26199 26.651 0.392 3.134 0 9.927 0.91499 11.364 1.045 1.437 1.959 7.577 2.874 10.19 1.045 2.743 4.181 6.793 5.226 8.23 0.914 1.568 4.572 5.617 3.526 8.1-0.914 2.48-7.054 4.18-8.752 3.265-1.698-1.046-6.662 8.492-13.847-26.39-1.306-7.054-3.397-21.162-4.312-14.629-0.39101 2.479-0.653-8.099-1.044-10.06-3.267-13.848-3.397-20.119-0.65399-26.127 2.613-6.011 9.406-6.402 9.406-6.402l-0.392 2.222s2.482-1.437 3.396-2.352c1.045-1.046 3.919-2.483 3.919-2.483l-1.698 3.397s3.396-2.482 4.311-3.788c0.91499-1.568-0.914 3.524-0.914 3.524l2.22-1.434z" fill-rule="evenodd" stroke-miterlimit="2.414"/>
     <path id="svg_17" fill-rule="evenodd" d="m218.85 388.29c0.39101-0.39099 1.437 0.784 2.221 1.959 0.78401 1.306 3.136 5.225 3.659 5.75 0.52101 0.65302 1.044 2.22-0.13199 2.48-1.306 0.26199-3.918-1.044-4.571-1.044-0.52298-0.13101 0 1.568 0.392 2.35 0.392 0.785 1.829 3.267-0.523 3.137-2.351-0.13101-10.581-1.83-12.149-3.266-1.567-1.568-2.613-4.704-2.481-5.879 0-1.046-1.568-3.397-0.916-3.004 0.65401 0.39099 2.353 1.437 3.79 1.306 1.567-0.129 5.094-0.52301 7.053-1.699 1.438-0.91299 1.569 0 1.569 0s1.435-1.437 2.088-2.09z"/>
     <path id="svg_18" fill-rule="evenodd" d="m205.92 391.82s0.52199 1.699 0.91399 2.092c0.26201 0.39099 0 1.306 0.131 1.828 0 0.393 2.09 4.049 3.789 4.964 0 0-2.22-0.651-2.613-1.044 0 0-1.307-0.785-2.483-4.573 0 0-0.129-1.568-0.261-1.961-0.26199-0.39099-1.046-2.09-1.046-2.09l1.569 0.784z"/>
     <path id="svg_19" d="m219.5 388.43c0.392 0.26001 1.044 1.046 1.567 1.828 0.784 1.306 3.136 5.225 3.659 5.75 0.52101 0.65302 1.044 2.22-0.132 2.48-1.306 0.26199-3.918-1.044-4.571-1.044-0.523-0.13101 0 1.568 0.392 2.35 0.392 0.785 1.829 3.267-0.523 3.137-2.351-0.13101-10.581-1.83-12.149-3.266-1.567-1.568-2.613-4.704-2.481-5.879 0-1.046-1.568-3.397-0.91598-3.004" fill-rule="evenodd" stroke-miterlimit="2.414"/>
     <path id="svg_20" fill-rule="evenodd" d="m219.76 397.44s-2.743-6.271-2.874-6.793c0 0 1.044-1.045 1.437-1.437 0.39299-0.26199 1.176 1.959 1.699 2.745 0.914 1.959 4.571 6.398 3.266 6.269 0 0-1.829-0.521-2.613-0.91501 0 0.001007-0.784-0.26099-0.91499 0.13101z"/>
     <path id="svg_21" d="m469.41 70.717s1.566-8.36 2.088-10.451c0.65302-1.959 2.352-5.093 2.483-6.007 0.13101-1.046 2.221-5.356 2.744-7.055 0.392-1.699 1.697-4.573 0.65302-4.835-1.045 0-2.744 0.393-5.228 4.051-2.48 3.397-3.788 5.747-4.048 6.271-0.13101 0.521-1.307 2.614-1.307 2.614l0.131-1.177s-0.91501 2.09-1.046 3.134c-0.26199 1.177-1.698 3.267-1.698 3.267l0.131-0.913s-1.046 2.088-1.699 2.612c-0.521 0.391-4.311 3.789-4.701 4.702-0.39401 0.785-0.65399 1.567 1.437 1.96 2.0909 0.26 10.06 1.827 10.06 1.827z" fill-rule="evenodd" stroke-miterlimit="2.414"/>
     <path id="svg_22" fill-rule="evenodd" d="m475.81 46.55s-0.91501 2.09-1.829 3.134c-0.91501 0.915-2.221 3.137-2.221 3.137l0.915-0.13s-1.046 0.913-1.568 1.437c-0.392 0.391-1.305 2.35-1.305 2.35l1.174-0.391s-1.306 0.915-1.566 1.437c-0.13199 0.524-0.65399 2.612-0.65399 2.612l-1.046 1.831 0.915-0.395s-0.392 1.308-0.65201 1.701c-0.392 0.391-1.697 1.959-1.697 1.959l0.652-0.131s-0.65201 0.784-1.177 1.306c-0.65201 0.522-2.482 3.267-2.482 3.267l3.528 0.915 0.913-2.223-0.782 0.264s0.65302-1.306 1.176-1.7c0.65201-0.392 1.045-1.566 1.045-1.566l-0.785 0.522s0.26199-1.175 0.52399-1.698c0.26099-0.522 0.78299-2.22 0.78299-2.22l0.784-1.7-0.522 0.262s-0.13-0.65299 0.522-1.437c0.65201-0.653 1.175-2.221 1.175-2.221l-0.522 0.131s1.044-1.177 1.178-1.568c0.12799-0.26 0.521-1.566 0.78101-2.221 0.393-0.521 1.177-2.482 1.177-2.482l1.566-4.182z"/>
     <path id="svg_23" fill-rule="evenodd" d="m470.58 57.653s-1.83 2.612-1.57 3.005c0.263 0.522-0.12799 1.568-0.51999 2.35-0.393 0.917-0.91501 1.961-0.91501 1.961h0.392l-1.436 1.308s-2.223 2.352-1.83 2.743c0.392 0.521 0.392 1.568 1.044 0.521 0.52399-0.913 0.52399-1.437 0.91501-2.089 0.392-0.523 1.83-3.007 1.959-3.527 0.13101-0.653 0.785-2.354 0.785-3.004 0.000946-0.655 1.176-3.268 1.176-3.268z"/>
     <path id="svg_24" fill-rule="evenodd" d="m440.8 70.979s14.242-4.833 21.426-2.743c6.531 1.961 13.716 3.917 17.897 8.751 1.698 1.83 5.616 4.182 8.099 5.357 2.352 1.177 10.189 6.663 12.803 7.446 2.742 0.653 6.923 4.703 7.446 9.145 0.26199 3.134 0 6.271 0.39099 7.968 0.52399 1.699-1.174 4.311-3.788 4.18 0 0 0.393 3.135-1.044 3.66-1.437 0.39101-4.313 0.65002-6.4 0.13-1.961-0.393-3.397-2.614-5.356-4.05-1.83-1.437-7.055-3.005-9.146-2.743-2.221 0.26-7.315 2.219-7.315 2.219l1.437 0.915s-2.482 0.26202-4.571-0.13099c-2.221-0.52201-5.095-0.26-5.095-0.26l1.175 1.175s-2.743-0.522-4.441-1.175c-1.699-0.784-1.175 1.697-1.175 1.697s-1.439-1.306-3.136-2.221c-1.699-0.913-4.572-3.134-4.572-3.134s-5.616-4.704-5.357-7.055c0.13199-2.483-0.521-7.185-2.22-9.927-1.699-2.614-0.26099-5.618-0.26099-5.618s-1.438-7.837-4.441-9.276c-2.876-1.437-4.8361-3.396-2.356-4.31z"/>
     <path id="svg_25" d="m440.8 70.979s14.242-4.833 21.426-2.743c6.531 1.961 13.716 3.917 17.897 8.751 1.567 1.699 5.356 4.051 7.708 5.228 2.482 1.173 10.711 6.792 13.325 7.576 2.742 0.653 6.791 4.703 7.314 9.145 0.26199 3.134 0 6.271 0.39099 7.968 0.52399 1.699-1.174 4.311-3.788 4.18 0 0 0.393 3.135-1.044 3.66-1.437 0.391-4.313 0.64999-6.4 0.13-1.961-0.393-3.397-2.614-5.356-4.05-1.83-1.437-7.055-3.005-9.146-2.743-2.221 0.26001-7.315 2.219-7.315 2.219l1.437 0.915s-2.482 0.262-4.571-0.131c-2.221-0.522-5.095-0.26-5.095-0.26l1.175 1.175s-2.743-0.522-4.441-1.175c-1.699-0.784-1.175 1.697-1.175 1.697s-1.177-1.175-2.874-2.088" fill-rule="evenodd" stroke-miterlimit="2.414"/>
     <path id="svg_26" fill-rule="evenodd" d="m492.27 109.12s-1.306-0.784-2.744-1.306c-1.437-0.393-5.356-2.09-6.139-1.83-0.91501 0-3.92-1.045-3.267-0.391 0.521 0.522 1.174 0.915 0.65201 1.437-0.521 0.39098-2.873 2.09-2.873 2.09s4.049-1.699 5.616-1.437c1.699 0.26199 4.182-0.26202 10.06 3.396 5.748 3.397 0.392 0 0.392 0l-1.697-1.959z"/>
     <path id="svg_27" fill-rule="evenodd" d="m449.81 69.15s-7.315 2.088-9.276 1.828c-1.961-0.26199-5.616 2.352-5.616 2.352s15.151 26.78 14.761 22.077c-0.393-3.787 0.26001-3.787 0.26001-5.487 0-1.697 2.222-3.656 2.222-3.656l0.261 5.093s1.045-5.093 0.52301-6.792c-0.52301-1.699-0.26099-4.441 0.65399-5.618 1.044-1.175 1.828-1.437 3.003-1.697 1.177-0.262 3.136-1.96 3.136-1.96v1.698s1.958-1.698 1.438-2.873c-0.52301-1.306-1.438-2.481-1.438-2.481l3.659 1.044s-1.96-2.221-3.659-2.221c-1.697 0-2.222-1.045-1.176-1.045h2.875s-2.876-1.96-11.627-0.262z"/>
     <path id="svg_28" fill-rule="evenodd" d="m456.34 71.109s1.306-3.526 2.089-4.441c0.784-1.046 3.006-5.487 3.397-7.054 0.392-1.567 2.222-9.276 3.003-10.321 0.91501-1.177 4.835-6.532 3.789-7.316-0.78201-0.784-1.176-1.306-4.311 0.784-3.005 2.09-6.662 7.969-7.577 9.015-1.044 1.045-5.095 4.179-5.617 5.226-0.522 1.177-1.829 2.743-1.829 2.743v-1.306s-1.044 1.828-1.044 2.743c0 0.785-1.438 4.834-2.092 5.487-0.65201 0.654-1.306 1.306-1.306 1.306v-1.437s-1.044 2.352-1.959 3.136c-1.046 0.91499-3.397 1.83-2.092 2.481 1.3081 0.522 10.061 3.267 15.549-1.046z"/>
     <path id="svg_29" d="m441.32 70.717c0.521-0.261 1.177-0.651 1.567-1.044 0.91501-0.784 1.959-3.136 1.959-3.136v1.437s0.65302-0.651 1.306-1.306c0.65302-0.653 2.092-4.702 2.092-5.487 0-0.915 1.044-2.743 1.044-2.743v1.306s1.307-1.566 1.829-2.743c0.522-1.046 4.573-4.18 5.617-5.226 0.91501-1.046 4.572-6.924 7.577-9.015 3.135-2.089 3.528-1.567 4.311-0.784 1.046 0.784-2.874 6.139-3.789 7.316-0.78101 1.045-2.611 8.754-3.003 10.321-0.392 1.566-2.613 6.008-3.397 7.054-0.521 0.654-1.306 2.611-1.698 3.658 0 0-0.914 1.699-1.959 2.874-0.393 0.653 0 1.699 0.263 1.959" fill-rule="evenodd" stroke-miterlimit="2.414"/>
     <path id="svg_30" d="m190.24 314.88s-3.918 2.22-4.311 3.919c-0.653 1.698-1.699 3.004-1.699 3.004s0.393-5.224 1.307-6.14c1.045-0.91501 1.699-3.396 1.699-3.396l-4.312 5.878 1.306-4.703s-2.743-0.26001-3.527 0.91501c-0.653 1.306-5.878 7.578-5.878 7.578l0.653-2.876s-3.266 1.438-4.049 2.876c-0.65401 1.567-2.874 6.269-1.829 10.975 0.914 4.571-0.78499 5.617-0.26199 9.274 0 0 0.26199 3.396 1.437 4.573 1.176 1.306 4.311 12.934 4.834 14.37 0.522 1.437 1.438 10.711 1.438 10.711l0.784-2.221 1.959 10.451 0.391-1.961s1.96 3.92 1.96 5.096c0 1.306 3.396 6.401 3.919 10.06 0.522 3.656-0.523 9.144 2.743 10.711 3.136 1.439 4.312 3.789 7.055 3.136 2.613-0.785 9.274-1.961 9.927-3.658 0.65399-1.699 0-6.141-1.697-7.056-1.699-1.044-5.879-9.796-7.577-12.41 0 0-0.653-6.792-4.18-12.411 0 0-4.051-17.242-4.312-22.468-0.261-4.964-1.437-24.298 2.221-34.227z" fill-rule="evenodd" stroke-miterlimit="2.414"/>
     <path id="svg_31" fill-rule="evenodd" d="m205.13 400.7s0 1.567-1.567 1.045c-1.437-0.52399-1.176-3.658-3.657-3.397-2.352 0.26401 1.96 2.222 0.261 3.66-1.698 1.437-2.613 1.697-4.181 0.65302-1.306-0.91501-2.352-2.09-3.658-2.875-1.176-0.78201-1.829-0.78201-2.613-2.874-0.78401-2.219-0.91501-4.701-2.613-6.922-1.829-2.09 0.523 2.221 0.523 3.658 0 1.568-0.523 4.966 0.39101 7.054 0.91499 2.222 3.92 5.096 6.271 5.356 2.484 0.259 12.151-0.39398 10.843-5.358z"/>
     <path id="svg_32" fill-rule="evenodd" d="m383.19 296.46s-4.443-0.522-4.834 1.437c-0.521 1.959-1.045 2.874-1.045 2.874s-0.52301-3.657 0.263-4.572c0.78198-1.044-1.7 1.176-2.223 2.22-0.522 0.91501-1.438 4.051-1.438 4.051l0.524-5.616s-2.482 2.22-3.007 3.917c-0.39099 1.699-0.65198 2.874-0.65198 2.874l0.523-4.571s-3.266 2.219-3.397 3.656c-0.26196 1.57-0.78198 2.614-0.78198 2.614s0.521-5.226 1.175-6.531c0.78503-1.175-3.136 1.699-3.395 3.135-0.263 1.568-1.702 4.18-1.702 4.18l0.787-5.616s-3.137 2.482-3.66 4.441c-0.521 1.958-0.78201 2.611-0.78201 2.611l0.521-5.616-4.571 5.226s-2.221 3.396-2.483 5.487c-0.26202 2.22-1.177 6.139-1.177 6.139l-1.044-2.352s-1.175 4.572-1.696 6.4c-0.52402 1.961-2.614 7.97-2.614 7.97s3.005 0.26001 3.92 2.874c0.521 1.438 0.26199 4.313 0.26199 4.313s2.873-3.658 2.873-6.402c-0.13101-1.045 0.65399-2.611 1.436-4.049 0.65503-1.437 3.135-4.834 3.135-4.834l-0.521 5.356s1.046-2.745 1.961-3.66c1.045-0.91299 2.743-3.004 2.743-3.004v3.004s1.699-1.959 2.09-3.265c0.52399-1.177 1.044-2.613 1.044-2.613l0.262 2.874s1.177-1.697 1.177-3.265c0-1.698 1.176-4.441 1.176-4.441l3.004-3.005-0.262 1.96s0.65198-2.091 1.698-3.137c0.91498-0.91299 2.352-2.612 2.352-2.612l-0.652 3.136s2.22-2.743 2.482-3.658c0.12897-1.045 1.828-3.135 1.828-3.135l0.521 2.09c-0.002014-0.001862 2.481-6.9259 4.18-8.8849z"/>
     <path id="svg_33" fill-rule="evenodd" d="m311.21 309.65s3.005-4.441 3.005-5.747c0-1.177 1.045-4.833 1.045-4.833l-2.22 4.442s0.26102-1.7 0.26102-3.005c0-1.177-0.26102-3.658 0.26199-4.573 0.392-1.046 0.65198-2.221 0.65198-2.221l-2.221 2.743s0.78299-3.918 1.307-5.094c0.392-1.306 0.914-3.005 0.914-3.005l-2.874 3.396s0-2.612 0.65302-4.049c0.78299-1.568 1.307-3.396 1.307-3.396l-2.744 1.697s2.221-3.005 3.006-4.964c0.65201-1.958 1.697-3.396 1.697-3.396l-3.266 2.743s1.307-3.137 1.96-4.443c0.78299-1.173 1.306-2.612 1.306-2.612l-2.742 2.875s-3.136 6.398-3.136 9.013c0 2.611-0.26202 4.443-0.26202 4.443l0.784-0.524s0 2.612-0.52197 3.658c-0.52301 0.91498-0.26202 3.658-0.26202 3.658l1.046-1.568s-1.046 2.745-0.784 4.181c0.26099 1.438 0.784 2.743 0.784 4.442 0 1.696-1.96 3.788-1.96 3.788l0.262 1.958 0.522 0.13c0 0.002014 1.698-0.38901 2.22 0.263z"/>
     <path id="svg_34" fill-rule="evenodd" d="m378.09 281.83s1.178 5.356-0.259 7.315c-1.438 1.961-1.961 3.918-1.961 3.918l0.914-6.4-2.874 3.397 4.18-8.23z"/>
     <path id="svg_35" fill-rule="evenodd" d="m391.94 284.31s4.832-3.397 5.355-6.924c0.392-3.397 2.874-5.75 2.874-5.75l0.523 5.75s0.39197-7.187 1.96-9.669c1.437-2.483 1.437-4.311 1.437-4.311s-3.92 4.835-4.834 6.271c-1.045 1.438-5.357 14.109-7.315 14.633z"/>
     <path id="svg_36" fill-rule="evenodd" d="m410.88 273.6s0.91498-3.006 2.482-5.356c1.436-2.483 1.826-5.356 1.826-5.356l1.048 3.396 2.35-5.356 1.567-3.918s-2.482 12.148-4.965 12.672c-2.349 0.52103-4.308 3.918-4.308 3.918z"/>
     <path id="svg_37" fill-rule="evenodd" d="m434.4 259.49s-0.91501-1.697-1.176-3.003c-0.26099-1.176-0.26099-2.614-0.26099-2.614l-1.175 2.614-0.915-0.915s-1.307 1.959-1.044 2.612c0.259 0.784 1.044 2.743 1.044 2.743l0.13-2.743 1.307 0.784 0.394-1.437c-0.000061 0 1.0429 1.699 1.696 1.959z"/>
     <path id="svg_38" fill-rule="evenodd" d="m424.47 262.23s1.045 3.789 1.697 4.704l0.263 1.306s-1.437-0.784-1.437-1.438c0-0.784-0.784-1.961-0.784-1.961l-1.437 2.614c0.001038 0.001007-0.52097-3.264 1.698-5.225z"/>
     <path id="svg_39" fill-rule="evenodd" d="m440.28 248.78l-1.438-1.699s-0.78299 0.91499-0.521 1.959c0.26001 0.91499 1.437 3.137 1.437 3.137s-0.13004-2.873 0.52197-3.397z"/>
     <path id="svg_40" fill-rule="evenodd" d="m431.79 244.86l-0.915-1.699-0.785 2.222-0.782 3.656-0.654-2.743s-0.521 3.919-0.521 4.834c0 1.046-0.91598 3.265-0.91598 3.265s3.135-4.441 3.659-5.879c0.38898-1.435 0.914-3.656 0.914-3.656z"/>
     <path id="svg_41" fill-rule="evenodd" d="m446.02 235.19l-4.702-2.874 0.391 1.96-2.611-2.221-4.18-1.83 1.043 1.83s-3.004-1.177-3.919-2.614c-1.045-1.437-3.134-3.136-3.134-3.136s1.174 3.136 2.089 4.05c1.045 1.044 4.964 4.442 4.964 4.442l0.915-1.046 2.222 1.697 1.176 1.437-0.261-1.437s1.696 0.26401 1.958 1.045c0.26199 0.655 1.437 1.83 1.437 1.83v-1.699l3.137 1.961-0.525-3.395z"/>
     <path id="svg_42" fill-rule="evenodd" d="m426.43 239.24s-1.697-0.91499-2.221-2.354c-0.392-1.437-1.699-2.61-1.699-2.61l0.522 2.61 1.438 4.313v-1.959l2.222 3.396-0.262-3.396z"/>
     <path id="svg_43" fill-rule="evenodd" d="m358.89 284.52s-2.482 12.15-3.922 14.633c-1.436 2.352-2.221 4.311-2.221 4.311l0.262-5.356-3.135 4.834-0.521 5.356 1.96-5.097 0.259 3.92s3.396-3.658 3.921-5.356c0.39102-1.697 2.61-7.577 2.61-7.577l1.047-0.131 1.175-17.504-1.4351 7.9669z"/>
     <path id="svg_44" fill-rule="evenodd" d="m366.34 282.61s-1.959 5.487-2.612 7.057c-0.78302 1.437-1.959 4.049-1.959 4.049l2.874-4.313-0.392 3.789c0.001007 0 3.134-6.007 2.089-10.582z"/>
     <path id="svg_45" fill-rule="evenodd" d="m347.13 299.59s0-1.699-0.91302-2.743c-1.048-0.91498-1.438-6.272-1.438-6.272l-0.263 3.658-0.26 3.658 1.175-0.522 1.699 2.221z"/>
     <path id="svg_46" fill-rule="evenodd" d="m340.86 296.85s-2.874-3.791-2.874-5.096c0-1.176-0.785-4.571-0.785-4.571l-0.915 4.571v4.834l1.438-2.612 3.136 2.874z"/>
     <path id="svg_47" fill-rule="evenodd" d="m334.72 292.02s-1.046-4.833-0.784-6.532c0.263-1.699 0-2.875 0-2.875l-2.221 6.793 1.438-1.306c-0.000031 0 0.52097 2.743 1.567 3.92z"/>
     <path id="svg_48" fill-rule="evenodd" d="m327.14 297.37l-0.522-3.396s-2.352 2.481-2.613 3.658c-0.26102 1.175 1.177-0.784 0.914 1.175-0.26102 1.958-0.26102 4.441-0.26102 4.441l1.306-4.441 0.915 1.699 0.261-3.136z"/>
     <path id="svg_49" fill-rule="evenodd" d="m383.19 289.67s2.219-3.006 1.961-4.443c-0.263-1.438 0.65201-4.573 0.65201-4.573l-1.176 2.092s-1.046-1.177-0.785-3.397c0.26102-2.092-1.697-5.748-1.697-5.748s0.784 3.396 0.52298 5.356c-0.263 1.959 0.91299 5.093 0.91299 5.093l-0.391 5.62z"/>
     <path id="svg_50" fill-rule="evenodd" d="m392.86 269.94l0.521-3.66-1.176 1.437s-0.26099-2.612-1.306-4.18c-0.91501-1.438-2.092-4.833-2.092-4.833s0.91501 4.701 0.91501 6.529c0 1.961 0.26196 6.403 0.26196 6.403l1.436-1.437v3.397l1.44-3.656z"/>
     <path id="svg_51" fill-rule="evenodd" d="m343.34 312.4s-1.701-2.352-1.701-4.049c0-1.7-1.567-3.397-1.567-3.397v3.919s-1.436-1.308-1.958-2.483c-0.393-1.177-0.393-2.873-0.393-2.873s-1.438 2.088-1.046 3.134c0.52301 0.914 2.222 3.397 2.222 3.397l0.912 2.22 1.049-1.958 2.482 2.09z"/>
     <path id="svg_52" fill-rule="evenodd" d="m313.69 317.1s2.744-3.002 3.268-4.701c0.39102-1.699 1.437-2.352 1.437-2.352l-0.262 3.658s0.914-1.959 1.437-2.745c0.522-0.651 1.176-1.958 1.176-1.958s-0.914 3.659-1.83 5.356c-1.044 1.699-2.219 3.396-2.219 3.396l0.262-2.609-3.269 1.955z"/>
     <path id="svg_53" fill-rule="evenodd" d="m318.91 338l1.438-3.919 0.655 1.568 2.479-5.096 0.523 1.699 1.959-3.527s-1.697 4.701-1.697 6.139c0 1.437-0.785 2.614-0.785 2.614v-3.134l-2.873 5.617v-3.005l-1.699 1.044z"/>
     <path id="svg_54" fill-rule="evenodd" d="m345.04 323.5s0.13 3.789-0.78299 5.226c-0.91299 1.567-1.175 3.527-1.175 3.527l-0.524-3.265-2.482 2.482 1.046-2.223 0.915-2.221 1.046 0.784 1.957-4.31z"/>
     <path id="svg_55" fill-rule="evenodd" d="m306.37 301.03s-2.873-3.135-3.267-5.878c-0.52301-2.612-1.305-9.145-1.305-9.145l-0.655 7.053s-1.437-4.702-1.697-8.359c-0.26102-3.658-1.045-10.844-1.045-10.844l-1.437-4.704v11.236l-2.221-5.356s0.26099 6.27 1.045 8.23c0.65201 1.959 2.352 6.531 2.352 6.531l1.044 5.094 0.521-5.224s0.393 5.224 1.698 6.922c1.177 1.831 4.967 4.444 4.967 4.444z"/>
     <path id="svg_56" fill-rule="evenodd" d="m291.35 293.19s0.521 3.92 1.698 5.225c1.307 1.177 3.136 4.311 3.136 4.311l-0.653-3.134s1.698 2.22 2.874 3.658c1.306 1.437 3.919 3.919 4.834 4.31 0 0-4.834-1.96-5.488-2.874-0.78299-1.045-0.78299 1.437-0.78299 1.437s-0.78302-1.697-1.959-2.874c-1.177-1.305-3.659-8.098-3.659-10.059z"/>
     <path id="svg_57" fill-rule="evenodd" d="m280.64 301.55s-0.65402-2.743-2.352-3.918c-1.697-1.177-3.919-5.618-3.919-5.618l0.784 4.572s-2.221-3.789-2.482-6.01c-0.26099-2.22-1.959-7.055-1.959-7.055l-1.437-3.917 1.175 11.233 0.785-1.959s1.437 7.315 2.612 9.014c1.307 1.699 2.745 2.352 2.745 2.352l-0.263-2.612c-0.001007 0 4.179 3.134 4.311 3.918z"/>
     <path id="svg_58" fill-rule="evenodd" d="m280.25 279.08s0.914 7.575 2.352 10.318c1.437 2.614 1.698 4.313 1.698 4.313s-3.396-2.875-3.658-4.834c-0.13199-1.958-1.175-4.442-1.175-4.442l-0.523 2.221s-1.176-2.614-0.914-4.311c0.26001-1.699-0.52197-6.402-0.52197-6.402l1.437 5.618 1.305-2.481z"/>
     <path id="svg_59" fill-rule="evenodd" d="m252.42 280.13s1.044 7.315 3.005 9.538c1.959 2.088 3.396 3.394 3.396 3.394l-0.523-2.221s2.222 3.659 3.658 5.096c1.438 1.437 4.573 4.179 4.573 4.179s-5.749-3.526-6.532-4.701l0.261 1.437s-1.437-0.91498-2.874-2.614c-1.436-1.697-4.964-4.834-4.964-14.108z"/>
     <path id="svg_60" fill-rule="evenodd" d="m241.32 290.32s-2.221-3.396-3.135-6.532c-1.046-3.136-2.222-9.536-2.222-9.536l-0.784 3.397s-1.698-4.312-1.698-7.448c0-3.265-0.39198-7.315-0.39198-7.315s-0.78401 12.149 1.437 17.766l1.176-1.306c0.000992 0.000977 2.743 8.362 5.618 10.974z"/>
     <path id="svg_61" fill-rule="evenodd" d="m213.62 259.75s-1.044-1.698-1.698-4.18c-0.78499-2.482-1.438-5.878-1.438-5.878l-0.784 3.134s-1.698-2.088-1.698-4.049c0-1.958-1.176-5.096-1.176-5.096l-0.784 2.614-1.437-7.054s-1.045 6.14 0 7.578c0.91501 1.437 1.437 4.833 1.437 4.833l0.784-2.614s1.307 4.05 2.352 5.749 1.306 3.005 1.306 3.005l-0.261-2.482 3.397 4.4399z"/>
     <path id="svg_62" fill-rule="evenodd" d="m215.06 240.28s-0.78499 5.619-0.26199 6.793c0.39101 1.177 0.784 4.573 0.784 4.573s-3.004-2.874-3.267-4.311c-0.13-1.437-0.78299-3.396-0.78299-3.396l1.567 2.088 1.961-5.747z"/>
     <path id="svg_63" fill-rule="evenodd" d="m205.13 256.09s0.653 7.315-0.39099 9.143c-0.91501 1.961-1.176 3.66-1.176 3.66s0.523-4.311 0-5.097c-0.52199-0.651-1.176-3.396-1.176-3.396l1.438 1.177 1.305-5.487z"/>
     <path id="svg_64" fill-rule="evenodd" d="m213.62 268.24s0.91499 2.613 0.65298 4.31c-0.26099 1.699 0 3.136 0 3.136s-0.65298-2.09-1.437-3.136c-0.653-0.91498-0.653-1.697-0.653-1.697l-0.784 2.219 0.131-3.396 1.959 1.046 0.131-2.482z"/>
     <path id="svg_65" fill-rule="evenodd" d="m201.86 292.54s-0.393 3.656-2.091 4.833c-1.698 1.175-2.482 2.221-2.482 2.221s1.437-3.005 1.437-3.92c0-0.91501-1.176 0.91498-1.96 1.699-0.784 0.784-4.441 4.18-4.441 4.18s4.703-5.879 5.226-7.054c0.523-1.308 1.437-2.744 1.437-2.744l1.176 2.482 2.482-5.878-0.784 4.181z"/>
     <path id="svg_66" fill-rule="evenodd" d="m208.92 284.04s0 3.138-0.39099 5.096c-0.52301 1.961-1.568 3.918-1.568 3.918l0.522-3.658-1.437 1.437 2.874-6.793z"/>
     <path id="svg_67" fill-rule="evenodd" d="m168.29 301.94s-1.177-0.91501-0.91598-2.091c0.26099-1.306 1.176-3.396 1.176-3.396l-1.176 0.653s1.699-3.658 1.959-5.356c0.26199-1.697 1.176-5.095 1.176-5.095s0 4.834-0.522 6.793l1.306-1.437s-1.044 3.397-1.959 4.834c-1.044 1.567-1.044 5.095-1.044 5.095z"/>
     <path id="svg_68" fill-rule="evenodd" d="m321.01 227.74s-5.096 7.707-5.75 12.803l3.789-3.396s-2.875 4.311-3.396 6.922c-0.393 2.745-0.65198 3.92-0.65198 3.92l0.652-5.616-1.698 1.567s-0.39197-9.667 7.055-16.2z"/>
     <path id="svg_69" fill-rule="evenodd" d="m317.61 258.18l-5.618 6.924 1.96-1.044s0.52301 1.959-1.437 4.571c-1.961 2.745-1.961 6.662-1.961 6.662s1.699-5.616 3.136-7.053c1.567-1.438 4.442-5.356 4.442-5.356l-2.875 1.699 2.353-6.403z"/>
     <path id="svg_70" fill-rule="evenodd" d="m314.73 258.96l2.482-4.572-2.482 1.961 0.263-3.529s-1.308 2.483-1.308 3.919c0 1.437-1.175 4.442-1.175 4.442l2.22-2.221z"/>
     <path id="svg_71" fill-rule="evenodd" d="m203.56 234.28s-0.78401-3.138 0-4.313c0.783-1.306 1.699-5.878 1.699-5.878s-0.65298 1.958-1.829 3.395c-1.306 1.439-2.482 3.658-2.482 5.619 0 1.959 1.699-1.961 1.699-1.961l0.913 3.138z"/>
     <path id="svg_72" fill-rule="evenodd" d="m200.69 240.02l-2.612 8.49-0.784 4.573 1.96-5.094 0.653 3.658c-0.001007-0.001007-0.001007-10.714 0.78299-11.627z"/>
     <path id="svg_73" fill-rule="evenodd" d="m179 220.43s-1.176 3.919-0.52301 6.271c0.78401 2.483 1.568 5.357 1.568 5.357l0.392-2.614s0.523 0.91499 1.437 3.396c1.045 2.483 0.784 6.402 0.784 6.402l-1.176 6.792s0-9.796-0.522-10.582c-0.523-0.651-0.91499 2.091-0.91499 2.091s-0.522-3.005-1.045-3.919c-0.52301-1.047-2.482-6.663 0-13.194z"/>
     <path id="svg_74" fill-rule="evenodd" d="m173.38 219.77s-0.914 8.23 0 10.189c1.046 1.961 1.307 6.531 1.307 6.531l-1.698-4.57-0.522 1.828s-1.437-3.134-0.784-5.487c0.78299-2.481 1.697-8.491 1.697-8.491z"/>
     <path id="svg_75" fill-rule="evenodd" d="m390.9 197.56s-0.392 5.097 1.045 7.58c1.437 2.352 1.696 4.57 1.696 4.57l0.524-3.134s2.089 2.874 2.089 4.18c0 1.175 3.137 5.485 4.835 6.793 1.83 1.175-3.789-2.482-5.226-4.181l0.391 2.874s-3.134-2.352-4.31-5.485c-1.306-3.266-2.221-9.277-1.044-13.197z"/>
     <path id="svg_76" fill-rule="evenodd" d="m429.17 221.47s-1.045-1.308-3.268-2.745c-2.088-1.437-4.309-4.311-4.309-4.311l0.521 2.874s-1.698-1.437-2.742-3.134c-0.91501-1.701-1.177-2.745-2.482-3.659-1.177-1.044-3.137-3.398-3.137-3.398s1.436 3.92 2.483 5.096c0.91299 1.175 5.095 7.054 6.792 7.708l0.262-1.699 5.88 3.268z"/>
     <path id="svg_77" fill-rule="evenodd" d="m437.4 107.43s0.521-1.044 0.65302-2.743c0.26199-1.699 0.521-4.573 0.521-4.573l-3.136 7.315 0.523-5.356s-1.958 4.05-2.221 5.356c-0.26199 1.176 0 7.708 0 7.708l1.437-4.834s0.26099 4.574 0.52301 6.795c0.26099 2.219 0.26099 3.396 0.26099 3.396l1.177-11.366 0.914 2.09-0.652-3.788z"/>
     <path id="svg_78" fill-rule="evenodd" d="m458.96 110.82s-2.351-2.221-3.134-1.961c-0.65201 0.262-1.438 2.221-1.438 2.221l-0.522-1.306s-1.698 1.437-1.959 2.482c-0.13101 0.915-0.13101 3.658-0.13101 3.658l-1.699 3.136 1.83-1.437s0 0.91502 0.521 3.658c0.52301 2.613-0.26099 3.917-0.26099 3.917l1.438-3.005s-0.393 4.444 0.26001 5.619c0.784 1.174 3.267 4.834 3.267 4.834s-1.567-5.096-1.567-6.271c0-1.177 0.784-7.97-0.392-9.143l2.089 1.828s-0.78201-3.66-0.13-5.618c0.52304-1.83 1.828-2.612 1.828-2.612z"/>
     <path id="svg_79" fill-rule="evenodd" d="m447.59 64.709s-0.65302 2.613-1.176 3.527c-0.65302 0.784-1.178 2.352-1.178 2.352l1.568-1.308s-0.914 1.699-1.174 2.092c-0.26199 0.522-0.52301 1.699-0.39499 2.35 0.133 0.655 0.133 1.568-0.39099 1.961-0.65302 0.391-2.35 1.437-2.222 1.046 0.13199-0.394 0.784-1.046 0.784-1.701 0-0.651-1.698 0.52399-1.698 0.52399s1.046-0.784 1.046-1.175c0-0.26201-1.699-0.786-2.874-0.786-1.046 0-1.961-0.12901-1.961-0.12901s2.093-0.39099 2.614-0.521c0.521-0.131 1.306-0.655 1.306-0.655l-1.827 0.131s1.696-0.782 1.958-1.177c0.26199-0.26 2.482-2.61 2.482-2.61l0.261 0.391c0.001984-0.000992 2.354-2.744 2.877-4.312z"/>
     <path id="svg_80" fill-rule="evenodd" d="m466.8 45.242s-0.91501 1.699-2.352 2.613c-1.306 1.046-4.573 5.879-4.573 5.879l1.961-1.044-2.353 2.09s-1.96 1.829-2.483 2.873c-0.64999 0.915-1.435 2.481-1.435 2.481l1.306-0.651s-1.175 0.913-1.827 1.697c-0.785 0.785-1.7 2.874-2.092 3.919-0.392 0.915-1.045 2.614-1.045 2.614l1.045-0.524s-0.784 0.91499-1.045 1.699c-0.26199 0.653-0.784 1.438-0.784 2.35 0 1.046 0.784 2.483 0.39099 3.138-0.39099 0.52199-0.39099 1.437-0.39099 1.437l1.045-2.092 0.131 1.306 1.175-1.437v1.046s0.393-1.828 0.52399-2.482c0.12799-0.782 0.12799-2.743 0.78299-3.134 0.65302-0.52399 2.874-4.05 2.874-4.05l-0.915 0.653s0.522-1.306 0.91501-1.959c0.521-0.524 1.959-3.528 1.959-3.528l-0.654 0.131s0.785-1.568 1.57-2.612c0.65302-1.044 2.351-4.833 2.479-5.225 0.134-0.521 0.655-2.874 1.439-3.658 0.91598-0.656 2.352-3.53 2.352-3.53z"/>
     <path id="svg_81" fill-rule="evenodd" d="m458.83 83.257c1.045-0.651 0.784-0.129 2.354-1.175 1.697-0.913 4.18-3.787 7.053-3.135 2.743 0.65501 4.313 3.004 4.313 3.004s-1.307-0.91299-1.96-1.175c-0.78299-0.393-2.613-1.568-4.443-0.915-1.044 0.522-2.35 1.959-2.35 1.959s1.174-0.651 2.089-0.651c0.91498 0 1.828-0.262 3.528 0.651 1.829 0.915 3.003 2.092 3.918 2.092 0.784 0.26 1.567 1.176 0.392 1.176-1.174 0-1.697-0.523-2.48 0.129-0.784 0.653-3.529 2.874-7.315 1.437-3.791-1.566-1.177-0.784-1.961-1.045-0.78201-0.13-1.176-0.52099-0.521 0.393 0.521 1.044 3.266 4.181 7.837 2.612 0 0-2.351 1.569-5.224 0.393-2.745-1.044-4.313-2.352-4.574-3.136-0.392-0.783-0.52301-0.91299-0.914-1.306-0.39597-0.26201-0.91696-0.65301 0.25803-1.308z"/>
     <path id="svg_82" fill-rule="evenodd" d="m493.45 104.68s-0.785 0.129-1.569-0.653c-0.91299-0.91499-0.65201-1.697-1.828-2.352-1.177-0.653-2.873 0.26-5.88-1.697-2.088-1.308-2.741-1.832-2.088-0.785 1.043 1.437 3.134 2.614 5.223 2.614 2.092 0 2.482 0.523 3.136 1.437 0.52399 0.784 0.91501 1.697 1.568 1.961 0.65302 0.26-0.392 1.175 0.26199 1.828 0.522 0.653 3.396-0.522 2.611-1.959-0.65292-1.44-1.4349-0.394-1.4349-0.394z"/>
     <path id="svg_83" fill-rule="evenodd" d="m479.86 77.25s-0.91199-1.306-2.48-2.223c-1.438-0.913-2.091-0.913-2.091-0.913l2.091 1.437 1.438 1.568-1.178-0.524-1.959-1.044 1.699 1.308s-1.045-0.26399-1.699-0.52399c-0.521-0.26099-3.134-0.784-3.134-0.784s3.134 1.044 3.527 1.959c0.521 0.786 2.221 1.828 2.221 1.828l-1.83-0.391-1.044-0.391s0.78201 1.176 1.697 1.437c0.784 0.26199 2.221 1.959 2.221 1.959l-2.743-0.782s1.959 0.782 2.091 1.305c0.13101 0.39198 1.174 2.743 1.305 3.658 0.13199 0.784 0.13199 3.136 3.527 4.05 0 0 4.051 3.005 5.748 3.396 1.7 0.522 3.006 2.612 2.744 3.788-0.392 1.306 1.306 2.483 1.696 3.396 0.263 1.046 0.134 1.57 0 1.96-0.129 0.522 0.134 1.829 0.52399 2.22 0.26199 0.39301-0.65302 1.7-1.83 1.305-1.044-0.26-1.697 2.354-0.26099 3.92 0 0 2.091 1.83 2.481 2.352 0.39401 0.39299 1.83 1.83 3.397 2.223 1.307 0.26 4.965 0.26 6.01-0.394 0 0 1.044-0.262 0.78201-3.526 0 0 1.569 0.13099 2.745-0.915 0 0 0.914-0.653 1.043-2.09 0 0 0-0.262-0.129-1.437 0 0-0.26199-0.52399-0.129-3.658 0.129-3.004-0.39499-5.225-0.785-6.011 0 0-0.784-2.743-4.049-5.485 0 0-1.699-1.044-3.006-1.437-1.176-0.391-4.179-2.09-4.703-2.483-0.52399-0.391-7.053-4.311-8.62-5.093 0 0-4.836-2.744-5.488-3.528-0.65295-0.654-1.829-1.436-1.829-1.436z"/>
     <path id="svg_84" fill-rule="evenodd" d="m466.66 91.62s3.397 0.782 6.271 0c2.742-0.65501 5.616-1.437 7.575-1.177 1.57 0.262 4.181 0.913 4.966 1.699 0.91199 0.915-0.91501-0.131-2.482-0.522-1.046-0.131-2.091-0.39299-3.527-0.264-1.437 0.133-4.049 1.177-6.141 1.308-1.958 0.129-6.662-1.044-6.662-1.044z"/>
     <path id="svg_85" fill-rule="evenodd" d="m505.72 100.63c-0.26099-0.39101-0.521 0.131-1.176-0.913-0.39099-0.655-0.521-3.136-1.306-3.919-0.78299-0.653-2.613-1.961-4.311-1.568-1.83 0.39301-0.91501 1.175 0 1.83 0.91501 0.65002 3.397 0.91502 3.789 1.565 0.521 0.655 0.784 2.223 1.306 2.745 0.39099 0.523 2.352 1.175 1.698 0.26z"/>
     <path id="svg_86" fill-rule="evenodd" d="m507.29 109.91s-0.521 0.26-0.91299 0.13099c-0.263-0.13099-0.521-0.26199-0.393-0.39298 0.13-0.26002 0.52301-0.65301 0.784-1.044 0.13101-0.521 0.26099-3.004 0-2.09-0.392 1.044-0.65399 2.874-1.828 3.527-1.306 0.653-3.267 0.52101-4.313 0.129-1.045-0.522-2.612-1.828-3.003-2.35-0.39401-0.393-2.613-2.482-3.397-2.743 0 0 0 1.044-1.437 1.306 0 0 1.175 0.521 1.96 0.653 0.65302 0.26 1.828 1.046 2.48 1.697 0.784 0.65498 3.267 2.352 4.049 3.007 1.178 0.913 3.136 1.044 3.527 0.52101v-1.306c0.000977-0.261 1.831 0.13 2.484-1.045z"/>
     <path id="svg_87" fill-rule="evenodd" d="m498.02 93.97s-1.176 0.394-0.784 1.306c0.52301 0.786-0.13101 0.131-0.259 0-0.133-0.26-0.263-1.306 1.043-1.306z"/>
     <path id="svg_88" d="m471.63 84.303c-0.26001-0.131-0.914-0.782-1.306-1.175-0.521-0.522-2.352-2.09-4.704-1.308 0 0-1.565 0.395-3.267 1.437 0 0-1.958 0.786-1.173 1.176 0.78201 0.393 1.173 0.393 1.566 0.655 0.393 0.26 3.004 1.697 4.181 1.566 1.045 0 3.266-1.045 3.527-1.437 0.26199-0.39 1.176-0.914 1.176-0.914z" fill-rule="evenodd" stroke-miterlimit="2.414"/>
     <path id="svg_89" d="m466.8 86.395c1.699 0 3.136-1.046 3.136-2.223 0-1.306-1.437-2.352-3.136-2.352-1.83 0-3.267 1.046-3.267 2.352 0.000977 1.177 1.437 2.223 3.267 2.223z" fill-rule="evenodd" stroke-miterlimit="2.414"/>
     <path id="svg_90" fill-rule="evenodd" d="m469.8 83.652s-0.78699-1.701-3.137-1.701c0 0-2.221 0-3.005 1.83 0 0 1.306-0.523 1.959-0.523 0.65598-0.13 2.614-0.39201 4.183 0.394z"/>
     <path id="svg_91" fill-rule="evenodd" d="m467.97 83.652c0.13101 0 0.91501 0.651-0.263 1.042-0.91299 0.264-2.09 0-2.35-0.129-0.26199 0-0.26199-0.784 0.13-0.913 0.001007 0 1.438-0.131 2.483 0z"/>
     <path id="svg_92" fill-rule="evenodd" d="m467.45 82.866c0.52301-0.392 1.307 0.522 0.784 0.65501-0.39099 0-1.043-0.264-0.784-0.65501z"/>
     <path id="svg_93" fill-rule="evenodd" d="m467.97 84.172c0.13101 0 0.26099 0.393 0 0.393-0.263 0-0.263-0.393 0-0.393z"/>
     <path id="svg_94" fill-rule="evenodd" d="m304.02 193.52c-1.698 0.524-6.531 4.834-7.969 8.754-1.567 3.789-1.958 6.922-1.958 6.922s3.657-7.969 6.27-9.667c2.742-1.699 7.576-7.577 3.657-6.009z"/>
     <path id="svg_95" fill-rule="evenodd" d="m279.98 187.64c-2.221-0.26-7.577 1.177-10.059 4.311-2.352 3.265-3.527 3.658-4.572 5.878-0.914 2.221-1.699 5.619-2.874 8.232-0.65302 1.305 3.396-4.575 4.572-6.271 1.176-1.699 4.181-5.619 5.618-6.271 0 0-1.437 2.612-1.959 4.048-0.52301 1.437 1.044-0.521 3.135-2.874 2.221-2.482 2.482-2.221 3.397-3.003 1.044-0.65401 5.094-3.79 2.742-4.05z"/>
     <path id="svg_96" fill-rule="evenodd" d="m305.98 189.99s-6.141 3.265-6.793 4.702c-0.784 1.437-5.356 4.572-6.14 5.357-0.65402 0.655-2.09 3.135-2.09 3.135s0.39203-3.135 2.352-5.878c1.959-2.615 9.273-10.714 12.671-7.316z"/>
     <path id="svg_97" fill-rule="evenodd" d="m315 192.47s-3.136 0.524-5.096 2.743c-1.96 2.092-5.096 6.011-5.355 8.232-0.26202 2.219-2.743 11.364-3.658 12.8-1.046 1.568 2.352-3.134 3.135-4.833 0.78296-1.699 2.743-6.531 3.919-8.751 1.176-2.223 2.222-4.051 3.396-5.356 1.176-1.178 5.878-5.097 3.659-4.835z"/>
     <path id="svg_98" fill-rule="evenodd" d="m299.71 185.94s-3.004-1.176-5.877 0.651c-2.875 1.961-5.617 6.14-6.402 7.317-0.65298 1.304-3.528 3.917-4.833 4.701 0 0 4.833-1.958 6.662-3.657 1.698-1.699 3.135-4.964 5.096-5.619 1.829-0.78101 6.791-2.873 5.354-3.393z"/>
     <path id="svg_99" fill-rule="evenodd" d="m232.56 174.44s-5.356 1.046-8.753 3.397c-3.526 2.481-5.878 12.15-5.878 12.15s3.92-6.793 7.839-9.145c6.269-3.918 6.792-6.402 6.792-6.402z"/>
     <path id="svg_100" fill-rule="evenodd" d="m267.57 181.24s-6.4 1.046-8.23 3.529c-1.959 2.352-5.879 10.189-5.356 12.541 0 0 3.397-6.793 6.271-8.752 2.874-1.962 7.315-7.318 7.315-7.318z"/>
     <path id="svg_101" fill-rule="evenodd" d="m248.63 180.32s-5.879 1.961-7.838 4.835c-1.959 3.004-2.874 10.712-2.874 10.712s2.874-6.271 5.748-9.276c3.004-2.873 4.964-6.271 4.964-6.271z"/>
     <path id="svg_102" fill-rule="evenodd" d="m334.98 193.52s-8.1 1.83-10.58 5.747c-2.354 3.92-5.357 13.589-4.313 15.546 0 0 2.353-9.145 5.878-11.102 3.398-1.961 9.015-10.191 9.015-10.191z"/>
     <path id="svg_103" fill-rule="evenodd" d="m216.5 174.05s-8.36 1.437-11.234 8.23c-2.875 6.793-5.356 9.667-5.356 9.667s6.4-8.23 9.275-10.189c3.004-1.961 7.315-7.708 7.315-7.708z"/>
     <path id="svg_104" fill-rule="evenodd" d="m201.47 176.01s-5.878 2.874-6.792 5.225c-1.046 2.483-3.005 9.276-3.005 9.276s4.312-6.793 6.402-8.23c1.828-1.437 3.395-6.271 3.395-6.271z"/>
     <path id="svg_105" fill-rule="evenodd" d="m241.32 178.36s-5.356 1.046-7.838 3.919c-2.352 2.874-4.441 7.315-4.441 7.315s5.486-5.878 7.446-6.4c1.958-0.39201 4.833-4.834 4.833-4.834z"/>
     <path id="svg_106" fill-rule="evenodd" d="m235.44 188.55s-7.315 6.793-7.707 12.15c-0.523 5.356-1.046 7.315-1.046 7.315s3.005-7.708 4.442-9.667c1.437-1.96 4.833-6.402 4.311-9.798z"/>
     <path id="svg_107" fill-rule="evenodd" d="m319.57 197.83s-8.621 6.793-9.274 11.627c-0.393 3.918-2.875 13.194-1.829 16.589 0 0 2.351-9.012 3.788-12.149 2.481-4.832 7.315-16.067 7.315-16.067z"/>
     <path id="svg_108" d="m358.89 207.1s-7.318 9.669-8.363 16.07" fill-rule="evenodd" stroke-miterlimit="2.414"/>
     <path id="svg_109" d="m356.41 220.69s-2.483 4.835-3.398 13.589" fill-rule="evenodd" stroke-miterlimit="2.414"/>
     <path id="svg_110" d="m386.06 180.84s-2.874 3.396-3.396 6.793c-0.52301 3.396-0.52301 11.104-0.52301 11.104" fill-rule="evenodd" stroke-miterlimit="2.414"/>
     <path id="svg_111" d="m399.65 165.69s-2.874 6.793-2.874 8.359v6.793" fill-rule="evenodd" stroke-miterlimit="2.414"/>
     <path id="svg_112" d="m397.69 157.46s-2.874 9.276-4.832 12.149" fill-rule="evenodd" stroke-miterlimit="2.414"/>
     <path id="svg_113" d="m369.6 262.36s1.437 7.317 1.437 13.587" fill-rule="evenodd" stroke-miterlimit="2.414"/>
     <path id="svg_114" d="m373.39 252.17s-1.437 9.667-0.39401 12.148" fill-rule="evenodd" stroke-miterlimit="2.414"/>
     <path id="svg_115" d="m354.97 267.19s-0.521 14.109-1.959 18.029" fill-rule="evenodd" stroke-miterlimit="2.414"/>
     <path id="svg_116" d="m356.41 261.45s0.91199 7.706 0.91199 11.104" fill-rule="evenodd" stroke-miterlimit="2.414"/>
     <path id="svg_117" d="m322.05 281.83s-3.004 7.839-3.004 10.712" fill-rule="evenodd" stroke-miterlimit="2.414"/>
     <path id="svg_118" d="m321.01 276.47s-4.312 5.356-3.79 8.23" fill-rule="evenodd" stroke-miterlimit="2.414"/>
     <path id="svg_119" d="m245.63 254.13s-1.438 9.665 0.52101 15.545" fill-rule="evenodd" stroke-miterlimit="2.414"/>
     <path id="svg_120" d="m249.55 246.29s-0.91399 8.754 0 13.194" fill-rule="evenodd" stroke-miterlimit="2.414"/>
     <path id="svg_121" d="m178.09 258.44s-1.044 7.315-3.005 11.757" fill-rule="evenodd" stroke-miterlimit="2.414"/>
     <path id="svg_122" d="m176.52 249.3s-0.392 7.706-1.829 12.541" fill-rule="evenodd" stroke-miterlimit="2.414"/>
     <path id="svg_123" d="m446.81 144.79s1.046 7.839 0.52301 13.717c-0.52301 5.75 1.044 10.189 1.044 10.189" fill-rule="evenodd" stroke-miterlimit="2.414"/>
     <path id="svg_124" d="m448.77 131.2s2.481 11.233 2.481 16.589" fill-rule="evenodd" stroke-miterlimit="2.414"/>
     <path id="svg_125" d="m445.37 119.58s-0.91501 8.23 0 11.106" fill-rule="evenodd" stroke-miterlimit="2.414"/>
     <path id="svg_126" d="m412.84 104.42s-6.4 10.322-7.315 13.718" fill-rule="evenodd" stroke-miterlimit="2.414"/>
     <path id="svg_127" d="m418.2 101.55s-4.442 5.878-5.88 8.752" fill-rule="evenodd" stroke-miterlimit="2.414"/>
     <path id="svg_128" stroke-miterlimit="2.414" d="m418.59 92.793l-3.788 4.834"/>
     <path id="svg_129" d="m404.61 124.93s-1.567 6.271-1.958 8.752c-0.52399 2.352-0.52399 7.708-1.568 9.145" fill-rule="evenodd" stroke-miterlimit="2.414"/>
     <path id="svg_130" d="m411.4 117.1s-3.396 6.793-3.396 10.188" fill-rule="evenodd" stroke-miterlimit="2.414"/>
     <path id="svg_131" stroke-miterlimit="2.414" d="m452.69 161.9l0.915 7.185"/>
     <path id="svg_132" d="m455.17 139.43s1.436 4.441 0.91299 7.839" fill-rule="evenodd" stroke-miterlimit="2.414"/>
     <path id="svg_133" d="m450.2 108.34s-2.352 2.482-2.352 3.919" fill-rule="evenodd" stroke-miterlimit="2.414"/>
     <path id="svg_134" stroke-miterlimit="2.414" d="m451.25 178.36l0.915 6.793"/>
     <path id="svg_135" d="m450.2 193.91s1.567 4.441 3.005 5.878" fill-rule="evenodd" stroke-miterlimit="2.414"/>
     <path id="svg_136" stroke-miterlimit="2.414" d="m446.81 182.8l1.046 5.356"/>
     <path id="svg_137" d="m442.5 224.61s2.35 5.356 3.918 5.749" fill-rule="evenodd" stroke-miterlimit="2.414"/>
     <path id="svg_138" d="m405.53 247.34s0.52402 6.271 1.959 8.23c1.438 1.959 2.352 5.879 2.352 5.879" fill-rule="evenodd" stroke-miterlimit="2.414"/>
     <path id="svg_139" d="m408.4 238.98s0.52301 7.316 1.437 8.752" fill-rule="evenodd" stroke-miterlimit="2.414"/>
     <path id="svg_140" d="m175.48 282.35s-0.653 7.317-1.829 9.929c-1.176 2.611-1.437 5.094-1.437 5.094" fill-rule="evenodd" stroke-miterlimit="2.414"/>
     <path id="svg_141" d="m177.83 276.99s-0.26201 8.754-1.307 10.842" fill-rule="evenodd" stroke-miterlimit="2.414"/>
     <path id="svg_142" d="m224.99 256.48s0 4.44 0.78299 6.14c0.65302 1.697 1.437 6.27 2.22 7.054" fill-rule="evenodd" stroke-miterlimit="2.414"/>
     <path id="svg_143" d="m222.77 250.21s-0.393 7.315 0.261 10.188" fill-rule="evenodd" stroke-miterlimit="2.414"/>
     <path id="svg_144" d="m239.36 174.96s-2.874 1.961-7.969 6.142c-5.225 4.049-5.879 12.803-6.923 15.808" fill-rule="evenodd" stroke-miterlimit="2.414"/>
     <path id="svg_145" d="m249.28 176.01s-2.874 4.05-5.095 5.096c-2.221 0.91499-4.312 3.397-6.008 6.009-1.699 2.743-2.745 9.012-3.919 10.711" fill-rule="evenodd" stroke-miterlimit="2.414"/>
     <path id="svg_146" d="m270.97 179.15s-3.919 0.651-6.532 1.437c-2.743 0.651-6.401 2.612-7.838 4.833s-2.352 3.397-2.352 3.397" fill-rule="evenodd" stroke-miterlimit="2.414"/>
     <path id="svg_147" d="m296.05 176.4s-8.622 2.481-12.149 4.182c-3.657 1.697-5.877 3.656-7.313 3.919-1.438 0.26-3.659 2.088-5.096 3.787" fill-rule="evenodd" stroke-miterlimit="2.414"/>
     <path id="svg_148" d="m305.2 182.8s-5.356 1.177-7.447 1.701c-2.22 0.39101-4.702 0.39101-7.576 2.35" fill-rule="evenodd" stroke-miterlimit="2.414"/>
     <path id="svg_149" d="m318.91 192.73s-1.697 1.699-2.219 2.614c-0.52399 1.044-0.784 2.481-3.658 4.702-2.874 2.223-3.397 7.448-4.182 10.973" fill-rule="evenodd" stroke-miterlimit="2.414"/>
     <path id="svg_150" d="m320.09 187.12s-1.959 2.219-4.18 3.917c-2.222 1.699-4.05 1.175-7.317 4.313-3.135 3.265-4.31 6.925-5.354 8.621-0.91501 1.697-3.397 4.311-3.397 4.311" fill-rule="evenodd" stroke-miterlimit="2.414"/>
     <path id="svg_151" d="m308.2 191.03s-7.055 2.483-10.452 6.793c-3.395 4.444-4.702 6.531-4.702 6.531" fill-rule="evenodd" stroke-miterlimit="2.414"/>
     <path id="svg_152" d="m317.61 186.2s-3.397 2.614-4.312 3.658" fill-rule="evenodd" stroke-miterlimit="2.414"/>
     <path id="svg_153" d="m332.76 186.2s-3.396 1.437-5.617 2.352c-3.396 1.437-6.139 3.917-6.139 3.917" fill-rule="evenodd" stroke-miterlimit="2.414"/>
     <path id="svg_154" d="m340.86 188.29s-2.222 2.221-4.835 3.005c-2.613 0.653-6.009 2.221-6.923 2.874" fill-rule="evenodd" stroke-miterlimit="2.414"/>
     <path id="svg_155" d="m222.37 171.05s-6.139 0.26-9.275 1.957c-3.266 1.699-10.059 8.23-11.626 11.235" fill-rule="evenodd" stroke-miterlimit="2.414"/>
     <path id="svg_156" d="m240.27 171.57s-11.235 1.437-14.109 3.135c-2.875 1.699-7.578 6.14-8.492 7.839-0.914 1.697-2.483 3.658-2.483 3.658" fill-rule="evenodd" stroke-miterlimit="2.414"/>
     <path id="svg_157" d="m208.14 169.87s-2.353 0.91299-3.396 1.959c-0.91499 0.91499-2.874 2.352-4.05 2.874-1.307 0.524-7.316 5.094-8.1 7.055" fill-rule="evenodd" stroke-miterlimit="2.414"/>
     <path id="svg_158" d="m194.03 177.45s-3.396 1.437-5.226 4.575c-1.959 3.134-3.266 6.269-3.266 6.269" fill-rule="evenodd" stroke-miterlimit="2.414"/>
     <path id="svg_159" d="m213.62 183.2s-4.18 4.702-5.879 8.752c-1.698 4.18-1.698 6.402-1.698 6.402" fill-rule="evenodd" stroke-miterlimit="2.414"/>
     <path id="svg_160" d="m256.86 180.06s-6.14 4.834-7.316 7.837c-1.175 2.874-3.918 9.145-4.05 12.15-0.261 2.874-0.261 4.834-0.261 4.834" fill-rule="evenodd" stroke-miterlimit="2.414"/>
     <path id="svg_161" d="m245.5 193.64s-3.658 4.181-4.44 6.793c-0.784 2.745-1.699 8.1-1.699 8.1" fill-rule="evenodd" stroke-miterlimit="2.414"/>
     <path id="svg_162" d="m287.43 186.46s-3.528 2.614-5.225 6.271c-1.699 3.658-3.005 4.311-3.919 5.878-1.044 1.438-2.482 7.054-2.744 8.49" fill-rule="evenodd" stroke-miterlimit="2.414"/>
     <path id="svg_163" d="m211.53 202.27s-3.396 7.184-3.789 10.582" fill-rule="evenodd" stroke-miterlimit="2.414"/>
     <path id="svg_164" d="m184.36 180.84s-3.92 2.874-4.834 7.315c-1.045 4.311-1.96 10.191-3.397 12.543-1.437 2.48-4.834 10.71-4.834 10.71" fill-rule="evenodd" stroke-miterlimit="2.414"/>
     <path id="svg_165" d="m183.84 174.7s-5.486 4.704-6.009 6.793c-0.52301 2.221-1.96 6.4-1.96 7.837s-0.784 3.92-0.784 3.92" fill-rule="evenodd" stroke-miterlimit="2.414"/>
     <path id="svg_166" d="m264.83 195.21s-3.135 4.313-3.79 7.187c-0.78299 3.005-1.567 5.356-1.958 6.662-0.52298 1.177-0.52298 6.793-0.52298 6.793" fill-rule="evenodd" stroke-miterlimit="2.414"/>
     <path id="svg_167" d="m257.65 208.54s-1.829 5.356-2.22 7.316c-1.045 3.92-1.176 3.92-1.176 3.92" fill-rule="evenodd" stroke-miterlimit="2.414"/>
     <path id="svg_168" d="m291.35 196.65s-1.829 3.265-3.397 5.748c-2.351 3.919-1.437 6.793-2.351 8.752-0.784 1.569-2.743 6.793-2.743 6.793" fill-rule="evenodd" stroke-miterlimit="2.414"/>
     <path id="svg_169" d="m285.08 202.92s-2.743 4.834-2.22 6.533" fill-rule="evenodd" stroke-miterlimit="2.414"/>
     <path id="svg_170" d="m186.84 199.26s-2.481 4.444-3.004 6.796c-0.393 2.479-3.397 6.398-2.874 8.359" fill-rule="evenodd" stroke-miterlimit="2.414"/>
     <path id="svg_171" d="m289.91 171.05s-9.013 1.957-11.886 4.18" fill-rule="evenodd" stroke-miterlimit="2.414"/>
     <path id="svg_172" d="m278.94 168.96s-2.351 0.39101-4.573 1.175c-2.744 0.91701-5.095 0.653-6.531 1.699" fill-rule="evenodd" stroke-miterlimit="2.414"/>
     <path id="svg_173" d="m317.35 177.84s-6.532 2.221-7.969 4.704" fill-rule="evenodd" stroke-miterlimit="2.414"/>
     <path id="svg_174" d="m308.86 177.71s-6.792-0.26199-11.625 1.699" fill-rule="evenodd" stroke-miterlimit="2.414"/>
     <path id="svg_175" d="m340.08 179.41s-2.741 0-6.922 2.614" fill-rule="evenodd" stroke-miterlimit="2.414"/>
     <path id="svg_176" d="m332.5 177.19s-3.396-0.261-8.753 2.874" fill-rule="evenodd" stroke-miterlimit="2.414"/>
     <path id="svg_177" d="m315 173.53s-10.975-1.697-16.069 0" fill-rule="evenodd" stroke-miterlimit="2.414"/>
     <path id="svg_178" d="m250.98 163.99s-11.889 0.78601-19.857 3.267" fill-rule="evenodd" stroke-miterlimit="2.414"/>
     <path id="svg_179" d="m232.83 163.99s-6.663-0.651-15.416 1.701" fill-rule="evenodd" stroke-miterlimit="2.414"/>
     <path id="svg_180" d="m260.26 166.74s-9.274 0.26201-12.411 2.221" fill-rule="evenodd" stroke-miterlimit="2.414"/>
     <path id="svg_181" d="m245.89 161.64s-8.229-0.52399-11.626 0.26102" fill-rule="evenodd" stroke-miterlimit="2.414"/>
     <path id="svg_182" d="m325.71 174.18s-6.401 0.522-9.538 1.568" fill-rule="evenodd" stroke-miterlimit="2.414"/>
     <path id="svg_183" d="m355.1 307.95s-1.568 1.568-2.221 5.488l-1.048 5.356-1.044-2.352s-1.306 5.094-1.568 6.009c-0.26099 0.78601-2.089 7.185-2.742 8.23" fill-rule="evenodd" stroke-miterlimit="2.414"/>
     <path id="svg_184" d="m311.08 310.44s0.914-2.221 1.307-2.743c0.39102-0.39099 1.567-3.005 1.567-3.005" fill-rule="evenodd" stroke-miterlimit="2.414"/>
     <path id="svg_185" d="m190.24 315.27s2.482-4.963 2.743-5.75c0.26199-0.651 2.613-3.524 2.613-3.524l-0.261 1.306s2.09-1.306 2.351-1.7c0.39401-0.392 2.483-2.219 3.397-2.35 0.785-0.129 3.659-2.352 3.659-2.352l-0.653 1.959s2.743-1.959 3.004-4.18c0.392-2.09 2.352-6.139 2.352-6.139l0.131 2.743s2.22-3.266 2.352-4.574c0.261-1.306 1.175-4.049 2.221-5.093l0.391 3.787s0.261-3.527 0.65199-4.702c0.52301-1.046 1.307-4.834 1.569-5.878 0.13-1.175-0.26199-4.573-0.26199-4.573l1.176 1.697s-0.523-5.224-1.959-7.837c-1.306-2.611-1.567-5.354-1.567-5.354" fill-rule="evenodd" stroke-miterlimit="2.414"/>
     <path id="svg_186" d="m234.26 289.67s-2.744-0.78601-4.833-1.96c-2.222-1.308-3.92-2.482-3.92-2.482l0.654 2.22s-1.176-0.521-2.091-1.306c-1.045-0.65302-2.743-2.614-2.743-2.614l-0.393 1.438-1.567-1.438-1.176 2.223-1.699-3.397" fill-rule="evenodd" stroke-miterlimit="2.414"/>
     <path id="svg_187" fill-rule="evenodd" d="m505.59 100.76c0.263 0.131-1.177-0.262-1.437-1.306-0.39401-1.175-0.65201-2.481-1.176-3.004-0.65201-0.522-2.874-1.829-3.658-1.438-0.65399 0.26-0.263 0.131 0.13101 0.524 0.65302 0.651 3.136 0.914 3.267 1.437 0.26099 0.391 0.91501 1.568 0.91501 1.568s-0.000031 2.088 1.958 2.219z"/>
     <path id="svg_188" fill-rule="evenodd" d="m504.94 110.95l-0.394-0.131s-0.91199 0.26-2.089 0.13099c-0.91501-0.13099-1.438 0-3.005-1.177-1.698-1.306-4.573-3.789-5.226-3.789-0.65302-0.26 0 0.26 0.13101 0.393 0.13101 0.12999 0.65302 0.39101 0.65302 0.39101s1.828 1.046 2.089 1.308c0.263 0.39101 2.353 2.48 4.052 3.264 0 0 1.306 0.52401 2.352 0.52401 1.174-0.131 1.304-0.786 1.304-0.786l0.133-0.128z"/>
     <path id="svg_189" d="m469.67 80.124s-1.567-1.437-3.92-0.39201c-2.482 1.044-3.136 2.743-4.051 3.134-0.91299 0.262-1.305 1.046-1.043 1.177" fill-rule="evenodd" stroke-miterlimit="2.414"/>
     <path id="svg_190" d="m460.66 84.303s-0.26199 0-0.392 0.391c0 0.394 0.65201 1.96 1.567 2.613" fill-rule="evenodd" stroke-miterlimit="2.414"/>
     <path id="svg_191" stroke-miterlimit="2.414" d="m472.54 85.349l-0.916-0.131"/>
     <path id="svg_192" d="m460.53 84.043s-1.177-0.262-1.177 0.129" fill-rule="evenodd" stroke-miterlimit="2.414"/>
     <path id="svg_193" d="m492.92 105.47c0.26099-0.26 0.91501 0.391 0.91501 0.391s-0.65399-0.129-0.78601 0.131" fill-rule="evenodd" stroke-miterlimit="2.414"/>
     <path id="svg_194" d="m491.75 104.55s-0.65302-0.522-1.045-1.306c-0.39099-0.653-1.046-1.177-1.698-1.437-0.65302-0.131-3.526-0.392-3.788-0.653" fill-rule="evenodd" stroke-miterlimit="2.414"/>
     <path id="svg_195" d="m483 91.62s-2.874-1.046-4.835-0.264c-1.697 0.655-4.18 0.786-4.702 0.786" fill-rule="evenodd" stroke-miterlimit="2.414"/>
     <path id="svg_196" fill-rule="evenodd" d="m495.67 91.096s-4.701-3.396-6.01-3.789c-1.306-0.391-5.616-2.613-5.094-2.09 0.521 0.653 0.65302 1.177 1.437 1.568 0.91501 0.522 5.879 2.614 6.4 3.134 0.65302 0.65501 0.785 1.57 1.177 1.045 0.39102-0.521 2.09 0.132 2.09 0.132z"/>
     <path id="svg_197" fill-rule="evenodd" d="m460.26 55.955s-5.095 6.663-4.965 7.97c0.13101 1.175-0.522 2.09-0.522 2.09l0.784-0.393s-1.699 1.7-1.959 3.006c-0.133 1.306-0.91501 1.959-1.046 2.481-0.13199 0.653-0.393 1.306-0.393 1.306s-0.392-1.177-0.26099-1.959c0.26099-0.915 1.699-3.528 1.699-3.528l-0.523-0.13 0.783-1.829s0.26001-1.306 0.91501-1.961c0.65302-0.651 2.614-3.917 2.614-3.917h-0.52399s0.65201-1.308 1.437-1.83c0.65295-0.391 1.961-1.306 1.961-1.306z"/>
     <path id="svg_198" fill-rule="evenodd" d="m336.81 414.42s0.65201 1.698-0.52399 2.352c-1.306 0.784-1.566 0.522-2.088 0.13199-0.52399-0.39401-1.046-1.047-1.177-1.83-0.26196-0.65302-0.65399-4.049-1.307-4.833-0.65399-0.784-0.65399-2.875-0.65399-1.699-0.13098 1.176-0.39099 1.567-0.26001 3.005 0.12903 1.437-0.13098 2.743 0.52203 3.397 0.78299 0.78201 1.437 2.089 1.437 3.134 0 0.91501-5.096 2.224-6.401 1.177-1.175-1.177-2.481-0.914-3.396-2.744-0.784-1.83-1.044-2.612-0.65298-3.658 0.26196-0.914 0.13199-2.089-0.13101-3.004-0.393-0.784-1.96-3.397-1.96-4.704 0 0 0 2.221 0.393 3.397 0.52197 1.176 0.914 4.18 0.914 5.878 0 1.83-0.65201 3.657 0.52197 4.443 1.046 0.651 1.046 2.35 3.396 2.35 2.221-0.13101 9.015-0.13101 10.843-1.959 1.7-1.829 0.52399-4.834 0.52399-4.834z"/>
     <path id="svg_199" fill-rule="evenodd" d="m335.51 358.38s0.26102 2.352-0.39398 4.051c-0.521 1.568-1.306 3.265-1.827 3.656-0.52298 0.52301-1.83 3.791-2.223 5.097-0.26001 1.174-1.958 7.968-2.22 5.485-0.26196-2.35 0.78302-5.095 1.046-6.27 0.26001-1.175 0.521-3.526 0.13-2.611-0.393 0.78201-1.307 2.09-1.307 2.09s-0.26001-1.046 0.393-2.09c0.784-0.91501 1.958-3.658 0.784-2.614-1.046 0.91299-1.83 1.959-1.83 1.959s0.26202-1.566 0.914-2.352c0.52203-0.651 1.176-2.35 0.52203-1.959-0.52203 0.39099-1.306 1.308-1.306 1.308s-0.13098-1.308 0.52203-1.83c0.65298-0.65302 1.437-1.044 2.743-1.83 1.307-0.651 2.482-0.91299 2.745-1.697 0.39099-0.91501 1.697-3.005 1.697-3.005s-0.651 2.0909-0.38904 2.6119z"/>
     <path id="svg_200" fill-rule="evenodd" d="m174.82 329.9s0.91501 17.243 3.135 22.337c1.83 4.311 0.784 12.019 0.39299 9.407-0.523-2.745-2.222-6.663-2.483-9.798s-2.351-7.186-2.351-10.06c0-2.873-0.132-8.621-0.132-8.621s0.785-11.758 1.438-3.265z"/>
     <path id="svg_201" fill-rule="evenodd" d="m368.43 402.66c0-0.65302 2.222 0.522 3.265 1.568 0.91501 1.177 3.79 4.702 4.442 5.093 0.65198 0.52399 1.438 1.96 0.26099 2.482-1.305 0.52399-4.05-0.39099-4.703-0.39099-0.65198 0 0.263 1.568 0.784 2.352 0.521 0.65302 2.352 2.874 0 3.137-2.352 0.259-10.711-0.13199-12.541-1.309-1.83-1.175-3.267-4.311-3.397-5.354-0.12799-1.177-2.089-3.005-1.306-2.875 0.65298 0.26199 2.482 1.045 4.051 0.65399 1.307-0.393 4.704-1.174 6.662-2.744 1.177-1.044 1.437-0.13101 1.437-0.13101s1.045-1.569 1.045-2.482z"/>
     <path id="svg_202" fill-rule="evenodd" d="m336.68 417.69c0.39398-0.393 1.309 0.78201 2.091 2.09 0.784 1.175 3.004 5.226 3.397 5.878 0.521 0.65302 1.045 2.222-0.26199 2.352-1.306 0.263-3.788-1.176-4.441-1.176-0.52402-0.13199 0 1.569 0.26099 2.352 0.263 0.784 1.697 3.397-0.65198 3.137-2.221-0.26401-10.32-2.353-11.888-3.79-1.438-1.566-2.353-4.835-2.222-6.009 0.13101-1.045-1.438-3.396-0.784-3.005 0.784 0.39099 2.352 1.437 3.788 1.437 1.568 0 5.095-0.26001 7.187-1.437 1.437-0.784 1.437 0.26199 1.437 0.26199s1.436-1.5689 2.088-2.0909z"/>
     <path id="svg_203" fill-rule="evenodd" d="m357.06 408.28s0.65201 1.566 1.043 1.959c0.39398 0.26001 0.263 1.306 0.39398 1.697 0.13101 0.393 2.874 3.657 4.573 4.313 0 0-2.222-0.39401-2.745-0.655 0 0-1.435-0.521-3.135-4.048 0 0-0.392-1.568-0.52298-1.959-0.25903-0.26401-1.437-1.83-1.437-1.83l1.83 0.523z"/>
     <path id="svg_204" d="m368.43 402.66c0-0.65302 2.222 0.522 3.265 1.568 0.91501 1.177 3.79 4.702 4.442 5.093 0.65198 0.52399 1.438 1.96 0.26099 2.482-1.305 0.52399-4.05-0.39099-4.703-0.39099-0.65198 0 0.263 1.568 0.784 2.352 0.521 0.65302 2.352 2.874 0 3.137-2.352 0.259-10.711-0.13199-12.541-1.309-1.83-1.175-3.267-4.311-3.397-5.354-0.12799-1.177-2.089-3.005-1.306-2.875" fill-rule="evenodd" stroke-miterlimit="2.414"/>
     <path id="svg_205" fill-rule="evenodd" d="m367.64 405.41l3.788 6.007s0-0.26001 0.65198-0.13101c0 0 3.137 0.65302 3.922 0.393 0 0-0.914 0-1.438-0.393-0.39203-0.522-1.96-2.743-2.351-3.134-0.52399-0.393-3.135-3.788-4.181-3.788 0.002014 0.000031-0.12997 0.91302-0.392 1.046z"/>
     <path id="svg_206" fill-rule="evenodd" d="m323.75 420.69s0.522 1.697 0.78299 2.088c0.26202 0.39499 0 1.308 0.13101 1.831 0 0.392 1.96 4.049 3.527 5.095 0 0-2.222-0.784-2.481-1.177 0 0-1.438-0.784-2.482-4.703 0 0 0.13098-1.437-0.13098-1.959-0.13101-0.392-0.784-2.09-0.784-2.09l1.437 0.915z"/>
     <path id="svg_207" d="m337.2 417.82c0.52203 0.26001 1.177 1.175 1.567 1.959 0.784 1.175 3.004 5.226 3.397 5.878 0.521 0.65302 1.045 2.222-0.26199 2.352-1.306 0.263-3.788-1.176-4.441-1.176-0.52402-0.13199 0 1.569 0.26099 2.352 0.263 0.784 1.697 3.397-0.65198 3.137-2.221-0.26401-10.32-2.353-11.888-3.79-1.438-1.566-2.353-4.835-2.222-6.009 0.13101-1.045-1.438-3.396-0.784-3.005" fill-rule="evenodd" stroke-miterlimit="2.414"/>
     <path id="svg_208" fill-rule="evenodd" d="m337.2 426.83s-2.351-6.4-2.481-6.925c0 0 0.91299-1.042 1.306-1.306 0.522-0.392 1.176 1.961 1.567 2.875 0.91498 1.828 4.312 6.531 3.006 6.27 0 0-1.699-0.521-2.612-0.914-0.000977 0-0.65497-0.392-0.78601 0z"/>
     <path id="svg_209" fill-rule="evenodd" d="m205.65 402.27c0.392-0.39099 1.438 0.784 2.222 1.961 0.914 1.306 3.134 5.226 3.657 5.748 0.522 0.65302 1.176 2.221-0.13101 2.482-1.176 0.26001-3.919-1.046-4.441-1.177-0.65401 0 0 1.699 0.392 2.482 0.26201 0.785 1.698 3.266-0.523 3.137-2.352-0.13199-10.582-1.83-12.148-3.267-1.699-1.568-2.613-4.833-2.613-5.879 0.12999-1.043-1.568-3.266-0.784-3.004 0.653 0.39099 2.351 1.437 3.789 1.306 1.567-0.13101 4.963-0.39099 7.054-1.696 1.437-0.91501 1.437 0.129 1.437 0.129s1.566-1.567 2.089-2.222z"/>
     <path id="svg_210" fill-rule="evenodd" d="m192.85 405.93s0.523 1.568 0.784 1.959c0.392 0.39499 0.13199 1.437 0.13199 1.831 0 0.39099 2.22 4.049 3.917 4.962 0 0-2.22-0.78201-2.743-1.044 0 0-1.307-0.785-2.481-4.573 0 0 0-1.568-0.26201-1.958-0.12999-0.39099-0.91399-2.092-0.91399-2.092l1.567 0.915z"/>
     <path id="svg_211" d="m206.31 402.4c0.522 0.393 1.045 1.046 1.569 1.83 0.914 1.306 3.134 5.226 3.657 5.748 0.522 0.65302 1.176 2.221-0.131 2.482-1.176 0.26001-3.919-1.046-4.441-1.177-0.65399 0 0 1.699 0.39201 2.482 0.26199 0.785 1.698 3.266-0.52301 3.137-2.352-0.13199-10.582-1.83-12.148-3.267-1.699-1.568-2.613-4.833-2.613-5.879 0.13-1.043-1.568-3.266-0.784-3.004" fill-rule="evenodd" stroke-miterlimit="2.414"/>
     <path id="svg_212" fill-rule="evenodd" d="m206.57 411.29s-2.743-6.14-2.875-6.663c0 0 1.046-1.174 1.437-1.437 0.52301-0.39099 1.307 1.959 1.699 2.743 0.91499 1.959 4.573 6.402 3.267 6.271 0 0-1.83-0.393-2.614-0.91501 0 0.001007-0.653-0.259-0.914 0.001007z"/>
     <path id="svg_213" d="m448.38 86.526s-3.265 5.354-2.481 9.665" fill-rule="evenodd" stroke-miterlimit="2.414"/>
     <path id="svg_214" d="m504.94 111.08l-0.524-0.26s-1.436 0.521-2.742 0.13099c-1.176-0.26199-2.352-1.046-3.658-2.092 0 0-3.136-2.874-3.788-2.874" fill-rule="evenodd" stroke-miterlimit="2.414"/>
     <path id="svg_215" d="m505.33 100.63s-1.044-0.26-1.306-0.913c-0.263-0.655-0.521-2.352-0.91501-2.743-0.26199-0.26398-2.221-1.961-3.397-1.961l-0.391 0.26" fill-rule="evenodd" stroke-miterlimit="2.414"/>
    </g>
   </g>
  </g>
 </switch>
</svg>
