<?xml version="1.0" encoding="UTF-8" standalone="no"?>
<!DOCTYPE svg PUBLIC "-//W3C//DTD SVG 1.0//EN" "http://www.w3.org/TR/2001/PR-SVG-20010719/DTD/svg10.dtd">
<svg width="40cm" height="15cm" viewBox="158 121 792 295" xmlns="http://www.w3.org/2000/svg" xmlns:xlink="http://www.w3.org/1999/xlink">
  <g>
    <ellipse style="fill: #ffa500" cx="320" cy="217.316" rx="20" ry="17.3162"/>
    <ellipse style="fill: none; fill-opacity:0; stroke-width: 2; stroke: #000000" cx="320" cy="217.316" rx="20" ry="17.3162"/>
    <text font-size="12.8" style="fill: #000000;text-anchor:middle;font-family:sans-serif;font-style:normal;font-weight:normal" x="320" y="221.216">
      <tspan x="320" y="221.216"></tspan>
    </text>
  </g>
  <g>
    <line style="fill: none; fill-opacity:0; stroke-width: 3; stroke: #000000" x1="460.742" y1="164.538" x2="349.421" y2="206.283"/>
    <polygon style="fill: #000000" points="342.398,208.917 350.006,200.724 349.421,206.283 353.517,210.087 "/>
    <polygon style="fill: none; fill-opacity:0; stroke-width: 3; stroke: #000000" points="342.398,208.917 350.006,200.724 349.421,206.283 353.517,210.087 "/>
  </g>
  <g>
    <line style="fill: none; fill-opacity:0; stroke-width: 3; stroke: #000000" x1="335.908" y1="229.247" x2="375.409" y2="258.873"/>
    <polygon style="fill: #000000" points="381.409,263.373 370.409,261.373 375.409,258.873 376.409,253.373 "/>
    <polygon style="fill: none; fill-opacity:0; stroke-width: 3; stroke: #000000" points="381.409,263.373 370.409,261.373 375.409,258.873 376.409,253.373 "/>
  </g>
  <g>
    <line style="fill: none; fill-opacity:0; stroke-width: 3; stroke: #000000" x1="250.552" y1="293.144" x2="263.427" y2="312.457"/>
    <polygon style="fill: #000000" points="267.588,318.698 257.88,313.151 263.427,312.457 266.201,307.604 "/>
    <polygon style="fill: none; fill-opacity:0; stroke-width: 3; stroke: #000000" points="267.588,318.698 257.88,313.151 263.427,312.457 266.201,307.604 "/>
  </g>
  <g>
    <ellipse style="fill: #90ee90" cx="240" cy="277.316" rx="20" ry="17.3162"/>
    <ellipse style="fill: none; fill-opacity:0; stroke-width: 2; stroke: #000000" cx="240" cy="277.316" rx="20" ry="17.3162"/>
    <text font-size="12.8" style="fill: #000000;text-anchor:middle;font-family:sans-serif;font-style:normal;font-weight:normal" x="240" y="281.216">
      <tspan x="240" y="281.216"></tspan>
    </text>
  </g>
  <g>
    <line style="fill: none; fill-opacity:0; stroke-width: 3; stroke: #000000" x1="304.092" y1="229.247" x2="264.591" y2="258.873"/>
    <polygon style="fill: #000000" points="258.591,263.373 263.591,253.373 264.591,258.873 269.591,261.373 "/>
    <polygon style="fill: none; fill-opacity:0; stroke-width: 3; stroke: #000000" points="258.591,263.373 263.591,253.373 264.591,258.873 269.591,261.373 "/>
  </g>
  <g>
    <ellipse style="fill: #1e90ff" cx="200" cy="337.316" rx="20" ry="17.3162"/>
    <ellipse style="fill: none; fill-opacity:0; stroke-width: 2; stroke: #000000" cx="200" cy="337.316" rx="20" ry="17.3162"/>
    <text font-size="12.8" style="fill: #000000;text-anchor:middle;font-family:sans-serif;font-style:normal;font-weight:normal" x="200" y="341.216">
      <tspan x="200" y="341.216"></tspan>
    </text>
  </g>
  <g>
    <ellipse style="fill: #bfbfbf" cx="180" cy="397.316" rx="20" ry="17.3162"/>
    <ellipse style="fill: none; fill-opacity:0; stroke-width: 2; stroke: #000000" cx="180" cy="397.316" rx="20" ry="17.3162"/>
    <text font-size="12.8" style="fill: #000000;text-anchor:middle;font-family:sans-serif;font-style:normal;font-weight:normal" x="180" y="401.216">
      <tspan x="180" y="401.216"></tspan>
    </text>
  </g>
  <g>
    <line style="fill: none; fill-opacity:0; stroke-width: 3; stroke: #000000" x1="229.448" y1="293.144" x2="216.573" y2="312.457"/>
    <polygon style="fill: #000000" points="212.412,318.698 213.799,307.604 216.573,312.457 222.12,313.151 "/>
    <polygon style="fill: none; fill-opacity:0; stroke-width: 3; stroke: #000000" points="212.412,318.698 213.799,307.604 216.573,312.457 222.12,313.151 "/>
  </g>
  <g>
    <line style="fill: none; fill-opacity:0; stroke-width: 3; stroke: #000000" x1="194.138" y1="354.902" x2="189.294" y2="369.434"/>
    <polygon style="fill: #000000" points="186.922,376.549 185.341,365.481 189.294,369.434 194.828,368.643 "/>
    <polygon style="fill: none; fill-opacity:0; stroke-width: 3; stroke: #000000" points="186.922,376.549 185.341,365.481 189.294,369.434 194.828,368.643 "/>
  </g>
  <g>
    <line style="fill: none; fill-opacity:0; stroke-width: 3; stroke: #000000" x1="200" y1="355.634" x2="200" y2="368.144"/>
    <polygon style="fill: #000000" points="200,375.644 195,365.644 200,368.144 205,365.644 "/>
    <polygon style="fill: none; fill-opacity:0; stroke-width: 3; stroke: #000000" points="200,375.644 195,365.644 200,368.144 205,365.644 "/>
  </g>
  <g>
    <line style="fill: none; fill-opacity:0; stroke-width: 3; stroke: #000000" x1="205.862" y1="354.902" x2="210.706" y2="369.434"/>
    <polygon style="fill: #000000" points="213.078,376.549 205.172,368.643 210.706,369.434 214.659,365.481 "/>
    <polygon style="fill: none; fill-opacity:0; stroke-width: 3; stroke: #000000" points="213.078,376.549 205.172,368.643 210.706,369.434 214.659,365.481 "/>
  </g>
  <g>
    <line style="fill: none; fill-opacity:0; stroke-width: 3; stroke: #000000" x1="499.258" y1="164.538" x2="610.579" y2="206.283"/>
    <polygon style="fill: #000000" points="617.602,208.917 606.483,210.087 610.579,206.283 609.994,200.724 "/>
    <polygon style="fill: none; fill-opacity:0; stroke-width: 3; stroke: #000000" points="617.602,208.917 606.483,210.087 610.579,206.283 609.994,200.724 "/>
  </g>
  <g>
    <ellipse style="fill: #90ee90" cx="480" cy="157.316" rx="20" ry="17.3162"/>
    <ellipse style="fill: none; fill-opacity:0; stroke-width: 2; stroke: #000000" cx="480" cy="157.316" rx="20" ry="17.3162"/>
    <text font-size="12.8" style="fill: #000000;text-anchor:middle;font-family:sans-serif;font-style:normal;font-weight:normal" x="480" y="161.216">
      <tspan x="480" y="161.216"></tspan>
    </text>
  </g>
  <g>
    <ellipse style="fill: #bfbfbf" cx="200" cy="397.316" rx="20" ry="17.3162"/>
    <ellipse style="fill: none; fill-opacity:0; stroke-width: 2; stroke: #000000" cx="200" cy="397.316" rx="20" ry="17.3162"/>
    <text font-size="12.8" style="fill: #000000;text-anchor:middle;font-family:sans-serif;font-style:normal;font-weight:normal" x="200" y="401.216">
      <tspan x="200" y="401.216"></tspan>
    </text>
  </g>
  <g>
    <ellipse style="fill: #bfbfbf" cx="220" cy="397.316" rx="20" ry="17.3162"/>
    <ellipse style="fill: none; fill-opacity:0; stroke-width: 2; stroke: #000000" cx="220" cy="397.316" rx="20" ry="17.3162"/>
    <text font-size="12.8" style="fill: #000000;text-anchor:middle;font-family:sans-serif;font-style:normal;font-weight:normal" x="220" y="401.216">
      <tspan x="220" y="401.216"></tspan>
    </text>
  </g>
  <g>
    <ellipse style="fill: #1e90ff" cx="280" cy="337.316" rx="20" ry="17.3162"/>
    <ellipse style="fill: none; fill-opacity:0; stroke-width: 2; stroke: #000000" cx="280" cy="337.316" rx="20" ry="17.3162"/>
    <text font-size="12.8" style="fill: #000000;text-anchor:middle;font-family:sans-serif;font-style:normal;font-weight:normal" x="280" y="341.216">
      <tspan x="280" y="341.216"></tspan>
    </text>
  </g>
  <g>
    <ellipse style="fill: #bfbfbf" cx="260" cy="397.316" rx="20" ry="17.3162"/>
    <ellipse style="fill: none; fill-opacity:0; stroke-width: 2; stroke: #000000" cx="260" cy="397.316" rx="20" ry="17.3162"/>
    <text font-size="12.8" style="fill: #000000;text-anchor:middle;font-family:sans-serif;font-style:normal;font-weight:normal" x="260" y="401.216">
      <tspan x="260" y="401.216"></tspan>
    </text>
  </g>
  <g>
    <line style="fill: none; fill-opacity:0; stroke-width: 3; stroke: #000000" x1="274.138" y1="354.902" x2="269.294" y2="369.434"/>
    <polygon style="fill: #000000" points="266.922,376.549 265.341,365.481 269.294,369.434 274.828,368.643 "/>
    <polygon style="fill: none; fill-opacity:0; stroke-width: 3; stroke: #000000" points="266.922,376.549 265.341,365.481 269.294,369.434 274.828,368.643 "/>
  </g>
  <g>
    <line style="fill: none; fill-opacity:0; stroke-width: 3; stroke: #000000" x1="280" y1="355.634" x2="280" y2="368.144"/>
    <polygon style="fill: #000000" points="280,375.644 275,365.644 280,368.144 285,365.644 "/>
    <polygon style="fill: none; fill-opacity:0; stroke-width: 3; stroke: #000000" points="280,375.644 275,365.644 280,368.144 285,365.644 "/>
  </g>
  <g>
    <line style="fill: none; fill-opacity:0; stroke-width: 3; stroke: #000000" x1="285.862" y1="354.902" x2="290.706" y2="369.434"/>
    <polygon style="fill: #000000" points="293.078,376.549 285.172,368.643 290.706,369.434 294.659,365.481 "/>
    <polygon style="fill: none; fill-opacity:0; stroke-width: 3; stroke: #000000" points="293.078,376.549 285.172,368.643 290.706,369.434 294.659,365.481 "/>
  </g>
  <g>
    <ellipse style="fill: #bfbfbf" cx="280" cy="397.316" rx="20" ry="17.3162"/>
    <ellipse style="fill: none; fill-opacity:0; stroke-width: 2; stroke: #000000" cx="280" cy="397.316" rx="20" ry="17.3162"/>
    <text font-size="12.8" style="fill: #000000;text-anchor:middle;font-family:sans-serif;font-style:normal;font-weight:normal" x="280" y="401.216">
      <tspan x="280" y="401.216"></tspan>
    </text>
  </g>
  <g>
    <ellipse style="fill: #bfbfbf" cx="300" cy="397.316" rx="20" ry="17.3162"/>
    <ellipse style="fill: none; fill-opacity:0; stroke-width: 2; stroke: #000000" cx="300" cy="397.316" rx="20" ry="17.3162"/>
    <text font-size="12.8" style="fill: #000000;text-anchor:middle;font-family:sans-serif;font-style:normal;font-weight:normal" x="300" y="401.216">
      <tspan x="300" y="401.216"></tspan>
    </text>
  </g>
  <g>
    <line style="fill: none; fill-opacity:0; stroke-width: 3; stroke: #000000" x1="410.552" y1="293.144" x2="423.427" y2="312.457"/>
    <polygon style="fill: #000000" points="427.588,318.698 417.88,313.151 423.427,312.457 426.201,307.604 "/>
    <polygon style="fill: none; fill-opacity:0; stroke-width: 3; stroke: #000000" points="427.588,318.698 417.88,313.151 423.427,312.457 426.201,307.604 "/>
  </g>
  <g>
    <ellipse style="fill: #90ee90" cx="400" cy="277.316" rx="20" ry="17.3162"/>
    <ellipse style="fill: none; fill-opacity:0; stroke-width: 2; stroke: #000000" cx="400" cy="277.316" rx="20" ry="17.3162"/>
    <text font-size="12.8" style="fill: #000000;text-anchor:middle;font-family:sans-serif;font-style:normal;font-weight:normal" x="400" y="281.216">
      <tspan x="400" y="281.216"></tspan>
    </text>
  </g>
  <g>
    <ellipse style="fill: #1e90ff" cx="360" cy="337.316" rx="20" ry="17.3162"/>
    <ellipse style="fill: none; fill-opacity:0; stroke-width: 2; stroke: #000000" cx="360" cy="337.316" rx="20" ry="17.3162"/>
    <text font-size="12.8" style="fill: #000000;text-anchor:middle;font-family:sans-serif;font-style:normal;font-weight:normal" x="360" y="341.216">
      <tspan x="360" y="341.216"></tspan>
    </text>
  </g>
  <g>
    <ellipse style="fill: #bfbfbf" cx="340" cy="397.316" rx="20" ry="17.3162"/>
    <ellipse style="fill: none; fill-opacity:0; stroke-width: 2; stroke: #000000" cx="340" cy="397.316" rx="20" ry="17.3162"/>
    <text font-size="12.8" style="fill: #000000;text-anchor:middle;font-family:sans-serif;font-style:normal;font-weight:normal" x="340" y="401.216">
      <tspan x="340" y="401.216"></tspan>
    </text>
  </g>
  <g>
    <line style="fill: none; fill-opacity:0; stroke-width: 3; stroke: #000000" x1="389.448" y1="293.144" x2="376.573" y2="312.457"/>
    <polygon style="fill: #000000" points="372.412,318.698 373.799,307.604 376.573,312.457 382.12,313.151 "/>
    <polygon style="fill: none; fill-opacity:0; stroke-width: 3; stroke: #000000" points="372.412,318.698 373.799,307.604 376.573,312.457 382.12,313.151 "/>
  </g>
  <g>
    <line style="fill: none; fill-opacity:0; stroke-width: 3; stroke: #000000" x1="354.138" y1="354.902" x2="349.294" y2="369.434"/>
    <polygon style="fill: #000000" points="346.922,376.549 345.341,365.481 349.294,369.434 354.828,368.643 "/>
    <polygon style="fill: none; fill-opacity:0; stroke-width: 3; stroke: #000000" points="346.922,376.549 345.341,365.481 349.294,369.434 354.828,368.643 "/>
  </g>
  <g>
    <line style="fill: none; fill-opacity:0; stroke-width: 3; stroke: #000000" x1="360" y1="355.634" x2="360" y2="368.144"/>
    <polygon style="fill: #000000" points="360,375.644 355,365.644 360,368.144 365,365.644 "/>
    <polygon style="fill: none; fill-opacity:0; stroke-width: 3; stroke: #000000" points="360,375.644 355,365.644 360,368.144 365,365.644 "/>
  </g>
  <g>
    <line style="fill: none; fill-opacity:0; stroke-width: 3; stroke: #000000" x1="365.862" y1="354.902" x2="370.706" y2="369.434"/>
    <polygon style="fill: #000000" points="373.078,376.549 365.172,368.643 370.706,369.434 374.659,365.481 "/>
    <polygon style="fill: none; fill-opacity:0; stroke-width: 3; stroke: #000000" points="373.078,376.549 365.172,368.643 370.706,369.434 374.659,365.481 "/>
  </g>
  <g>
    <ellipse style="fill: #bfbfbf" cx="360" cy="397.316" rx="20" ry="17.3162"/>
    <ellipse style="fill: none; fill-opacity:0; stroke-width: 2; stroke: #000000" cx="360" cy="397.316" rx="20" ry="17.3162"/>
    <text font-size="12.8" style="fill: #000000;text-anchor:middle;font-family:sans-serif;font-style:normal;font-weight:normal" x="360" y="401.216">
      <tspan x="360" y="401.216"></tspan>
    </text>
  </g>
  <g>
    <ellipse style="fill: #bfbfbf" cx="380" cy="397.316" rx="20" ry="17.3162"/>
    <ellipse style="fill: none; fill-opacity:0; stroke-width: 2; stroke: #000000" cx="380" cy="397.316" rx="20" ry="17.3162"/>
    <text font-size="12.8" style="fill: #000000;text-anchor:middle;font-family:sans-serif;font-style:normal;font-weight:normal" x="380" y="401.216">
      <tspan x="380" y="401.216"></tspan>
    </text>
  </g>
  <g>
    <ellipse style="fill: #1e90ff" cx="440" cy="337.316" rx="20" ry="17.3162"/>
    <ellipse style="fill: none; fill-opacity:0; stroke-width: 2; stroke: #000000" cx="440" cy="337.316" rx="20" ry="17.3162"/>
    <text font-size="12.8" style="fill: #000000;text-anchor:middle;font-family:sans-serif;font-style:normal;font-weight:normal" x="440" y="341.216">
      <tspan x="440" y="341.216"></tspan>
    </text>
  </g>
  <g>
    <ellipse style="fill: #bfbfbf" cx="420" cy="397.316" rx="20" ry="17.3162"/>
    <ellipse style="fill: none; fill-opacity:0; stroke-width: 2; stroke: #000000" cx="420" cy="397.316" rx="20" ry="17.3162"/>
    <text font-size="12.8" style="fill: #000000;text-anchor:middle;font-family:sans-serif;font-style:normal;font-weight:normal" x="420" y="401.216">
      <tspan x="420" y="401.216"></tspan>
    </text>
  </g>
  <g>
    <line style="fill: none; fill-opacity:0; stroke-width: 3; stroke: #000000" x1="434.138" y1="354.902" x2="429.294" y2="369.434"/>
    <polygon style="fill: #000000" points="426.922,376.549 425.341,365.481 429.294,369.434 434.828,368.643 "/>
    <polygon style="fill: none; fill-opacity:0; stroke-width: 3; stroke: #000000" points="426.922,376.549 425.341,365.481 429.294,369.434 434.828,368.643 "/>
  </g>
  <g>
    <line style="fill: none; fill-opacity:0; stroke-width: 3; stroke: #000000" x1="440" y1="355.634" x2="440" y2="368.144"/>
    <polygon style="fill: #000000" points="440,375.644 435,365.644 440,368.144 445,365.644 "/>
    <polygon style="fill: none; fill-opacity:0; stroke-width: 3; stroke: #000000" points="440,375.644 435,365.644 440,368.144 445,365.644 "/>
  </g>
  <g>
    <line style="fill: none; fill-opacity:0; stroke-width: 3; stroke: #000000" x1="445.862" y1="354.902" x2="450.706" y2="369.434"/>
    <polygon style="fill: #000000" points="453.078,376.549 445.172,368.643 450.706,369.434 454.659,365.481 "/>
    <polygon style="fill: none; fill-opacity:0; stroke-width: 3; stroke: #000000" points="453.078,376.549 445.172,368.643 450.706,369.434 454.659,365.481 "/>
  </g>
  <g>
    <ellipse style="fill: #bfbfbf" cx="440" cy="397.316" rx="20" ry="17.3162"/>
    <ellipse style="fill: none; fill-opacity:0; stroke-width: 2; stroke: #000000" cx="440" cy="397.316" rx="20" ry="17.3162"/>
    <text font-size="12.8" style="fill: #000000;text-anchor:middle;font-family:sans-serif;font-style:normal;font-weight:normal" x="440" y="401.216">
      <tspan x="440" y="401.216"></tspan>
    </text>
  </g>
  <g>
    <ellipse style="fill: #bfbfbf" cx="460" cy="397.316" rx="20" ry="17.3162"/>
    <ellipse style="fill: none; fill-opacity:0; stroke-width: 2; stroke: #000000" cx="460" cy="397.316" rx="20" ry="17.3162"/>
    <text font-size="12.8" style="fill: #000000;text-anchor:middle;font-family:sans-serif;font-style:normal;font-weight:normal" x="460" y="401.216">
      <tspan x="460" y="401.216"></tspan>
    </text>
  </g>
  <g>
    <ellipse style="fill: #ffa500" cx="640" cy="217.316" rx="20" ry="17.3162"/>
    <ellipse style="fill: none; fill-opacity:0; stroke-width: 2; stroke: #000000" cx="640" cy="217.316" rx="20" ry="17.3162"/>
    <text font-size="12.8" style="fill: #000000;text-anchor:middle;font-family:sans-serif;font-style:normal;font-weight:normal" x="640" y="221.216">
      <tspan x="640" y="221.216"></tspan>
    </text>
  </g>
  <g>
    <line style="fill: none; fill-opacity:0; stroke-width: 3; stroke: #000000" x1="655.908" y1="229.247" x2="695.409" y2="258.873"/>
    <polygon style="fill: #000000" points="701.409,263.373 690.409,261.373 695.409,258.873 696.409,253.373 "/>
    <polygon style="fill: none; fill-opacity:0; stroke-width: 3; stroke: #000000" points="701.409,263.373 690.409,261.373 695.409,258.873 696.409,253.373 "/>
  </g>
  <g>
    <line style="fill: none; fill-opacity:0; stroke-width: 3; stroke: #000000" x1="570.552" y1="293.144" x2="583.427" y2="312.457"/>
    <polygon style="fill: #000000" points="587.588,318.698 577.88,313.151 583.427,312.457 586.201,307.604 "/>
    <polygon style="fill: none; fill-opacity:0; stroke-width: 3; stroke: #000000" points="587.588,318.698 577.88,313.151 583.427,312.457 586.201,307.604 "/>
  </g>
  <g>
    <ellipse style="fill: #90ee90" cx="560" cy="277.316" rx="20" ry="17.3162"/>
    <ellipse style="fill: none; fill-opacity:0; stroke-width: 2; stroke: #000000" cx="560" cy="277.316" rx="20" ry="17.3162"/>
    <text font-size="12.8" style="fill: #000000;text-anchor:middle;font-family:sans-serif;font-style:normal;font-weight:normal" x="560" y="281.216">
      <tspan x="560" y="281.216"></tspan>
    </text>
  </g>
  <g>
    <line style="fill: none; fill-opacity:0; stroke-width: 3; stroke: #000000" x1="624.092" y1="229.247" x2="584.591" y2="258.873"/>
    <polygon style="fill: #000000" points="578.591,263.373 583.591,253.373 584.591,258.873 589.591,261.373 "/>
    <polygon style="fill: none; fill-opacity:0; stroke-width: 3; stroke: #000000" points="578.591,263.373 583.591,253.373 584.591,258.873 589.591,261.373 "/>
  </g>
  <g>
    <ellipse style="fill: #1e90ff" cx="520" cy="337.316" rx="20" ry="17.3162"/>
    <ellipse style="fill: none; fill-opacity:0; stroke-width: 2; stroke: #000000" cx="520" cy="337.316" rx="20" ry="17.3162"/>
    <text font-size="12.8" style="fill: #000000;text-anchor:middle;font-family:sans-serif;font-style:normal;font-weight:normal" x="520" y="341.216">
      <tspan x="520" y="341.216"></tspan>
    </text>
  </g>
  <g>
    <ellipse style="fill: #bfbfbf" cx="500" cy="397.316" rx="20" ry="17.3162"/>
    <ellipse style="fill: none; fill-opacity:0; stroke-width: 2; stroke: #000000" cx="500" cy="397.316" rx="20" ry="17.3162"/>
    <text font-size="12.8" style="fill: #000000;text-anchor:middle;font-family:sans-serif;font-style:normal;font-weight:normal" x="500" y="401.216">
      <tspan x="500" y="401.216"></tspan>
    </text>
  </g>
  <g>
    <line style="fill: none; fill-opacity:0; stroke-width: 3; stroke: #000000" x1="549.448" y1="293.144" x2="536.573" y2="312.457"/>
    <polygon style="fill: #000000" points="532.412,318.698 533.799,307.604 536.573,312.457 542.12,313.151 "/>
    <polygon style="fill: none; fill-opacity:0; stroke-width: 3; stroke: #000000" points="532.412,318.698 533.799,307.604 536.573,312.457 542.12,313.151 "/>
  </g>
  <g>
    <line style="fill: none; fill-opacity:0; stroke-width: 3; stroke: #000000" x1="514.138" y1="354.902" x2="509.294" y2="369.434"/>
    <polygon style="fill: #000000" points="506.922,376.549 505.341,365.481 509.294,369.434 514.828,368.643 "/>
    <polygon style="fill: none; fill-opacity:0; stroke-width: 3; stroke: #000000" points="506.922,376.549 505.341,365.481 509.294,369.434 514.828,368.643 "/>
  </g>
  <g>
    <line style="fill: none; fill-opacity:0; stroke-width: 3; stroke: #000000" x1="520" y1="355.634" x2="520" y2="368.144"/>
    <polygon style="fill: #000000" points="520,375.644 515,365.644 520,368.144 525,365.644 "/>
    <polygon style="fill: none; fill-opacity:0; stroke-width: 3; stroke: #000000" points="520,375.644 515,365.644 520,368.144 525,365.644 "/>
  </g>
  <g>
    <line style="fill: none; fill-opacity:0; stroke-width: 3; stroke: #000000" x1="525.862" y1="354.902" x2="530.706" y2="369.434"/>
    <polygon style="fill: #000000" points="533.078,376.549 525.172,368.643 530.706,369.434 534.659,365.481 "/>
    <polygon style="fill: none; fill-opacity:0; stroke-width: 3; stroke: #000000" points="533.078,376.549 525.172,368.643 530.706,369.434 534.659,365.481 "/>
  </g>
  <g>
    <ellipse style="fill: #bfbfbf" cx="520" cy="397.316" rx="20" ry="17.3162"/>
    <ellipse style="fill: none; fill-opacity:0; stroke-width: 2; stroke: #000000" cx="520" cy="397.316" rx="20" ry="17.3162"/>
    <text font-size="12.8" style="fill: #000000;text-anchor:middle;font-family:sans-serif;font-style:normal;font-weight:normal" x="520" y="401.216">
      <tspan x="520" y="401.216"></tspan>
    </text>
  </g>
  <g>
    <ellipse style="fill: #bfbfbf" cx="540" cy="397.316" rx="20" ry="17.3162"/>
    <ellipse style="fill: none; fill-opacity:0; stroke-width: 2; stroke: #000000" cx="540" cy="397.316" rx="20" ry="17.3162"/>
    <text font-size="12.8" style="fill: #000000;text-anchor:middle;font-family:sans-serif;font-style:normal;font-weight:normal" x="540" y="401.216">
      <tspan x="540" y="401.216"></tspan>
    </text>
  </g>
  <g>
    <ellipse style="fill: #1e90ff" cx="600" cy="337.316" rx="20" ry="17.3162"/>
    <ellipse style="fill: none; fill-opacity:0; stroke-width: 2; stroke: #000000" cx="600" cy="337.316" rx="20" ry="17.3162"/>
    <text font-size="12.8" style="fill: #000000;text-anchor:middle;font-family:sans-serif;font-style:normal;font-weight:normal" x="600" y="341.216">
      <tspan x="600" y="341.216"></tspan>
    </text>
  </g>
  <g>
    <ellipse style="fill: #bfbfbf" cx="580" cy="397.316" rx="20" ry="17.3162"/>
    <ellipse style="fill: none; fill-opacity:0; stroke-width: 2; stroke: #000000" cx="580" cy="397.316" rx="20" ry="17.3162"/>
    <text font-size="12.8" style="fill: #000000;text-anchor:middle;font-family:sans-serif;font-style:normal;font-weight:normal" x="580" y="401.216">
      <tspan x="580" y="401.216"></tspan>
    </text>
  </g>
  <g>
    <line style="fill: none; fill-opacity:0; stroke-width: 3; stroke: #000000" x1="594.138" y1="354.902" x2="589.294" y2="369.434"/>
    <polygon style="fill: #000000" points="586.922,376.549 585.341,365.481 589.294,369.434 594.828,368.643 "/>
    <polygon style="fill: none; fill-opacity:0; stroke-width: 3; stroke: #000000" points="586.922,376.549 585.341,365.481 589.294,369.434 594.828,368.643 "/>
  </g>
  <g>
    <line style="fill: none; fill-opacity:0; stroke-width: 3; stroke: #000000" x1="600" y1="355.634" x2="600" y2="368.144"/>
    <polygon style="fill: #000000" points="600,375.644 595,365.644 600,368.144 605,365.644 "/>
    <polygon style="fill: none; fill-opacity:0; stroke-width: 3; stroke: #000000" points="600,375.644 595,365.644 600,368.144 605,365.644 "/>
  </g>
  <g>
    <line style="fill: none; fill-opacity:0; stroke-width: 3; stroke: #000000" x1="605.862" y1="354.902" x2="610.706" y2="369.434"/>
    <polygon style="fill: #000000" points="613.078,376.549 605.172,368.643 610.706,369.434 614.659,365.481 "/>
    <polygon style="fill: none; fill-opacity:0; stroke-width: 3; stroke: #000000" points="613.078,376.549 605.172,368.643 610.706,369.434 614.659,365.481 "/>
  </g>
  <g>
    <ellipse style="fill: #bfbfbf" cx="600" cy="397.316" rx="20" ry="17.3162"/>
    <ellipse style="fill: none; fill-opacity:0; stroke-width: 2; stroke: #000000" cx="600" cy="397.316" rx="20" ry="17.3162"/>
    <text font-size="12.8" style="fill: #000000;text-anchor:middle;font-family:sans-serif;font-style:normal;font-weight:normal" x="600" y="401.216">
      <tspan x="600" y="401.216"></tspan>
    </text>
  </g>
  <g>
    <ellipse style="fill: #bfbfbf" cx="620" cy="397.316" rx="20" ry="17.3162"/>
    <ellipse style="fill: none; fill-opacity:0; stroke-width: 2; stroke: #000000" cx="620" cy="397.316" rx="20" ry="17.3162"/>
    <text font-size="12.8" style="fill: #000000;text-anchor:middle;font-family:sans-serif;font-style:normal;font-weight:normal" x="620" y="401.216">
      <tspan x="620" y="401.216"></tspan>
    </text>
  </g>
  <g>
    <line style="fill: none; fill-opacity:0; stroke-width: 3; stroke: #000000" x1="730.552" y1="293.144" x2="743.427" y2="312.457"/>
    <polygon style="fill: #000000" points="747.588,318.698 737.88,313.151 743.427,312.457 746.201,307.604 "/>
    <polygon style="fill: none; fill-opacity:0; stroke-width: 3; stroke: #000000" points="747.588,318.698 737.88,313.151 743.427,312.457 746.201,307.604 "/>
  </g>
  <g>
    <ellipse style="fill: #90ee90" cx="720" cy="277.316" rx="20" ry="17.3162"/>
    <ellipse style="fill: none; fill-opacity:0; stroke-width: 2; stroke: #000000" cx="720" cy="277.316" rx="20" ry="17.3162"/>
    <text font-size="12.8" style="fill: #000000;text-anchor:middle;font-family:sans-serif;font-style:normal;font-weight:normal" x="720" y="281.216">
      <tspan x="720" y="281.216"></tspan>
    </text>
  </g>
  <g>
    <ellipse style="fill: #1e90ff" cx="680" cy="337.316" rx="20" ry="17.3162"/>
    <ellipse style="fill: none; fill-opacity:0; stroke-width: 2; stroke: #000000" cx="680" cy="337.316" rx="20" ry="17.3162"/>
    <text font-size="12.8" style="fill: #000000;text-anchor:middle;font-family:sans-serif;font-style:normal;font-weight:normal" x="680" y="341.216">
      <tspan x="680" y="341.216"></tspan>
    </text>
  </g>
  <g>
    <line style="fill: none; fill-opacity:0; stroke-width: 3; stroke: #000000" x1="709.448" y1="293.144" x2="696.573" y2="312.457"/>
    <polygon style="fill: #000000" points="692.412,318.698 693.799,307.604 696.573,312.457 702.12,313.151 "/>
    <polygon style="fill: none; fill-opacity:0; stroke-width: 3; stroke: #000000" points="692.412,318.698 693.799,307.604 696.573,312.457 702.12,313.151 "/>
  </g>
  <g>
    <line style="fill: none; fill-opacity:0; stroke-width: 3; stroke: #000000" x1="685.862" y1="354.902" x2="690.706" y2="369.434"/>
    <polygon style="fill: #000000" points="693.078,376.549 685.172,368.643 690.706,369.434 694.659,365.481 "/>
    <polygon style="fill: none; fill-opacity:0; stroke-width: 3; stroke: #000000" points="693.078,376.549 685.172,368.643 690.706,369.434 694.659,365.481 "/>
  </g>
  <g>
    <line style="fill: none; fill-opacity:0; stroke-width: 3; stroke: #000000" x1="680" y1="355.637" x2="680" y2="368.158"/>
    <polygon style="fill: #000000" points="680,375.658 675,365.658 680,368.158 685,365.658 "/>
    <polygon style="fill: none; fill-opacity:0; stroke-width: 3; stroke: #000000" points="680,375.658 675,365.658 680,368.158 685,365.658 "/>
  </g>
  <g>
    <line style="fill: none; fill-opacity:0; stroke-width: 3; stroke: #000000" x1="674.138" y1="354.902" x2="669.294" y2="369.434"/>
    <polygon style="fill: #000000" points="666.922,376.549 665.341,365.481 669.294,369.434 674.828,368.643 "/>
    <polygon style="fill: none; fill-opacity:0; stroke-width: 3; stroke: #000000" points="666.922,376.549 665.341,365.481 669.294,369.434 674.828,368.643 "/>
  </g>
  <g>
    <ellipse style="fill: #bfbfbf" cx="660" cy="397.316" rx="20" ry="17.3162"/>
    <ellipse style="fill: none; fill-opacity:0; stroke-width: 2; stroke: #000000" cx="660" cy="397.316" rx="20" ry="17.3162"/>
    <text font-size="12.8" style="fill: #000000;text-anchor:middle;font-family:sans-serif;font-style:normal;font-weight:normal" x="660" y="401.216">
      <tspan x="660" y="401.216"></tspan>
    </text>
  </g>
  <g>
    <ellipse style="fill: #1e90ff" cx="760" cy="337.316" rx="20" ry="17.3162"/>
    <ellipse style="fill: none; fill-opacity:0; stroke-width: 2; stroke: #000000" cx="760" cy="337.316" rx="20" ry="17.3162"/>
    <text font-size="12.8" style="fill: #000000;text-anchor:middle;font-family:sans-serif;font-style:normal;font-weight:normal" x="760" y="341.216">
      <tspan x="760" y="341.216"></tspan>
    </text>
  </g>
  <g>
    <ellipse style="fill: #bfbfbf" cx="740" cy="397.316" rx="20" ry="17.3162"/>
    <ellipse style="fill: none; fill-opacity:0; stroke-width: 2; stroke: #000000" cx="740" cy="397.316" rx="20" ry="17.3162"/>
    <text font-size="12.8" style="fill: #000000;text-anchor:middle;font-family:sans-serif;font-style:normal;font-weight:normal" x="740" y="401.216">
      <tspan x="740" y="401.216"></tspan>
    </text>
  </g>
  <g>
    <line style="fill: none; fill-opacity:0; stroke-width: 3; stroke: #000000" x1="754.138" y1="354.902" x2="749.294" y2="369.434"/>
    <polygon style="fill: #000000" points="746.922,376.549 745.341,365.481 749.294,369.434 754.828,368.643 "/>
    <polygon style="fill: none; fill-opacity:0; stroke-width: 3; stroke: #000000" points="746.922,376.549 745.341,365.481 749.294,369.434 754.828,368.643 "/>
  </g>
  <g>
    <line style="fill: none; fill-opacity:0; stroke-width: 3; stroke: #000000" x1="760" y1="355.634" x2="760" y2="368.144"/>
    <polygon style="fill: #000000" points="760,375.644 755,365.644 760,368.144 765,365.644 "/>
    <polygon style="fill: none; fill-opacity:0; stroke-width: 3; stroke: #000000" points="760,375.644 755,365.644 760,368.144 765,365.644 "/>
  </g>
  <g>
    <line style="fill: none; fill-opacity:0; stroke-width: 3; stroke: #000000" x1="765.862" y1="354.902" x2="770.706" y2="369.434"/>
    <polygon style="fill: #000000" points="773.078,376.549 765.172,368.643 770.706,369.434 774.659,365.481 "/>
    <polygon style="fill: none; fill-opacity:0; stroke-width: 3; stroke: #000000" points="773.078,376.549 765.172,368.643 770.706,369.434 774.659,365.481 "/>
  </g>
  <g>
    <ellipse style="fill: #bfbfbf" cx="760" cy="397.316" rx="20" ry="17.3162"/>
    <ellipse style="fill: none; fill-opacity:0; stroke-width: 2; stroke: #000000" cx="760" cy="397.316" rx="20" ry="17.3162"/>
    <text font-size="12.8" style="fill: #000000;text-anchor:middle;font-family:sans-serif;font-style:normal;font-weight:normal" x="760" y="401.216">
      <tspan x="760" y="401.216"></tspan>
    </text>
  </g>
  <g>
    <ellipse style="fill: #bfbfbf" cx="780" cy="397.316" rx="20" ry="17.3162"/>
    <ellipse style="fill: none; fill-opacity:0; stroke-width: 2; stroke: #000000" cx="780" cy="397.316" rx="20" ry="17.3162"/>
    <text font-size="12.8" style="fill: #000000;text-anchor:middle;font-family:sans-serif;font-style:normal;font-weight:normal" x="780" y="401.216">
      <tspan x="780" y="401.216"></tspan>
    </text>
  </g>
  <text font-size="20.32" style="fill: #000000;text-anchor:start;font-family:monospace;font-style:normal;font-weight:normal" x="500" y="140">
    <tspan x="500" y="140">yield()</tspan>
  </text>
  <text font-size="20.32" style="fill: #000000;text-anchor:start;font-family:monospace;font-style:normal;font-weight:normal" x="660" y="200">
    <tspan x="660" y="200">mutex_lock()</tspan>
  </text>
  <text font-size="20.32" style="fill: #000000;text-anchor:start;font-family:monospace;font-style:normal;font-weight:normal" x="740" y="260">
    <tspan x="740" y="260">yield()</tspan>
  </text>
  <text font-size="20.32" style="fill: #000000;text-anchor:start;font-family:monospace;font-style:normal;font-weight:normal" x="780" y="320">
    <tspan x="780" y="320">mutex_unlock()</tspan>
  </text>
  <g>
    <ellipse style="fill: #bfbfbf" cx="680" cy="397.316" rx="20" ry="17.3162"/>
    <ellipse style="fill: none; fill-opacity:0; stroke-width: 2; stroke: #000000" cx="680" cy="397.316" rx="20" ry="17.3162"/>
    <text font-size="12.8" style="fill: #000000;text-anchor:middle;font-family:sans-serif;font-style:normal;font-weight:normal" x="680" y="401.216">
      <tspan x="680" y="401.216"></tspan>
    </text>
  </g>
  <g>
    <ellipse style="fill: #bfbfbf" cx="700" cy="397.316" rx="20" ry="17.3162"/>
    <ellipse style="fill: none; fill-opacity:0; stroke-width: 2; stroke: #000000" cx="700" cy="397.316" rx="20" ry="17.3162"/>
    <text font-size="12.8" style="fill: #000000;text-anchor:middle;font-family:sans-serif;font-style:normal;font-weight:normal" x="700" y="401.216">
      <tspan x="700" y="401.216"></tspan>
    </text>
  </g>
</svg>
