<?xml version="1.0" encoding="UTF-8" standalone="no"?>
<!DOCTYPE svg PUBLIC "-//W3C//DTD SVG 1.0//EN" "http://www.w3.org/TR/2001/PR-SVG-20010719/DTD/svg10.dtd">
<svg width="27cm" height="13cm" viewBox="158 81 528 255" xmlns="http://www.w3.org/2000/svg" xmlns:xlink="http://www.w3.org/1999/xlink">
  <g>
    <ellipse style="fill: #ffa500" cx="280" cy="177.316" rx="20" ry="17.3162"/>
    <ellipse style="fill: none; fill-opacity:0; stroke-width: 2; stroke: #000000" cx="280" cy="177.316" rx="20" ry="17.3162"/>
    <text font-size="12.8" style="fill: #000000;text-anchor:middle;font-family:sans-serif;font-style:normal;font-weight:normal" x="280" y="181.216">
      <tspan x="280" y="181.216"></tspan>
    </text>
  </g>
  <g>
    <line style="fill: none; fill-opacity:0; stroke-width: 3; stroke: #000000" x1="381.807" y1="126.413" x2="307.902" y2="163.365"/>
    <polygon style="fill: #000000" points="301.193,166.72 307.902,157.775 307.902,163.365 312.374,166.72 "/>
    <polygon style="fill: none; fill-opacity:0; stroke-width: 3; stroke: #000000" points="301.193,166.72 307.902,157.775 307.902,163.365 312.374,166.72 "/>
  </g>
  <g>
    <line style="fill: none; fill-opacity:0; stroke-width: 3; stroke: #000000" x1="290.552" y1="193.144" x2="303.427" y2="212.457"/>
    <polygon style="fill: #000000" points="307.588,218.698 297.88,213.151 303.427,212.457 306.201,207.604 "/>
    <polygon style="fill: none; fill-opacity:0; stroke-width: 3; stroke: #000000" points="307.588,218.698 297.88,213.151 303.427,212.457 306.201,207.604 "/>
  </g>
  <g>
    <line style="fill: none; fill-opacity:0; stroke-width: 3; stroke: #000000" x1="224.475" y1="255.217" x2="232.892" y2="288.886"/>
    <polygon style="fill: #000000" points="234.711,296.162 227.435,287.673 232.892,288.886 237.137,285.248 "/>
    <polygon style="fill: none; fill-opacity:0; stroke-width: 3; stroke: #000000" points="234.711,296.162 227.435,287.673 232.892,288.886 237.137,285.248 "/>
  </g>
  <g>
    <ellipse style="fill: #90ee90" cx="220" cy="237.316" rx="20" ry="17.3162"/>
    <ellipse style="fill: none; fill-opacity:0; stroke-width: 2; stroke: #000000" cx="220" cy="237.316" rx="20" ry="17.3162"/>
    <text font-size="12.8" style="fill: #000000;text-anchor:middle;font-family:sans-serif;font-style:normal;font-weight:normal" x="220" y="241.216">
      <tspan x="220" y="241.216"></tspan>
    </text>
  </g>
  <g>
    <line style="fill: none; fill-opacity:0; stroke-width: 3; stroke: #000000" x1="266.216" y1="191.1" x2="241.459" y2="215.857"/>
    <polygon style="fill: #000000" points="236.156,221.16 239.691,210.554 241.459,215.857 246.762,217.625 "/>
    <polygon style="fill: none; fill-opacity:0; stroke-width: 3; stroke: #000000" points="236.156,221.16 239.691,210.554 241.459,215.857 246.762,217.625 "/>
  </g>
  <g>
    <line style="fill: none; fill-opacity:0; stroke-width: 3; stroke: #000000" x1="211.621" y1="254.074" x2="193.233" y2="290.85"/>
    <polygon style="fill: #000000" points="189.879,297.558 189.879,286.378 193.233,290.85 198.823,290.85 "/>
    <polygon style="fill: none; fill-opacity:0; stroke-width: 3; stroke: #000000" points="189.879,297.558 189.879,286.378 193.233,290.85 198.823,290.85 "/>
  </g>
  <g>
    <line style="fill: none; fill-opacity:0; stroke-width: 3; stroke: #000000" x1="418.193" y1="126.413" x2="492.098" y2="163.365"/>
    <polygon style="fill: #000000" points="498.807,166.72 487.626,166.72 492.098,163.365 492.098,157.775 "/>
    <polygon style="fill: none; fill-opacity:0; stroke-width: 3; stroke: #000000" points="498.807,166.72 487.626,166.72 492.098,163.365 492.098,157.775 "/>
  </g>
  <g>
    <ellipse style="fill: #90ee90" cx="400" cy="117.316" rx="20" ry="17.3162"/>
    <ellipse style="fill: none; fill-opacity:0; stroke-width: 2; stroke: #000000" cx="400" cy="117.316" rx="20" ry="17.3162"/>
    <text font-size="12.8" style="fill: #000000;text-anchor:middle;font-family:sans-serif;font-style:normal;font-weight:normal" x="400" y="121.216">
      <tspan x="400" y="121.216"></tspan>
    </text>
  </g>
  <g>
    <ellipse style="fill: #bfbfbf" cx="240" cy="317.316" rx="20" ry="17.3162"/>
    <ellipse style="fill: none; fill-opacity:0; stroke-width: 2; stroke: #000000" cx="240" cy="317.316" rx="20" ry="17.3162"/>
    <text font-size="12.8" style="fill: #000000;text-anchor:middle;font-family:sans-serif;font-style:normal;font-weight:normal" x="240" y="321.216">
      <tspan x="240" y="321.216"></tspan>
    </text>
  </g>
  <g>
    <line style="fill: none; fill-opacity:0; stroke-width: 3; stroke: #000000" x1="328.379" y1="254.074" x2="346.767" y2="290.85"/>
    <polygon style="fill: #000000" points="350.121,297.558 341.177,290.85 346.767,290.85 350.121,286.378 "/>
    <polygon style="fill: none; fill-opacity:0; stroke-width: 3; stroke: #000000" points="350.121,297.558 341.177,290.85 346.767,290.85 350.121,286.378 "/>
  </g>
  <g>
    <ellipse style="fill: #90ee90" cx="320" cy="237.316" rx="20" ry="17.3162"/>
    <ellipse style="fill: none; fill-opacity:0; stroke-width: 2; stroke: #000000" cx="320" cy="237.316" rx="20" ry="17.3162"/>
    <text font-size="12.8" style="fill: #000000;text-anchor:middle;font-family:sans-serif;font-style:normal;font-weight:normal" x="320" y="241.216">
      <tspan x="320" y="241.216"></tspan>
    </text>
  </g>
  <g>
    <line style="fill: none; fill-opacity:0; stroke-width: 3; stroke: #000000" x1="315.525" y1="255.217" x2="307.108" y2="288.886"/>
    <polygon style="fill: #000000" points="305.289,296.162 302.863,285.248 307.108,288.886 312.565,287.673 "/>
    <polygon style="fill: none; fill-opacity:0; stroke-width: 3; stroke: #000000" points="305.289,296.162 302.863,285.248 307.108,288.886 312.565,287.673 "/>
  </g>
  <g>
    <ellipse style="fill: #bfbfbf" cx="300" cy="317.316" rx="20" ry="17.3162"/>
    <ellipse style="fill: none; fill-opacity:0; stroke-width: 2; stroke: #000000" cx="300" cy="317.316" rx="20" ry="17.3162"/>
    <text font-size="12.8" style="fill: #000000;text-anchor:middle;font-family:sans-serif;font-style:normal;font-weight:normal" x="300" y="321.216">
      <tspan x="300" y="321.216"></tspan>
    </text>
  </g>
  <g>
    <ellipse style="fill: #bfbfbf" cx="360" cy="317.316" rx="20" ry="17.3162"/>
    <ellipse style="fill: none; fill-opacity:0; stroke-width: 2; stroke: #000000" cx="360" cy="317.316" rx="20" ry="17.3162"/>
    <text font-size="12.8" style="fill: #000000;text-anchor:middle;font-family:sans-serif;font-style:normal;font-weight:normal" x="360" y="321.216">
      <tspan x="360" y="321.216"></tspan>
    </text>
  </g>
  <g>
    <ellipse style="fill: #ffa500" cx="520" cy="177.316" rx="20" ry="17.3162"/>
    <ellipse style="fill: none; fill-opacity:0; stroke-width: 2; stroke: #000000" cx="520" cy="177.316" rx="20" ry="17.3162"/>
    <text font-size="12.8" style="fill: #000000;text-anchor:middle;font-family:sans-serif;font-style:normal;font-weight:normal" x="520" y="181.216">
      <tspan x="520" y="181.216"></tspan>
    </text>
  </g>
  <g>
    <line style="fill: none; fill-opacity:0; stroke-width: 3; stroke: #000000" x1="533.784" y1="191.1" x2="558.541" y2="215.857"/>
    <polygon style="fill: #000000" points="563.844,221.16 553.238,217.625 558.541,215.857 560.309,210.554 "/>
    <polygon style="fill: none; fill-opacity:0; stroke-width: 3; stroke: #000000" points="563.844,221.16 553.238,217.625 558.541,215.857 560.309,210.554 "/>
  </g>
  <g>
    <line style="fill: none; fill-opacity:0; stroke-width: 3; stroke: #000000" x1="484.475" y1="255.217" x2="492.892" y2="288.886"/>
    <polygon style="fill: #000000" points="494.711,296.162 487.435,287.673 492.892,288.886 497.137,285.248 "/>
    <polygon style="fill: none; fill-opacity:0; stroke-width: 3; stroke: #000000" points="494.711,296.162 487.435,287.673 492.892,288.886 497.137,285.248 "/>
  </g>
  <g>
    <ellipse style="fill: #90ee90" cx="480" cy="237.316" rx="20" ry="17.3162"/>
    <ellipse style="fill: none; fill-opacity:0; stroke-width: 2; stroke: #000000" cx="480" cy="237.316" rx="20" ry="17.3162"/>
    <text font-size="12.8" style="fill: #000000;text-anchor:middle;font-family:sans-serif;font-style:normal;font-weight:normal" x="480" y="241.216">
      <tspan x="480" y="241.216"></tspan>
    </text>
  </g>
  <g>
    <line style="fill: none; fill-opacity:0; stroke-width: 3; stroke: #000000" x1="509.448" y1="193.144" x2="496.573" y2="212.457"/>
    <polygon style="fill: #000000" points="492.412,218.698 493.799,207.604 496.573,212.457 502.12,213.151 "/>
    <polygon style="fill: none; fill-opacity:0; stroke-width: 3; stroke: #000000" points="492.412,218.698 493.799,207.604 496.573,212.457 502.12,213.151 "/>
  </g>
  <g>
    <line style="fill: none; fill-opacity:0; stroke-width: 3; stroke: #000000" x1="471.621" y1="254.074" x2="453.233" y2="290.85"/>
    <polygon style="fill: #000000" points="449.879,297.558 449.879,286.378 453.233,290.85 458.823,290.85 "/>
    <polygon style="fill: none; fill-opacity:0; stroke-width: 3; stroke: #000000" points="449.879,297.558 449.879,286.378 453.233,290.85 458.823,290.85 "/>
  </g>
  <g>
    <ellipse style="fill: #bfbfbf" cx="440" cy="317.316" rx="20" ry="17.3162"/>
    <ellipse style="fill: none; fill-opacity:0; stroke-width: 2; stroke: #000000" cx="440" cy="317.316" rx="20" ry="17.3162"/>
    <text font-size="12.8" style="fill: #000000;text-anchor:middle;font-family:sans-serif;font-style:normal;font-weight:normal" x="440" y="321.216">
      <tspan x="440" y="321.216"></tspan>
    </text>
  </g>
  <g>
    <ellipse style="fill: #bfbfbf" cx="500" cy="317.316" rx="20" ry="17.3162"/>
    <ellipse style="fill: none; fill-opacity:0; stroke-width: 2; stroke: #000000" cx="500" cy="317.316" rx="20" ry="17.3162"/>
    <text font-size="12.8" style="fill: #000000;text-anchor:middle;font-family:sans-serif;font-style:normal;font-weight:normal" x="500" y="321.216">
      <tspan x="500" y="321.216"></tspan>
    </text>
  </g>
  <g>
    <line style="fill: none; fill-opacity:0; stroke-width: 3; stroke: #000000" x1="588.379" y1="254.074" x2="606.767" y2="290.85"/>
    <polygon style="fill: #000000" points="610.121,297.558 601.177,290.85 606.767,290.85 610.121,286.378 "/>
    <polygon style="fill: none; fill-opacity:0; stroke-width: 3; stroke: #000000" points="610.121,297.558 601.177,290.85 606.767,290.85 610.121,286.378 "/>
  </g>
  <g>
    <ellipse style="fill: #90ee90" cx="580" cy="237.316" rx="20" ry="17.3162"/>
    <ellipse style="fill: none; fill-opacity:0; stroke-width: 2; stroke: #000000" cx="580" cy="237.316" rx="20" ry="17.3162"/>
    <text font-size="12.8" style="fill: #000000;text-anchor:middle;font-family:sans-serif;font-style:normal;font-weight:normal" x="580" y="241.216">
      <tspan x="580" y="241.216"></tspan>
    </text>
  </g>
  <g>
    <line style="fill: none; fill-opacity:0; stroke-width: 3; stroke: #000000" x1="575.525" y1="255.217" x2="567.108" y2="288.886"/>
    <polygon style="fill: #000000" points="565.289,296.162 562.863,285.248 567.108,288.886 572.565,287.673 "/>
    <polygon style="fill: none; fill-opacity:0; stroke-width: 3; stroke: #000000" points="565.289,296.162 562.863,285.248 567.108,288.886 572.565,287.673 "/>
  </g>
  <g>
    <ellipse style="fill: #bfbfbf" cx="560" cy="317.316" rx="20" ry="17.3162"/>
    <ellipse style="fill: none; fill-opacity:0; stroke-width: 2; stroke: #000000" cx="560" cy="317.316" rx="20" ry="17.3162"/>
    <text font-size="12.8" style="fill: #000000;text-anchor:middle;font-family:sans-serif;font-style:normal;font-weight:normal" x="560" y="321.216">
      <tspan x="560" y="321.216"></tspan>
    </text>
  </g>
  <g>
    <ellipse style="fill: #bfbfbf" cx="180" cy="317.316" rx="20" ry="17.3162"/>
    <ellipse style="fill: none; fill-opacity:0; stroke-width: 2; stroke: #000000" cx="180" cy="317.316" rx="20" ry="17.3162"/>
    <text font-size="12.8" style="fill: #000000;text-anchor:middle;font-family:sans-serif;font-style:normal;font-weight:normal" x="180" y="321.216">
      <tspan x="180" y="321.216"></tspan>
    </text>
  </g>
  <g>
    <ellipse style="fill: #bfbfbf" cx="620" cy="317.316" rx="20" ry="17.3162"/>
    <ellipse style="fill: none; fill-opacity:0; stroke-width: 2; stroke: #000000" cx="620" cy="317.316" rx="20" ry="17.3162"/>
    <text font-size="12.8" style="fill: #000000;text-anchor:middle;font-family:sans-serif;font-style:normal;font-weight:normal" x="620" y="321.216">
      <tspan x="620" y="321.216"></tspan>
    </text>
  </g>
  <text font-size="20.32" style="fill: #000000;text-anchor:start;font-family:monospace;font-style:normal;font-weight:normal" x="420" y="100">
    <tspan x="420" y="100">yield()</tspan>
  </text>
  <text font-size="20.32" style="fill: #000000;text-anchor:start;font-family:monospace;font-style:normal;font-weight:normal" x="600" y="220">
    <tspan x="600" y="220">yield()</tspan>
  </text>
  <text font-size="20.32" style="fill: #000000;text-anchor:start;font-family:monospace;font-style:normal;font-weight:normal" x="540" y="160">
    <tspan x="540" y="160">mutex_lock()</tspan>
  </text>
</svg>
